<svg xmlns="http://www.w3.org/2000/svg" xmlns:xlink="http://www.w3.org/1999/xlink" width="253" height="222" viewBox="0 0 253 222">
  <defs>
    <clipPath id="clip-path">
      <rect width="253" height="222" fill="none"/>
    </clipPath>
  </defs>
  <g id="Grille_de_répétition_3" data-name="Grille de répétition 3" opacity="0.07" clip-path="url(#clip-path)">
    <g transform="translate(-317 -551)">
      <circle id="Ellipse_495" data-name="Ellipse 495" cx="2.5" cy="2.5" r="2.5" transform="translate(317 551)" fill="#fff"/>
    </g>
    <g transform="translate(-302 -551)">
      <circle id="Ellipse_495-2" data-name="Ellipse 495" cx="2.5" cy="2.5" r="2.5" transform="translate(317 551)" fill="#fff"/>
    </g>
    <g transform="translate(-287 -551)">
      <circle id="Ellipse_495-3" data-name="Ellipse 495" cx="2.5" cy="2.5" r="2.5" transform="translate(317 551)" fill="#fff"/>
    </g>
    <g transform="translate(-272 -551)">
      <circle id="Ellipse_495-4" data-name="Ellipse 495" cx="2.5" cy="2.5" r="2.5" transform="translate(317 551)" fill="#fff"/>
    </g>
    <g transform="translate(-257 -551)">
      <circle id="Ellipse_495-5" data-name="Ellipse 495" cx="2.5" cy="2.5" r="2.5" transform="translate(317 551)" fill="#fff"/>
    </g>
    <g transform="translate(-242 -551)">
      <circle id="Ellipse_495-6" data-name="Ellipse 495" cx="2.5" cy="2.5" r="2.5" transform="translate(317 551)" fill="#fff"/>
    </g>
    <g transform="translate(-227 -551)">
      <circle id="Ellipse_495-7" data-name="Ellipse 495" cx="2.5" cy="2.5" r="2.5" transform="translate(317 551)" fill="#fff"/>
    </g>
    <g transform="translate(-212 -551)">
      <circle id="Ellipse_495-8" data-name="Ellipse 495" cx="2.5" cy="2.5" r="2.5" transform="translate(317 551)" fill="#fff"/>
    </g>
    <g transform="translate(-197 -551)">
      <circle id="Ellipse_495-9" data-name="Ellipse 495" cx="2.5" cy="2.5" r="2.5" transform="translate(317 551)" fill="#fff"/>
    </g>
    <g transform="translate(-182 -551)">
      <circle id="Ellipse_495-10" data-name="Ellipse 495" cx="2.5" cy="2.5" r="2.5" transform="translate(317 551)" fill="#fff"/>
    </g>
    <g transform="translate(-167 -551)">
      <circle id="Ellipse_495-11" data-name="Ellipse 495" cx="2.5" cy="2.5" r="2.5" transform="translate(317 551)" fill="#fff"/>
    </g>
    <g transform="translate(-152 -551)">
      <circle id="Ellipse_495-12" data-name="Ellipse 495" cx="2.5" cy="2.5" r="2.5" transform="translate(317 551)" fill="#fff"/>
    </g>
    <g transform="translate(-137 -551)">
      <circle id="Ellipse_495-13" data-name="Ellipse 495" cx="2.5" cy="2.5" r="2.5" transform="translate(317 551)" fill="#fff"/>
    </g>
    <g transform="translate(-122 -551)">
      <circle id="Ellipse_495-14" data-name="Ellipse 495" cx="2.5" cy="2.5" r="2.5" transform="translate(317 551)" fill="#fff"/>
    </g>
    <g transform="translate(-107 -551)">
      <circle id="Ellipse_495-15" data-name="Ellipse 495" cx="2.5" cy="2.5" r="2.5" transform="translate(317 551)" fill="#fff"/>
    </g>
    <g transform="translate(-92 -551)">
      <circle id="Ellipse_495-16" data-name="Ellipse 495" cx="2.5" cy="2.5" r="2.5" transform="translate(317 551)" fill="#fff"/>
    </g>
    <g transform="translate(-77 -551)">
      <circle id="Ellipse_495-17" data-name="Ellipse 495" cx="2.5" cy="2.5" r="2.5" transform="translate(317 551)" fill="#fff"/>
    </g>
    <g transform="translate(-317 -536)">
      <circle id="Ellipse_495-18" data-name="Ellipse 495" cx="2.5" cy="2.5" r="2.5" transform="translate(317 551)" fill="#fff"/>
    </g>
    <g transform="translate(-302 -536)">
      <circle id="Ellipse_495-19" data-name="Ellipse 495" cx="2.5" cy="2.5" r="2.5" transform="translate(317 551)" fill="#fff"/>
    </g>
    <g transform="translate(-287 -536)">
      <circle id="Ellipse_495-20" data-name="Ellipse 495" cx="2.5" cy="2.5" r="2.5" transform="translate(317 551)" fill="#fff"/>
    </g>
    <g transform="translate(-272 -536)">
      <circle id="Ellipse_495-21" data-name="Ellipse 495" cx="2.5" cy="2.5" r="2.5" transform="translate(317 551)" fill="#fff"/>
    </g>
    <g transform="translate(-257 -536)">
      <circle id="Ellipse_495-22" data-name="Ellipse 495" cx="2.5" cy="2.5" r="2.5" transform="translate(317 551)" fill="#fff"/>
    </g>
    <g transform="translate(-242 -536)">
      <circle id="Ellipse_495-23" data-name="Ellipse 495" cx="2.5" cy="2.5" r="2.5" transform="translate(317 551)" fill="#fff"/>
    </g>
    <g transform="translate(-227 -536)">
      <circle id="Ellipse_495-24" data-name="Ellipse 495" cx="2.5" cy="2.5" r="2.5" transform="translate(317 551)" fill="#fff"/>
    </g>
    <g transform="translate(-212 -536)">
      <circle id="Ellipse_495-25" data-name="Ellipse 495" cx="2.5" cy="2.5" r="2.5" transform="translate(317 551)" fill="#fff"/>
    </g>
    <g transform="translate(-197 -536)">
      <circle id="Ellipse_495-26" data-name="Ellipse 495" cx="2.5" cy="2.5" r="2.5" transform="translate(317 551)" fill="#fff"/>
    </g>
    <g transform="translate(-182 -536)">
      <circle id="Ellipse_495-27" data-name="Ellipse 495" cx="2.5" cy="2.5" r="2.5" transform="translate(317 551)" fill="#fff"/>
    </g>
    <g transform="translate(-167 -536)">
      <circle id="Ellipse_495-28" data-name="Ellipse 495" cx="2.5" cy="2.5" r="2.5" transform="translate(317 551)" fill="#fff"/>
    </g>
    <g transform="translate(-152 -536)">
      <circle id="Ellipse_495-29" data-name="Ellipse 495" cx="2.5" cy="2.5" r="2.5" transform="translate(317 551)" fill="#fff"/>
    </g>
    <g transform="translate(-137 -536)">
      <circle id="Ellipse_495-30" data-name="Ellipse 495" cx="2.5" cy="2.5" r="2.5" transform="translate(317 551)" fill="#fff"/>
    </g>
    <g transform="translate(-122 -536)">
      <circle id="Ellipse_495-31" data-name="Ellipse 495" cx="2.5" cy="2.5" r="2.5" transform="translate(317 551)" fill="#fff"/>
    </g>
    <g transform="translate(-107 -536)">
      <circle id="Ellipse_495-32" data-name="Ellipse 495" cx="2.5" cy="2.5" r="2.5" transform="translate(317 551)" fill="#fff"/>
    </g>
    <g transform="translate(-92 -536)">
      <circle id="Ellipse_495-33" data-name="Ellipse 495" cx="2.5" cy="2.5" r="2.5" transform="translate(317 551)" fill="#fff"/>
    </g>
    <g transform="translate(-77 -536)">
      <circle id="Ellipse_495-34" data-name="Ellipse 495" cx="2.5" cy="2.5" r="2.5" transform="translate(317 551)" fill="#fff"/>
    </g>
    <g transform="translate(-317 -521)">
      <circle id="Ellipse_495-35" data-name="Ellipse 495" cx="2.5" cy="2.5" r="2.5" transform="translate(317 551)" fill="#fff"/>
    </g>
    <g transform="translate(-302 -521)">
      <circle id="Ellipse_495-36" data-name="Ellipse 495" cx="2.5" cy="2.5" r="2.5" transform="translate(317 551)" fill="#fff"/>
    </g>
    <g transform="translate(-287 -521)">
      <circle id="Ellipse_495-37" data-name="Ellipse 495" cx="2.5" cy="2.5" r="2.5" transform="translate(317 551)" fill="#fff"/>
    </g>
    <g transform="translate(-272 -521)">
      <circle id="Ellipse_495-38" data-name="Ellipse 495" cx="2.5" cy="2.5" r="2.5" transform="translate(317 551)" fill="#fff"/>
    </g>
    <g transform="translate(-257 -521)">
      <circle id="Ellipse_495-39" data-name="Ellipse 495" cx="2.5" cy="2.5" r="2.5" transform="translate(317 551)" fill="#fff"/>
    </g>
    <g transform="translate(-242 -521)">
      <circle id="Ellipse_495-40" data-name="Ellipse 495" cx="2.5" cy="2.5" r="2.5" transform="translate(317 551)" fill="#fff"/>
    </g>
    <g transform="translate(-227 -521)">
      <circle id="Ellipse_495-41" data-name="Ellipse 495" cx="2.5" cy="2.5" r="2.5" transform="translate(317 551)" fill="#fff"/>
    </g>
    <g transform="translate(-212 -521)">
      <circle id="Ellipse_495-42" data-name="Ellipse 495" cx="2.5" cy="2.5" r="2.5" transform="translate(317 551)" fill="#fff"/>
    </g>
    <g transform="translate(-197 -521)">
      <circle id="Ellipse_495-43" data-name="Ellipse 495" cx="2.5" cy="2.5" r="2.5" transform="translate(317 551)" fill="#fff"/>
    </g>
    <g transform="translate(-182 -521)">
      <circle id="Ellipse_495-44" data-name="Ellipse 495" cx="2.5" cy="2.5" r="2.5" transform="translate(317 551)" fill="#fff"/>
    </g>
    <g transform="translate(-167 -521)">
      <circle id="Ellipse_495-45" data-name="Ellipse 495" cx="2.5" cy="2.5" r="2.5" transform="translate(317 551)" fill="#fff"/>
    </g>
    <g transform="translate(-152 -521)">
      <circle id="Ellipse_495-46" data-name="Ellipse 495" cx="2.5" cy="2.5" r="2.5" transform="translate(317 551)" fill="#fff"/>
    </g>
    <g transform="translate(-137 -521)">
      <circle id="Ellipse_495-47" data-name="Ellipse 495" cx="2.5" cy="2.5" r="2.5" transform="translate(317 551)" fill="#fff"/>
    </g>
    <g transform="translate(-122 -521)">
      <circle id="Ellipse_495-48" data-name="Ellipse 495" cx="2.5" cy="2.5" r="2.5" transform="translate(317 551)" fill="#fff"/>
    </g>
    <g transform="translate(-107 -521)">
      <circle id="Ellipse_495-49" data-name="Ellipse 495" cx="2.5" cy="2.5" r="2.5" transform="translate(317 551)" fill="#fff"/>
    </g>
    <g transform="translate(-92 -521)">
      <circle id="Ellipse_495-50" data-name="Ellipse 495" cx="2.5" cy="2.5" r="2.5" transform="translate(317 551)" fill="#fff"/>
    </g>
    <g transform="translate(-77 -521)">
      <circle id="Ellipse_495-51" data-name="Ellipse 495" cx="2.5" cy="2.5" r="2.5" transform="translate(317 551)" fill="#fff"/>
    </g>
    <g transform="translate(-317 -506)">
      <circle id="Ellipse_495-52" data-name="Ellipse 495" cx="2.5" cy="2.5" r="2.5" transform="translate(317 551)" fill="#fff"/>
    </g>
    <g transform="translate(-302 -506)">
      <circle id="Ellipse_495-53" data-name="Ellipse 495" cx="2.5" cy="2.5" r="2.5" transform="translate(317 551)" fill="#fff"/>
    </g>
    <g transform="translate(-287 -506)">
      <circle id="Ellipse_495-54" data-name="Ellipse 495" cx="2.5" cy="2.5" r="2.5" transform="translate(317 551)" fill="#fff"/>
    </g>
    <g transform="translate(-272 -506)">
      <circle id="Ellipse_495-55" data-name="Ellipse 495" cx="2.5" cy="2.5" r="2.5" transform="translate(317 551)" fill="#fff"/>
    </g>
    <g transform="translate(-257 -506)">
      <circle id="Ellipse_495-56" data-name="Ellipse 495" cx="2.5" cy="2.5" r="2.5" transform="translate(317 551)" fill="#fff"/>
    </g>
    <g transform="translate(-242 -506)">
      <circle id="Ellipse_495-57" data-name="Ellipse 495" cx="2.5" cy="2.5" r="2.5" transform="translate(317 551)" fill="#fff"/>
    </g>
    <g transform="translate(-227 -506)">
      <circle id="Ellipse_495-58" data-name="Ellipse 495" cx="2.5" cy="2.5" r="2.5" transform="translate(317 551)" fill="#fff"/>
    </g>
    <g transform="translate(-212 -506)">
      <circle id="Ellipse_495-59" data-name="Ellipse 495" cx="2.5" cy="2.5" r="2.5" transform="translate(317 551)" fill="#fff"/>
    </g>
    <g transform="translate(-197 -506)">
      <circle id="Ellipse_495-60" data-name="Ellipse 495" cx="2.5" cy="2.5" r="2.5" transform="translate(317 551)" fill="#fff"/>
    </g>
    <g transform="translate(-182 -506)">
      <circle id="Ellipse_495-61" data-name="Ellipse 495" cx="2.5" cy="2.5" r="2.5" transform="translate(317 551)" fill="#fff"/>
    </g>
    <g transform="translate(-167 -506)">
      <circle id="Ellipse_495-62" data-name="Ellipse 495" cx="2.5" cy="2.5" r="2.5" transform="translate(317 551)" fill="#fff"/>
    </g>
    <g transform="translate(-152 -506)">
      <circle id="Ellipse_495-63" data-name="Ellipse 495" cx="2.5" cy="2.5" r="2.5" transform="translate(317 551)" fill="#fff"/>
    </g>
    <g transform="translate(-137 -506)">
      <circle id="Ellipse_495-64" data-name="Ellipse 495" cx="2.5" cy="2.5" r="2.5" transform="translate(317 551)" fill="#fff"/>
    </g>
    <g transform="translate(-122 -506)">
      <circle id="Ellipse_495-65" data-name="Ellipse 495" cx="2.5" cy="2.5" r="2.5" transform="translate(317 551)" fill="#fff"/>
    </g>
    <g transform="translate(-107 -506)">
      <circle id="Ellipse_495-66" data-name="Ellipse 495" cx="2.5" cy="2.5" r="2.5" transform="translate(317 551)" fill="#fff"/>
    </g>
    <g transform="translate(-92 -506)">
      <circle id="Ellipse_495-67" data-name="Ellipse 495" cx="2.5" cy="2.5" r="2.5" transform="translate(317 551)" fill="#fff"/>
    </g>
    <g transform="translate(-77 -506)">
      <circle id="Ellipse_495-68" data-name="Ellipse 495" cx="2.5" cy="2.5" r="2.5" transform="translate(317 551)" fill="#fff"/>
    </g>
    <g transform="translate(-317 -491)">
      <circle id="Ellipse_495-69" data-name="Ellipse 495" cx="2.5" cy="2.5" r="2.5" transform="translate(317 551)" fill="#fff"/>
    </g>
    <g transform="translate(-302 -491)">
      <circle id="Ellipse_495-70" data-name="Ellipse 495" cx="2.5" cy="2.5" r="2.5" transform="translate(317 551)" fill="#fff"/>
    </g>
    <g transform="translate(-287 -491)">
      <circle id="Ellipse_495-71" data-name="Ellipse 495" cx="2.5" cy="2.5" r="2.5" transform="translate(317 551)" fill="#fff"/>
    </g>
    <g transform="translate(-272 -491)">
      <circle id="Ellipse_495-72" data-name="Ellipse 495" cx="2.5" cy="2.5" r="2.5" transform="translate(317 551)" fill="#fff"/>
    </g>
    <g transform="translate(-257 -491)">
      <circle id="Ellipse_495-73" data-name="Ellipse 495" cx="2.5" cy="2.5" r="2.5" transform="translate(317 551)" fill="#fff"/>
    </g>
    <g transform="translate(-242 -491)">
      <circle id="Ellipse_495-74" data-name="Ellipse 495" cx="2.5" cy="2.5" r="2.5" transform="translate(317 551)" fill="#fff"/>
    </g>
    <g transform="translate(-227 -491)">
      <circle id="Ellipse_495-75" data-name="Ellipse 495" cx="2.5" cy="2.5" r="2.5" transform="translate(317 551)" fill="#fff"/>
    </g>
    <g transform="translate(-212 -491)">
      <circle id="Ellipse_495-76" data-name="Ellipse 495" cx="2.5" cy="2.5" r="2.5" transform="translate(317 551)" fill="#fff"/>
    </g>
    <g transform="translate(-197 -491)">
      <circle id="Ellipse_495-77" data-name="Ellipse 495" cx="2.5" cy="2.5" r="2.5" transform="translate(317 551)" fill="#fff"/>
    </g>
    <g transform="translate(-182 -491)">
      <circle id="Ellipse_495-78" data-name="Ellipse 495" cx="2.5" cy="2.5" r="2.5" transform="translate(317 551)" fill="#fff"/>
    </g>
    <g transform="translate(-167 -491)">
      <circle id="Ellipse_495-79" data-name="Ellipse 495" cx="2.5" cy="2.5" r="2.5" transform="translate(317 551)" fill="#fff"/>
    </g>
    <g transform="translate(-152 -491)">
      <circle id="Ellipse_495-80" data-name="Ellipse 495" cx="2.5" cy="2.5" r="2.5" transform="translate(317 551)" fill="#fff"/>
    </g>
    <g transform="translate(-137 -491)">
      <circle id="Ellipse_495-81" data-name="Ellipse 495" cx="2.5" cy="2.5" r="2.5" transform="translate(317 551)" fill="#fff"/>
    </g>
    <g transform="translate(-122 -491)">
      <circle id="Ellipse_495-82" data-name="Ellipse 495" cx="2.5" cy="2.5" r="2.5" transform="translate(317 551)" fill="#fff"/>
    </g>
    <g transform="translate(-107 -491)">
      <circle id="Ellipse_495-83" data-name="Ellipse 495" cx="2.5" cy="2.5" r="2.5" transform="translate(317 551)" fill="#fff"/>
    </g>
    <g transform="translate(-92 -491)">
      <circle id="Ellipse_495-84" data-name="Ellipse 495" cx="2.5" cy="2.5" r="2.5" transform="translate(317 551)" fill="#fff"/>
    </g>
    <g transform="translate(-77 -491)">
      <circle id="Ellipse_495-85" data-name="Ellipse 495" cx="2.5" cy="2.5" r="2.5" transform="translate(317 551)" fill="#fff"/>
    </g>
    <g transform="translate(-317 -476)">
      <circle id="Ellipse_495-86" data-name="Ellipse 495" cx="2.5" cy="2.5" r="2.5" transform="translate(317 551)" fill="#fff"/>
    </g>
    <g transform="translate(-302 -476)">
      <circle id="Ellipse_495-87" data-name="Ellipse 495" cx="2.5" cy="2.5" r="2.5" transform="translate(317 551)" fill="#fff"/>
    </g>
    <g transform="translate(-287 -476)">
      <circle id="Ellipse_495-88" data-name="Ellipse 495" cx="2.5" cy="2.5" r="2.5" transform="translate(317 551)" fill="#fff"/>
    </g>
    <g transform="translate(-272 -476)">
      <circle id="Ellipse_495-89" data-name="Ellipse 495" cx="2.5" cy="2.5" r="2.5" transform="translate(317 551)" fill="#fff"/>
    </g>
    <g transform="translate(-257 -476)">
      <circle id="Ellipse_495-90" data-name="Ellipse 495" cx="2.5" cy="2.5" r="2.5" transform="translate(317 551)" fill="#fff"/>
    </g>
    <g transform="translate(-242 -476)">
      <circle id="Ellipse_495-91" data-name="Ellipse 495" cx="2.5" cy="2.5" r="2.5" transform="translate(317 551)" fill="#fff"/>
    </g>
    <g transform="translate(-227 -476)">
      <circle id="Ellipse_495-92" data-name="Ellipse 495" cx="2.5" cy="2.5" r="2.5" transform="translate(317 551)" fill="#fff"/>
    </g>
    <g transform="translate(-212 -476)">
      <circle id="Ellipse_495-93" data-name="Ellipse 495" cx="2.5" cy="2.5" r="2.5" transform="translate(317 551)" fill="#fff"/>
    </g>
    <g transform="translate(-197 -476)">
      <circle id="Ellipse_495-94" data-name="Ellipse 495" cx="2.5" cy="2.5" r="2.5" transform="translate(317 551)" fill="#fff"/>
    </g>
    <g transform="translate(-182 -476)">
      <circle id="Ellipse_495-95" data-name="Ellipse 495" cx="2.5" cy="2.5" r="2.5" transform="translate(317 551)" fill="#fff"/>
    </g>
    <g transform="translate(-167 -476)">
      <circle id="Ellipse_495-96" data-name="Ellipse 495" cx="2.5" cy="2.5" r="2.5" transform="translate(317 551)" fill="#fff"/>
    </g>
    <g transform="translate(-152 -476)">
      <circle id="Ellipse_495-97" data-name="Ellipse 495" cx="2.5" cy="2.5" r="2.5" transform="translate(317 551)" fill="#fff"/>
    </g>
    <g transform="translate(-137 -476)">
      <circle id="Ellipse_495-98" data-name="Ellipse 495" cx="2.5" cy="2.5" r="2.5" transform="translate(317 551)" fill="#fff"/>
    </g>
    <g transform="translate(-122 -476)">
      <circle id="Ellipse_495-99" data-name="Ellipse 495" cx="2.5" cy="2.5" r="2.5" transform="translate(317 551)" fill="#fff"/>
    </g>
    <g transform="translate(-107 -476)">
      <circle id="Ellipse_495-100" data-name="Ellipse 495" cx="2.5" cy="2.5" r="2.5" transform="translate(317 551)" fill="#fff"/>
    </g>
    <g transform="translate(-92 -476)">
      <circle id="Ellipse_495-101" data-name="Ellipse 495" cx="2.5" cy="2.5" r="2.5" transform="translate(317 551)" fill="#fff"/>
    </g>
    <g transform="translate(-77 -476)">
      <circle id="Ellipse_495-102" data-name="Ellipse 495" cx="2.5" cy="2.5" r="2.5" transform="translate(317 551)" fill="#fff"/>
    </g>
    <g transform="translate(-317 -461)">
      <circle id="Ellipse_495-103" data-name="Ellipse 495" cx="2.5" cy="2.5" r="2.5" transform="translate(317 551)" fill="#fff"/>
    </g>
    <g transform="translate(-302 -461)">
      <circle id="Ellipse_495-104" data-name="Ellipse 495" cx="2.5" cy="2.5" r="2.5" transform="translate(317 551)" fill="#fff"/>
    </g>
    <g transform="translate(-287 -461)">
      <circle id="Ellipse_495-105" data-name="Ellipse 495" cx="2.5" cy="2.5" r="2.5" transform="translate(317 551)" fill="#fff"/>
    </g>
    <g transform="translate(-272 -461)">
      <circle id="Ellipse_495-106" data-name="Ellipse 495" cx="2.5" cy="2.5" r="2.5" transform="translate(317 551)" fill="#fff"/>
    </g>
    <g transform="translate(-257 -461)">
      <circle id="Ellipse_495-107" data-name="Ellipse 495" cx="2.5" cy="2.5" r="2.5" transform="translate(317 551)" fill="#fff"/>
    </g>
    <g transform="translate(-242 -461)">
      <circle id="Ellipse_495-108" data-name="Ellipse 495" cx="2.5" cy="2.5" r="2.5" transform="translate(317 551)" fill="#fff"/>
    </g>
    <g transform="translate(-227 -461)">
      <circle id="Ellipse_495-109" data-name="Ellipse 495" cx="2.5" cy="2.5" r="2.5" transform="translate(317 551)" fill="#fff"/>
    </g>
    <g transform="translate(-212 -461)">
      <circle id="Ellipse_495-110" data-name="Ellipse 495" cx="2.5" cy="2.5" r="2.5" transform="translate(317 551)" fill="#fff"/>
    </g>
    <g transform="translate(-197 -461)">
      <circle id="Ellipse_495-111" data-name="Ellipse 495" cx="2.5" cy="2.5" r="2.5" transform="translate(317 551)" fill="#fff"/>
    </g>
    <g transform="translate(-182 -461)">
      <circle id="Ellipse_495-112" data-name="Ellipse 495" cx="2.5" cy="2.5" r="2.5" transform="translate(317 551)" fill="#fff"/>
    </g>
    <g transform="translate(-167 -461)">
      <circle id="Ellipse_495-113" data-name="Ellipse 495" cx="2.5" cy="2.5" r="2.5" transform="translate(317 551)" fill="#fff"/>
    </g>
    <g transform="translate(-152 -461)">
      <circle id="Ellipse_495-114" data-name="Ellipse 495" cx="2.5" cy="2.5" r="2.5" transform="translate(317 551)" fill="#fff"/>
    </g>
    <g transform="translate(-137 -461)">
      <circle id="Ellipse_495-115" data-name="Ellipse 495" cx="2.5" cy="2.5" r="2.5" transform="translate(317 551)" fill="#fff"/>
    </g>
    <g transform="translate(-122 -461)">
      <circle id="Ellipse_495-116" data-name="Ellipse 495" cx="2.5" cy="2.5" r="2.5" transform="translate(317 551)" fill="#fff"/>
    </g>
    <g transform="translate(-107 -461)">
      <circle id="Ellipse_495-117" data-name="Ellipse 495" cx="2.5" cy="2.5" r="2.5" transform="translate(317 551)" fill="#fff"/>
    </g>
    <g transform="translate(-92 -461)">
      <circle id="Ellipse_495-118" data-name="Ellipse 495" cx="2.5" cy="2.5" r="2.5" transform="translate(317 551)" fill="#fff"/>
    </g>
    <g transform="translate(-77 -461)">
      <circle id="Ellipse_495-119" data-name="Ellipse 495" cx="2.5" cy="2.5" r="2.5" transform="translate(317 551)" fill="#fff"/>
    </g>
    <g transform="translate(-317 -446)">
      <circle id="Ellipse_495-120" data-name="Ellipse 495" cx="2.5" cy="2.5" r="2.5" transform="translate(317 551)" fill="#fff"/>
    </g>
    <g transform="translate(-302 -446)">
      <circle id="Ellipse_495-121" data-name="Ellipse 495" cx="2.5" cy="2.5" r="2.5" transform="translate(317 551)" fill="#fff"/>
    </g>
    <g transform="translate(-287 -446)">
      <circle id="Ellipse_495-122" data-name="Ellipse 495" cx="2.5" cy="2.5" r="2.5" transform="translate(317 551)" fill="#fff"/>
    </g>
    <g transform="translate(-272 -446)">
      <circle id="Ellipse_495-123" data-name="Ellipse 495" cx="2.5" cy="2.5" r="2.5" transform="translate(317 551)" fill="#fff"/>
    </g>
    <g transform="translate(-257 -446)">
      <circle id="Ellipse_495-124" data-name="Ellipse 495" cx="2.5" cy="2.5" r="2.5" transform="translate(317 551)" fill="#fff"/>
    </g>
    <g transform="translate(-242 -446)">
      <circle id="Ellipse_495-125" data-name="Ellipse 495" cx="2.5" cy="2.5" r="2.5" transform="translate(317 551)" fill="#fff"/>
    </g>
    <g transform="translate(-227 -446)">
      <circle id="Ellipse_495-126" data-name="Ellipse 495" cx="2.5" cy="2.5" r="2.5" transform="translate(317 551)" fill="#fff"/>
    </g>
    <g transform="translate(-212 -446)">
      <circle id="Ellipse_495-127" data-name="Ellipse 495" cx="2.5" cy="2.5" r="2.5" transform="translate(317 551)" fill="#fff"/>
    </g>
    <g transform="translate(-197 -446)">
      <circle id="Ellipse_495-128" data-name="Ellipse 495" cx="2.5" cy="2.5" r="2.5" transform="translate(317 551)" fill="#fff"/>
    </g>
    <g transform="translate(-182 -446)">
      <circle id="Ellipse_495-129" data-name="Ellipse 495" cx="2.5" cy="2.5" r="2.5" transform="translate(317 551)" fill="#fff"/>
    </g>
    <g transform="translate(-167 -446)">
      <circle id="Ellipse_495-130" data-name="Ellipse 495" cx="2.5" cy="2.5" r="2.5" transform="translate(317 551)" fill="#fff"/>
    </g>
    <g transform="translate(-152 -446)">
      <circle id="Ellipse_495-131" data-name="Ellipse 495" cx="2.5" cy="2.5" r="2.5" transform="translate(317 551)" fill="#fff"/>
    </g>
    <g transform="translate(-137 -446)">
      <circle id="Ellipse_495-132" data-name="Ellipse 495" cx="2.5" cy="2.5" r="2.5" transform="translate(317 551)" fill="#fff"/>
    </g>
    <g transform="translate(-122 -446)">
      <circle id="Ellipse_495-133" data-name="Ellipse 495" cx="2.5" cy="2.5" r="2.5" transform="translate(317 551)" fill="#fff"/>
    </g>
    <g transform="translate(-107 -446)">
      <circle id="Ellipse_495-134" data-name="Ellipse 495" cx="2.5" cy="2.5" r="2.5" transform="translate(317 551)" fill="#fff"/>
    </g>
    <g transform="translate(-92 -446)">
      <circle id="Ellipse_495-135" data-name="Ellipse 495" cx="2.5" cy="2.5" r="2.5" transform="translate(317 551)" fill="#fff"/>
    </g>
    <g transform="translate(-77 -446)">
      <circle id="Ellipse_495-136" data-name="Ellipse 495" cx="2.5" cy="2.5" r="2.5" transform="translate(317 551)" fill="#fff"/>
    </g>
    <g transform="translate(-317 -431)">
      <circle id="Ellipse_495-137" data-name="Ellipse 495" cx="2.5" cy="2.5" r="2.5" transform="translate(317 551)" fill="#fff"/>
    </g>
    <g transform="translate(-302 -431)">
      <circle id="Ellipse_495-138" data-name="Ellipse 495" cx="2.5" cy="2.5" r="2.5" transform="translate(317 551)" fill="#fff"/>
    </g>
    <g transform="translate(-287 -431)">
      <circle id="Ellipse_495-139" data-name="Ellipse 495" cx="2.5" cy="2.5" r="2.5" transform="translate(317 551)" fill="#fff"/>
    </g>
    <g transform="translate(-272 -431)">
      <circle id="Ellipse_495-140" data-name="Ellipse 495" cx="2.5" cy="2.5" r="2.5" transform="translate(317 551)" fill="#fff"/>
    </g>
    <g transform="translate(-257 -431)">
      <circle id="Ellipse_495-141" data-name="Ellipse 495" cx="2.5" cy="2.5" r="2.5" transform="translate(317 551)" fill="#fff"/>
    </g>
    <g transform="translate(-242 -431)">
      <circle id="Ellipse_495-142" data-name="Ellipse 495" cx="2.5" cy="2.5" r="2.5" transform="translate(317 551)" fill="#fff"/>
    </g>
    <g transform="translate(-227 -431)">
      <circle id="Ellipse_495-143" data-name="Ellipse 495" cx="2.5" cy="2.5" r="2.5" transform="translate(317 551)" fill="#fff"/>
    </g>
    <g transform="translate(-212 -431)">
      <circle id="Ellipse_495-144" data-name="Ellipse 495" cx="2.5" cy="2.5" r="2.5" transform="translate(317 551)" fill="#fff"/>
    </g>
    <g transform="translate(-197 -431)">
      <circle id="Ellipse_495-145" data-name="Ellipse 495" cx="2.5" cy="2.5" r="2.5" transform="translate(317 551)" fill="#fff"/>
    </g>
    <g transform="translate(-182 -431)">
      <circle id="Ellipse_495-146" data-name="Ellipse 495" cx="2.5" cy="2.5" r="2.5" transform="translate(317 551)" fill="#fff"/>
    </g>
    <g transform="translate(-167 -431)">
      <circle id="Ellipse_495-147" data-name="Ellipse 495" cx="2.5" cy="2.5" r="2.5" transform="translate(317 551)" fill="#fff"/>
    </g>
    <g transform="translate(-152 -431)">
      <circle id="Ellipse_495-148" data-name="Ellipse 495" cx="2.5" cy="2.5" r="2.5" transform="translate(317 551)" fill="#fff"/>
    </g>
    <g transform="translate(-137 -431)">
      <circle id="Ellipse_495-149" data-name="Ellipse 495" cx="2.5" cy="2.5" r="2.5" transform="translate(317 551)" fill="#fff"/>
    </g>
    <g transform="translate(-122 -431)">
      <circle id="Ellipse_495-150" data-name="Ellipse 495" cx="2.5" cy="2.5" r="2.5" transform="translate(317 551)" fill="#fff"/>
    </g>
    <g transform="translate(-107 -431)">
      <circle id="Ellipse_495-151" data-name="Ellipse 495" cx="2.5" cy="2.5" r="2.5" transform="translate(317 551)" fill="#fff"/>
    </g>
    <g transform="translate(-92 -431)">
      <circle id="Ellipse_495-152" data-name="Ellipse 495" cx="2.5" cy="2.5" r="2.5" transform="translate(317 551)" fill="#fff"/>
    </g>
    <g transform="translate(-77 -431)">
      <circle id="Ellipse_495-153" data-name="Ellipse 495" cx="2.5" cy="2.5" r="2.5" transform="translate(317 551)" fill="#fff"/>
    </g>
    <g transform="translate(-317 -416)">
      <circle id="Ellipse_495-154" data-name="Ellipse 495" cx="2.5" cy="2.5" r="2.5" transform="translate(317 551)" fill="#fff"/>
    </g>
    <g transform="translate(-302 -416)">
      <circle id="Ellipse_495-155" data-name="Ellipse 495" cx="2.5" cy="2.5" r="2.5" transform="translate(317 551)" fill="#fff"/>
    </g>
    <g transform="translate(-287 -416)">
      <circle id="Ellipse_495-156" data-name="Ellipse 495" cx="2.5" cy="2.5" r="2.5" transform="translate(317 551)" fill="#fff"/>
    </g>
    <g transform="translate(-272 -416)">
      <circle id="Ellipse_495-157" data-name="Ellipse 495" cx="2.5" cy="2.5" r="2.5" transform="translate(317 551)" fill="#fff"/>
    </g>
    <g transform="translate(-257 -416)">
      <circle id="Ellipse_495-158" data-name="Ellipse 495" cx="2.5" cy="2.5" r="2.5" transform="translate(317 551)" fill="#fff"/>
    </g>
    <g transform="translate(-242 -416)">
      <circle id="Ellipse_495-159" data-name="Ellipse 495" cx="2.5" cy="2.5" r="2.5" transform="translate(317 551)" fill="#fff"/>
    </g>
    <g transform="translate(-227 -416)">
      <circle id="Ellipse_495-160" data-name="Ellipse 495" cx="2.5" cy="2.5" r="2.5" transform="translate(317 551)" fill="#fff"/>
    </g>
    <g transform="translate(-212 -416)">
      <circle id="Ellipse_495-161" data-name="Ellipse 495" cx="2.5" cy="2.5" r="2.5" transform="translate(317 551)" fill="#fff"/>
    </g>
    <g transform="translate(-197 -416)">
      <circle id="Ellipse_495-162" data-name="Ellipse 495" cx="2.5" cy="2.5" r="2.5" transform="translate(317 551)" fill="#fff"/>
    </g>
    <g transform="translate(-182 -416)">
      <circle id="Ellipse_495-163" data-name="Ellipse 495" cx="2.5" cy="2.5" r="2.5" transform="translate(317 551)" fill="#fff"/>
    </g>
    <g transform="translate(-167 -416)">
      <circle id="Ellipse_495-164" data-name="Ellipse 495" cx="2.5" cy="2.5" r="2.5" transform="translate(317 551)" fill="#fff"/>
    </g>
    <g transform="translate(-152 -416)">
      <circle id="Ellipse_495-165" data-name="Ellipse 495" cx="2.5" cy="2.5" r="2.5" transform="translate(317 551)" fill="#fff"/>
    </g>
    <g transform="translate(-137 -416)">
      <circle id="Ellipse_495-166" data-name="Ellipse 495" cx="2.5" cy="2.5" r="2.5" transform="translate(317 551)" fill="#fff"/>
    </g>
    <g transform="translate(-122 -416)">
      <circle id="Ellipse_495-167" data-name="Ellipse 495" cx="2.5" cy="2.5" r="2.5" transform="translate(317 551)" fill="#fff"/>
    </g>
    <g transform="translate(-107 -416)">
      <circle id="Ellipse_495-168" data-name="Ellipse 495" cx="2.5" cy="2.5" r="2.5" transform="translate(317 551)" fill="#fff"/>
    </g>
    <g transform="translate(-92 -416)">
      <circle id="Ellipse_495-169" data-name="Ellipse 495" cx="2.5" cy="2.5" r="2.5" transform="translate(317 551)" fill="#fff"/>
    </g>
    <g transform="translate(-77 -416)">
      <circle id="Ellipse_495-170" data-name="Ellipse 495" cx="2.5" cy="2.5" r="2.5" transform="translate(317 551)" fill="#fff"/>
    </g>
    <g transform="translate(-317 -401)">
      <circle id="Ellipse_495-171" data-name="Ellipse 495" cx="2.5" cy="2.5" r="2.5" transform="translate(317 551)" fill="#fff"/>
    </g>
    <g transform="translate(-302 -401)">
      <circle id="Ellipse_495-172" data-name="Ellipse 495" cx="2.5" cy="2.5" r="2.5" transform="translate(317 551)" fill="#fff"/>
    </g>
    <g transform="translate(-287 -401)">
      <circle id="Ellipse_495-173" data-name="Ellipse 495" cx="2.5" cy="2.5" r="2.5" transform="translate(317 551)" fill="#fff"/>
    </g>
    <g transform="translate(-272 -401)">
      <circle id="Ellipse_495-174" data-name="Ellipse 495" cx="2.5" cy="2.5" r="2.5" transform="translate(317 551)" fill="#fff"/>
    </g>
    <g transform="translate(-257 -401)">
      <circle id="Ellipse_495-175" data-name="Ellipse 495" cx="2.5" cy="2.5" r="2.5" transform="translate(317 551)" fill="#fff"/>
    </g>
    <g transform="translate(-242 -401)">
      <circle id="Ellipse_495-176" data-name="Ellipse 495" cx="2.5" cy="2.5" r="2.5" transform="translate(317 551)" fill="#fff"/>
    </g>
    <g transform="translate(-227 -401)">
      <circle id="Ellipse_495-177" data-name="Ellipse 495" cx="2.5" cy="2.5" r="2.5" transform="translate(317 551)" fill="#fff"/>
    </g>
    <g transform="translate(-212 -401)">
      <circle id="Ellipse_495-178" data-name="Ellipse 495" cx="2.5" cy="2.5" r="2.5" transform="translate(317 551)" fill="#fff"/>
    </g>
    <g transform="translate(-197 -401)">
      <circle id="Ellipse_495-179" data-name="Ellipse 495" cx="2.5" cy="2.5" r="2.5" transform="translate(317 551)" fill="#fff"/>
    </g>
    <g transform="translate(-182 -401)">
      <circle id="Ellipse_495-180" data-name="Ellipse 495" cx="2.5" cy="2.5" r="2.5" transform="translate(317 551)" fill="#fff"/>
    </g>
    <g transform="translate(-167 -401)">
      <circle id="Ellipse_495-181" data-name="Ellipse 495" cx="2.5" cy="2.5" r="2.5" transform="translate(317 551)" fill="#fff"/>
    </g>
    <g transform="translate(-152 -401)">
      <circle id="Ellipse_495-182" data-name="Ellipse 495" cx="2.5" cy="2.5" r="2.5" transform="translate(317 551)" fill="#fff"/>
    </g>
    <g transform="translate(-137 -401)">
      <circle id="Ellipse_495-183" data-name="Ellipse 495" cx="2.5" cy="2.5" r="2.5" transform="translate(317 551)" fill="#fff"/>
    </g>
    <g transform="translate(-122 -401)">
      <circle id="Ellipse_495-184" data-name="Ellipse 495" cx="2.5" cy="2.5" r="2.5" transform="translate(317 551)" fill="#fff"/>
    </g>
    <g transform="translate(-107 -401)">
      <circle id="Ellipse_495-185" data-name="Ellipse 495" cx="2.5" cy="2.5" r="2.5" transform="translate(317 551)" fill="#fff"/>
    </g>
    <g transform="translate(-92 -401)">
      <circle id="Ellipse_495-186" data-name="Ellipse 495" cx="2.5" cy="2.5" r="2.5" transform="translate(317 551)" fill="#fff"/>
    </g>
    <g transform="translate(-77 -401)">
      <circle id="Ellipse_495-187" data-name="Ellipse 495" cx="2.5" cy="2.5" r="2.5" transform="translate(317 551)" fill="#fff"/>
    </g>
    <g transform="translate(-317 -386)">
      <circle id="Ellipse_495-188" data-name="Ellipse 495" cx="2.5" cy="2.5" r="2.5" transform="translate(317 551)" fill="#fff"/>
    </g>
    <g transform="translate(-302 -386)">
      <circle id="Ellipse_495-189" data-name="Ellipse 495" cx="2.5" cy="2.5" r="2.5" transform="translate(317 551)" fill="#fff"/>
    </g>
    <g transform="translate(-287 -386)">
      <circle id="Ellipse_495-190" data-name="Ellipse 495" cx="2.5" cy="2.5" r="2.5" transform="translate(317 551)" fill="#fff"/>
    </g>
    <g transform="translate(-272 -386)">
      <circle id="Ellipse_495-191" data-name="Ellipse 495" cx="2.5" cy="2.5" r="2.5" transform="translate(317 551)" fill="#fff"/>
    </g>
    <g transform="translate(-257 -386)">
      <circle id="Ellipse_495-192" data-name="Ellipse 495" cx="2.5" cy="2.5" r="2.5" transform="translate(317 551)" fill="#fff"/>
    </g>
    <g transform="translate(-242 -386)">
      <circle id="Ellipse_495-193" data-name="Ellipse 495" cx="2.5" cy="2.5" r="2.5" transform="translate(317 551)" fill="#fff"/>
    </g>
    <g transform="translate(-227 -386)">
      <circle id="Ellipse_495-194" data-name="Ellipse 495" cx="2.5" cy="2.5" r="2.5" transform="translate(317 551)" fill="#fff"/>
    </g>
    <g transform="translate(-212 -386)">
      <circle id="Ellipse_495-195" data-name="Ellipse 495" cx="2.5" cy="2.5" r="2.5" transform="translate(317 551)" fill="#fff"/>
    </g>
    <g transform="translate(-197 -386)">
      <circle id="Ellipse_495-196" data-name="Ellipse 495" cx="2.5" cy="2.5" r="2.5" transform="translate(317 551)" fill="#fff"/>
    </g>
    <g transform="translate(-182 -386)">
      <circle id="Ellipse_495-197" data-name="Ellipse 495" cx="2.5" cy="2.5" r="2.5" transform="translate(317 551)" fill="#fff"/>
    </g>
    <g transform="translate(-167 -386)">
      <circle id="Ellipse_495-198" data-name="Ellipse 495" cx="2.5" cy="2.5" r="2.5" transform="translate(317 551)" fill="#fff"/>
    </g>
    <g transform="translate(-152 -386)">
      <circle id="Ellipse_495-199" data-name="Ellipse 495" cx="2.5" cy="2.5" r="2.5" transform="translate(317 551)" fill="#fff"/>
    </g>
    <g transform="translate(-137 -386)">
      <circle id="Ellipse_495-200" data-name="Ellipse 495" cx="2.5" cy="2.5" r="2.5" transform="translate(317 551)" fill="#fff"/>
    </g>
    <g transform="translate(-122 -386)">
      <circle id="Ellipse_495-201" data-name="Ellipse 495" cx="2.5" cy="2.5" r="2.5" transform="translate(317 551)" fill="#fff"/>
    </g>
    <g transform="translate(-107 -386)">
      <circle id="Ellipse_495-202" data-name="Ellipse 495" cx="2.5" cy="2.5" r="2.5" transform="translate(317 551)" fill="#fff"/>
    </g>
    <g transform="translate(-92 -386)">
      <circle id="Ellipse_495-203" data-name="Ellipse 495" cx="2.5" cy="2.5" r="2.5" transform="translate(317 551)" fill="#fff"/>
    </g>
    <g transform="translate(-77 -386)">
      <circle id="Ellipse_495-204" data-name="Ellipse 495" cx="2.5" cy="2.5" r="2.5" transform="translate(317 551)" fill="#fff"/>
    </g>
    <g transform="translate(-317 -371)">
      <circle id="Ellipse_495-205" data-name="Ellipse 495" cx="2.5" cy="2.5" r="2.5" transform="translate(317 551)" fill="#fff"/>
    </g>
    <g transform="translate(-302 -371)">
      <circle id="Ellipse_495-206" data-name="Ellipse 495" cx="2.5" cy="2.5" r="2.5" transform="translate(317 551)" fill="#fff"/>
    </g>
    <g transform="translate(-287 -371)">
      <circle id="Ellipse_495-207" data-name="Ellipse 495" cx="2.5" cy="2.5" r="2.5" transform="translate(317 551)" fill="#fff"/>
    </g>
    <g transform="translate(-272 -371)">
      <circle id="Ellipse_495-208" data-name="Ellipse 495" cx="2.5" cy="2.5" r="2.5" transform="translate(317 551)" fill="#fff"/>
    </g>
    <g transform="translate(-257 -371)">
      <circle id="Ellipse_495-209" data-name="Ellipse 495" cx="2.5" cy="2.5" r="2.5" transform="translate(317 551)" fill="#fff"/>
    </g>
    <g transform="translate(-242 -371)">
      <circle id="Ellipse_495-210" data-name="Ellipse 495" cx="2.5" cy="2.5" r="2.5" transform="translate(317 551)" fill="#fff"/>
    </g>
    <g transform="translate(-227 -371)">
      <circle id="Ellipse_495-211" data-name="Ellipse 495" cx="2.5" cy="2.5" r="2.5" transform="translate(317 551)" fill="#fff"/>
    </g>
    <g transform="translate(-212 -371)">
      <circle id="Ellipse_495-212" data-name="Ellipse 495" cx="2.5" cy="2.5" r="2.5" transform="translate(317 551)" fill="#fff"/>
    </g>
    <g transform="translate(-197 -371)">
      <circle id="Ellipse_495-213" data-name="Ellipse 495" cx="2.5" cy="2.5" r="2.5" transform="translate(317 551)" fill="#fff"/>
    </g>
    <g transform="translate(-182 -371)">
      <circle id="Ellipse_495-214" data-name="Ellipse 495" cx="2.5" cy="2.5" r="2.5" transform="translate(317 551)" fill="#fff"/>
    </g>
    <g transform="translate(-167 -371)">
      <circle id="Ellipse_495-215" data-name="Ellipse 495" cx="2.5" cy="2.5" r="2.5" transform="translate(317 551)" fill="#fff"/>
    </g>
    <g transform="translate(-152 -371)">
      <circle id="Ellipse_495-216" data-name="Ellipse 495" cx="2.5" cy="2.5" r="2.5" transform="translate(317 551)" fill="#fff"/>
    </g>
    <g transform="translate(-137 -371)">
      <circle id="Ellipse_495-217" data-name="Ellipse 495" cx="2.5" cy="2.5" r="2.5" transform="translate(317 551)" fill="#fff"/>
    </g>
    <g transform="translate(-122 -371)">
      <circle id="Ellipse_495-218" data-name="Ellipse 495" cx="2.5" cy="2.5" r="2.5" transform="translate(317 551)" fill="#fff"/>
    </g>
    <g transform="translate(-107 -371)">
      <circle id="Ellipse_495-219" data-name="Ellipse 495" cx="2.5" cy="2.5" r="2.5" transform="translate(317 551)" fill="#fff"/>
    </g>
    <g transform="translate(-92 -371)">
      <circle id="Ellipse_495-220" data-name="Ellipse 495" cx="2.5" cy="2.5" r="2.5" transform="translate(317 551)" fill="#fff"/>
    </g>
    <g transform="translate(-77 -371)">
      <circle id="Ellipse_495-221" data-name="Ellipse 495" cx="2.5" cy="2.5" r="2.5" transform="translate(317 551)" fill="#fff"/>
    </g>
    <g transform="translate(-317 -356)">
      <circle id="Ellipse_495-222" data-name="Ellipse 495" cx="2.5" cy="2.5" r="2.5" transform="translate(317 551)" fill="#fff"/>
    </g>
    <g transform="translate(-302 -356)">
      <circle id="Ellipse_495-223" data-name="Ellipse 495" cx="2.5" cy="2.5" r="2.5" transform="translate(317 551)" fill="#fff"/>
    </g>
    <g transform="translate(-287 -356)">
      <circle id="Ellipse_495-224" data-name="Ellipse 495" cx="2.5" cy="2.5" r="2.5" transform="translate(317 551)" fill="#fff"/>
    </g>
    <g transform="translate(-272 -356)">
      <circle id="Ellipse_495-225" data-name="Ellipse 495" cx="2.5" cy="2.5" r="2.5" transform="translate(317 551)" fill="#fff"/>
    </g>
    <g transform="translate(-257 -356)">
      <circle id="Ellipse_495-226" data-name="Ellipse 495" cx="2.5" cy="2.5" r="2.5" transform="translate(317 551)" fill="#fff"/>
    </g>
    <g transform="translate(-242 -356)">
      <circle id="Ellipse_495-227" data-name="Ellipse 495" cx="2.5" cy="2.5" r="2.5" transform="translate(317 551)" fill="#fff"/>
    </g>
    <g transform="translate(-227 -356)">
      <circle id="Ellipse_495-228" data-name="Ellipse 495" cx="2.5" cy="2.5" r="2.5" transform="translate(317 551)" fill="#fff"/>
    </g>
    <g transform="translate(-212 -356)">
      <circle id="Ellipse_495-229" data-name="Ellipse 495" cx="2.5" cy="2.5" r="2.5" transform="translate(317 551)" fill="#fff"/>
    </g>
    <g transform="translate(-197 -356)">
      <circle id="Ellipse_495-230" data-name="Ellipse 495" cx="2.5" cy="2.5" r="2.5" transform="translate(317 551)" fill="#fff"/>
    </g>
    <g transform="translate(-182 -356)">
      <circle id="Ellipse_495-231" data-name="Ellipse 495" cx="2.5" cy="2.5" r="2.5" transform="translate(317 551)" fill="#fff"/>
    </g>
    <g transform="translate(-167 -356)">
      <circle id="Ellipse_495-232" data-name="Ellipse 495" cx="2.5" cy="2.5" r="2.5" transform="translate(317 551)" fill="#fff"/>
    </g>
    <g transform="translate(-152 -356)">
      <circle id="Ellipse_495-233" data-name="Ellipse 495" cx="2.5" cy="2.5" r="2.5" transform="translate(317 551)" fill="#fff"/>
    </g>
    <g transform="translate(-137 -356)">
      <circle id="Ellipse_495-234" data-name="Ellipse 495" cx="2.5" cy="2.5" r="2.5" transform="translate(317 551)" fill="#fff"/>
    </g>
    <g transform="translate(-122 -356)">
      <circle id="Ellipse_495-235" data-name="Ellipse 495" cx="2.5" cy="2.5" r="2.5" transform="translate(317 551)" fill="#fff"/>
    </g>
    <g transform="translate(-107 -356)">
      <circle id="Ellipse_495-236" data-name="Ellipse 495" cx="2.5" cy="2.5" r="2.5" transform="translate(317 551)" fill="#fff"/>
    </g>
    <g transform="translate(-92 -356)">
      <circle id="Ellipse_495-237" data-name="Ellipse 495" cx="2.5" cy="2.5" r="2.5" transform="translate(317 551)" fill="#fff"/>
    </g>
    <g transform="translate(-77 -356)">
      <circle id="Ellipse_495-238" data-name="Ellipse 495" cx="2.5" cy="2.5" r="2.5" transform="translate(317 551)" fill="#fff"/>
    </g>
    <g transform="translate(-317 -341)">
      <circle id="Ellipse_495-239" data-name="Ellipse 495" cx="2.5" cy="2.5" r="2.5" transform="translate(317 551)" fill="#fff"/>
    </g>
    <g transform="translate(-302 -341)">
      <circle id="Ellipse_495-240" data-name="Ellipse 495" cx="2.5" cy="2.5" r="2.5" transform="translate(317 551)" fill="#fff"/>
    </g>
    <g transform="translate(-287 -341)">
      <circle id="Ellipse_495-241" data-name="Ellipse 495" cx="2.5" cy="2.5" r="2.5" transform="translate(317 551)" fill="#fff"/>
    </g>
    <g transform="translate(-272 -341)">
      <circle id="Ellipse_495-242" data-name="Ellipse 495" cx="2.5" cy="2.5" r="2.5" transform="translate(317 551)" fill="#fff"/>
    </g>
    <g transform="translate(-257 -341)">
      <circle id="Ellipse_495-243" data-name="Ellipse 495" cx="2.5" cy="2.5" r="2.5" transform="translate(317 551)" fill="#fff"/>
    </g>
    <g transform="translate(-242 -341)">
      <circle id="Ellipse_495-244" data-name="Ellipse 495" cx="2.5" cy="2.5" r="2.5" transform="translate(317 551)" fill="#fff"/>
    </g>
    <g transform="translate(-227 -341)">
      <circle id="Ellipse_495-245" data-name="Ellipse 495" cx="2.5" cy="2.5" r="2.5" transform="translate(317 551)" fill="#fff"/>
    </g>
    <g transform="translate(-212 -341)">
      <circle id="Ellipse_495-246" data-name="Ellipse 495" cx="2.5" cy="2.5" r="2.5" transform="translate(317 551)" fill="#fff"/>
    </g>
    <g transform="translate(-197 -341)">
      <circle id="Ellipse_495-247" data-name="Ellipse 495" cx="2.5" cy="2.5" r="2.5" transform="translate(317 551)" fill="#fff"/>
    </g>
    <g transform="translate(-182 -341)">
      <circle id="Ellipse_495-248" data-name="Ellipse 495" cx="2.5" cy="2.5" r="2.5" transform="translate(317 551)" fill="#fff"/>
    </g>
    <g transform="translate(-167 -341)">
      <circle id="Ellipse_495-249" data-name="Ellipse 495" cx="2.5" cy="2.5" r="2.5" transform="translate(317 551)" fill="#fff"/>
    </g>
    <g transform="translate(-152 -341)">
      <circle id="Ellipse_495-250" data-name="Ellipse 495" cx="2.5" cy="2.5" r="2.5" transform="translate(317 551)" fill="#fff"/>
    </g>
    <g transform="translate(-137 -341)">
      <circle id="Ellipse_495-251" data-name="Ellipse 495" cx="2.5" cy="2.5" r="2.5" transform="translate(317 551)" fill="#fff"/>
    </g>
    <g transform="translate(-122 -341)">
      <circle id="Ellipse_495-252" data-name="Ellipse 495" cx="2.5" cy="2.5" r="2.5" transform="translate(317 551)" fill="#fff"/>
    </g>
    <g transform="translate(-107 -341)">
      <circle id="Ellipse_495-253" data-name="Ellipse 495" cx="2.5" cy="2.5" r="2.5" transform="translate(317 551)" fill="#fff"/>
    </g>
    <g transform="translate(-92 -341)">
      <circle id="Ellipse_495-254" data-name="Ellipse 495" cx="2.5" cy="2.5" r="2.5" transform="translate(317 551)" fill="#fff"/>
    </g>
    <g transform="translate(-77 -341)">
      <circle id="Ellipse_495-255" data-name="Ellipse 495" cx="2.5" cy="2.5" r="2.5" transform="translate(317 551)" fill="#fff"/>
    </g>
  </g>
</svg>
