<svg xmlns="http://www.w3.org/2000/svg" xmlns:xlink="http://www.w3.org/1999/xlink" width="48" height="48" viewBox="0 0 48 48">
  <defs>
    <clipPath id="clip-logo_icon">
      <rect width="48" height="48"/>
    </clipPath>
  </defs>
  <g id="logo_icon" clip-path="url(#clip-logo_icon)">
    <g id="Groupe_1495" data-name="Groupe 1495" transform="translate(0.41 -0.348)">
      <path id="Rectangle_3059" data-name="Rectangle 3059" d="M13.818,1.93,32.979.389A4.6,4.6,0,0,1,34.85.616a4.17,4.17,0,0,1,2.512,2.361A4.53,4.53,0,0,1,37.7,4.83l-.5,19.531a13.6,13.6,0,0,1-1.131,5.064,14.688,14.688,0,0,1-6.969,7.3,13.293,13.293,0,0,1-4.974,1.333L4.784,39.31a4.423,4.423,0,0,1-1.849-.266,4.135,4.135,0,0,1-1.477-.953A4.25,4.25,0,0,1,.5,36.6a4.712,4.712,0,0,1-.3-1.879l.809-19.382a13.521,13.521,0,0,1,1.166-4.926,14.682,14.682,0,0,1,6.8-7.124A13.222,13.222,0,0,1,13.818,1.93Z" transform="translate(0.002 0)" fill="#528bff"/>
      <path id="Rectangle_3060" data-name="Rectangle 3060" d="M13.834,1.854l19.4-1.48a4.67,4.67,0,0,1,1.9.238,4.275,4.275,0,0,1,2.555,2.4,4.607,4.607,0,0,1,.346,1.877L37.614,24.67a13.7,13.7,0,0,1-1.123,5.124,14.7,14.7,0,0,1-7.028,7.369,13.383,13.383,0,0,1-5.033,1.329L4.845,39.671a4.5,4.5,0,0,1-1.874-.277,4.236,4.236,0,0,1-1.5-.972,4.354,4.354,0,0,1-.977-1.514A4.791,4.791,0,0,1,.187,35L.923,15.378A13.615,13.615,0,0,1,2.083,10.4,14.689,14.689,0,0,1,8.943,3.21,13.307,13.307,0,0,1,13.834,1.854Z" transform="translate(9.219 8.935)" fill="#fec84b"/>
      <g id="Groupe_1496" data-name="Groupe 1496" transform="translate(9.611 9.698)">
        <path id="Intersection_2" data-name="Intersection 2" d="M.008,29.312.56,14.627q.024-.657.111-1.3a11.8,11.8,0,0,1,.236-1.267q.149-.624.351-1.229t.46-1.188q.255-.583.563-1.139c.2-.371.426-.733.662-1.084s.489-.692.753-1.022.541-.647.834-.952.6-.6.912-.876.644-.544.983-.794.684-.487,1.046-.707.729-.425,1.106-.613S9.34,2.1,9.733,1.949s.8-.286,1.21-.4.825-.21,1.245-.285.85-.129,1.281-.162L27.993,0l-.374,14.679q-.019.661-.1,1.313t-.226,1.287c-.1.424-.21.841-.347,1.252s-.286.815-.456,1.21-.364.783-.569,1.161-.428.747-.668,1.1-.492.707-.759,1.042-.553.659-.848.97-.607.608-.93.892-.656.552-1,.806-.7.492-1.07.715-.743.428-1.127.617-.779.357-1.181.509-.812.283-1.227.4-.84.2-1.266.277a12.832,12.832,0,0,1-1.3.15Z" transform="translate(-0.018 0.002)" fill="#004eeb"/>
      </g>
    </g>
  </g>
</svg>
