<svg xmlns="http://www.w3.org/2000/svg" xmlns:xlink="http://www.w3.org/1999/xlink" width="224" height="136" viewBox="0 0 224 136">
  <defs>
    <clipPath id="clip-no_resource">
      <rect width="224" height="136"/>
    </clipPath>
  </defs>
  <g id="no_resource" clip-path="url(#clip-no_resource)">
    <rect id="Box" width="224" height="136" fill="none"/>
    <path id="Background" d="M61.7,94.61a9.462,9.462,0,0,1,0-18.922H9.389a9.461,9.461,0,0,1,0-18.921H63.041a9.462,9.462,0,0,0,0-18.923H29.508a9.461,9.461,0,0,1,0-18.921H83.162A9.462,9.462,0,0,1,83.162,0H214.611a9.462,9.462,0,0,1,0,18.923H160.957a9.461,9.461,0,0,1,0,18.921h29.51a9.462,9.462,0,0,1,0,18.923H176.82c-6.538,0-11.838,4.236-11.838,9.46s8.047,9.461,8.047,9.461a9.462,9.462,0,0,1,0,18.922ZM205.221,47.305a9.39,9.39,0,1,1,9.389,9.461A9.425,9.425,0,0,1,205.221,47.305Z" transform="translate(0 20)" fill="#88b8f9" opacity="0.3"/>
    <ellipse id="Ellipse_442" data-name="Ellipse 442" cx="33.5" cy="31" rx="33.5" ry="31" transform="translate(79 1)" fill="#fff"/>
    <path id="Tracé_2158" data-name="Tracé 2158" d="M71,0c39.212,0,71,8.409,71,16.969S110.212,28.827,71,28.827,1.218,25.529,1.218,16.969,31.788,0,71,0Z" transform="translate(41 29)" fill="#fff"/>
    <path id="Tracé_2159" data-name="Tracé 2159" d="M-961.265,1361.034a20.468,20.468,0,0,0,9.44,8.037c4.72,2.169,14.926,2.3,14.926,2.3l2.041-5.868s6.506-2.3,12.247,0c.312,6.677,1.293,5.868,1.293,5.868s12.995.127,16.184-2.3c.485-.368,1.076-.8,1.973-1.461,3.385-2.488,8.882-6.561,8.233-8.617-.469-1.486-13.044-8.209-33.553-6.639C-942.387,1350.951-960.754,1355.931-961.265,1361.034Z" transform="translate(1041 -1308)" fill="#dbeafd"/>
    <g id="noun-ufo-1334118" transform="translate(-124.869 -118.718)">
      <path id="Tracé_2145" data-name="Tracé 2145" d="M271.3,149.172a34.182,34.182,0,0,0-68,.416c-17.313,3.128-31.5,8.135-36.085,12.724a4.348,4.348,0,0,0-1.461,3.128c0,6.258,34.626,11.055,42.343,12.1a14.384,14.384,0,0,0,3.546,2.295,12.815,12.815,0,0,0,4.8,2.086,70.689,70.689,0,0,0,11.68,1.461l-10.429,39.84c-.208.626.208,1.043.834,1.251h.208a1.065,1.065,0,0,0,1.043-.834l12.1-46.723a13.524,13.524,0,0,1,1.877-.418l-1.461,17.731a1.043,1.043,0,0,0,2.086,0l1.461-17.938h1.878l7.509,77.386a.986.986,0,0,0,1.043,1.043,1.118,1.118,0,0,0,1.043-1.043l-7.3-76.969c.626,0,1.251.208,1.669.208l6.676,22.11a1.383,1.383,0,0,0,1.043.834h.208a.93.93,0,0,0,.626-1.251l-4.589-15.018c7.509-.626,13.557-1.877,16.9-3.546.208,0,.418,0,.418-.208a9.827,9.827,0,0,0,2.5-1.877c3.754-.626,43.386-6.258,43.386-13.141.21-6.258-17.1-12.1-37.546-15.644Zm-34-28.368a32.534,32.534,0,0,1,31.914,28.16,210.356,210.356,0,0,0-31.914-2.712,179.868,179.868,0,0,0-31.914,2.92A32.223,32.223,0,0,1,237.3,120.8Zm19.608,50.061a103.349,103.349,0,0,0-19.4-1.669c-10.638,0-26.282,1.877-27.95,6.466a30.562,30.562,0,0,1-3.964-4.381c.418-1.251,2.712-3.128,8.968-4.8s14.393-2.5,23.153-2.712c17.313-.208,29.619,3.128,31.914,6.466a58.948,58.948,0,0,1-3.964,4.8c-1.251-1.876-3.964-3.127-8.761-4.17Zm-12.724,7.093a.986.986,0,0,0,1.043-1.043c0-2.295-5.006-2.712-7.927-2.712-2.5,0-8.552.208-8.552,2.712a1.147,1.147,0,0,0,.626,1.043l-.834,3.128a64.746,64.746,0,0,1-11.68-1.461c-3.964-1.043-5.632-3.128-5.632-3.338,0-1.877,8.969-5.215,26.073-5.215a97.1,97.1,0,0,1,18.982,1.669c5.632,1.251,7.092,2.712,7.092,3.338,0,.208-.418.626-1.043,1.043l-.418.418c-3.128,1.669-9.386,2.92-17.1,3.546Zm23.779-2.92a49.7,49.7,0,0,0,3.338-4.171,1.566,1.566,0,0,0,.208-1.043c-2.295-5.423-18.982-8.343-34.208-8.135a98.193,98.193,0,0,0-23.779,2.712c-4.8,1.251-10.429,3.546-10.429,7.092a.767.767,0,0,0,.208.626,11.611,11.611,0,0,0,2.295,2.712c-21.9-2.92-37.963-7.509-37.963-9.6a3.042,3.042,0,0,1,1.043-1.669c3.964-3.964,17.731-8.968,35.459-12.306h.418a180.455,180.455,0,0,1,32.749-2.92c37.337,0,69.668,10.847,69.668,16.27,0,2.293-17.729,7.3-39.006,10.429Z" transform="translate(0 0)" fill="#88b8f9"/>
      <path id="Tracé_2146" data-name="Tracé 2146" d="M189.31,232.823a3.057,3.057,0,0,0-2.295.418,2.4,2.4,0,0,0-1.251,1.877,2.925,2.925,0,0,0,2.086,3.546h.626a3.009,3.009,0,0,0,1.461-.418,2.4,2.4,0,0,0,1.251-1.877,4.488,4.488,0,0,0-.418-2.295c0-.626-.627-1.043-1.461-1.251Zm.208,2.92c0,.208-.208.418-.418.626a.392.392,0,0,1-.626,0c-.208,0-.418-.208-.626-.418a.392.392,0,0,1,0-.626c0-.208.208-.418.418-.626.208,0,.208-.208.418-.208h.208c.208,0,.418.208.626.418v.834Z" transform="translate(-12.497 -71.552)" fill="#88b8f9"/>
      <path id="Tracé_2147" data-name="Tracé 2147" d="M264.506,213.783a3.057,3.057,0,0,0-2.294.418,2.4,2.4,0,0,0-1.251,1.877,4.488,4.488,0,0,0,.418,2.295,2.4,2.4,0,0,0,1.877,1.251h.626a3.01,3.01,0,0,0,1.461-.418,2.4,2.4,0,0,0,1.251-1.877,3.057,3.057,0,0,0-.418-2.295A2.071,2.071,0,0,0,264.506,213.783Zm.208,3.128c0,.208-.208.418-.418.626a.392.392,0,0,1-.626,0c-.208,0-.418-.208-.626-.418a.392.392,0,0,1,0-.626c.208-.208.208-.418.418-.626.208,0,.208-.208.418-.208h.208c.208,0,.418.208.626.418Z" transform="translate(-59.742 -59.604)" fill="#88b8f9"/>
      <path id="Tracé_2148" data-name="Tracé 2148" d="M448.049,213.764a2.925,2.925,0,0,0-3.546,2.086,3.057,3.057,0,0,0,.418,2.295A2.006,2.006,0,0,0,446.8,219.4h.626a3.009,3.009,0,0,0,1.461-.418,2.4,2.4,0,0,0,1.251-1.877,3.057,3.057,0,0,0-.418-2.295A4.535,4.535,0,0,0,448.049,213.764Zm0,3.128c0,.208-.208.418-.418.626a.392.392,0,0,1-.626,0c-.208,0-.418-.208-.626-.418a.392.392,0,0,1,0-.626c0-.418.418-.626.834-.626h.208a.449.449,0,0,1,.418.418C448.049,216.474,448.257,216.684,448.049,216.892Z" transform="translate(-174.868 -59.585)" fill="#88b8f9"/>
      <path id="Tracé_2149" data-name="Tracé 2149" d="M515.249,231.124a2.925,2.925,0,0,0-3.546,2.086,3.058,3.058,0,0,0,.418,2.295A2.006,2.006,0,0,0,514,236.756h.626a2.956,2.956,0,0,0,2.5-4.589C516.71,231.332,516.084,231.332,515.249,231.124Zm.21,3.128a1.146,1.146,0,0,1-1.043.626c-.208,0-.418-.208-.626-.418a.392.392,0,0,1,0-.626c0-.208.208-.418.418-.626.208,0,.208-.208.418-.208h.208c.208,0,.417.208.626.418Z" transform="translate(-217.038 -70.479)" fill="#88b8f9"/>
      <path id="Tracé_2150" data-name="Tracé 2150" d="M353.95,204.8a2.925,2.925,0,0,0-3.546,2.086,3.029,3.029,0,0,0,2.086,3.546h.626a2.956,2.956,0,0,0,2.5-4.589c-.416-.835-.834-.835-1.669-1.043Zm.21,2.92c-.208.418-.626.834-1.043.626s-.834-.626-.626-1.043c0-.418.418-.626.834-.626h.208c.208,0,.418.208.626.418C354.159,207.306,354.159,207.514,354.159,207.724Z" transform="translate(-115.812 -53.963)" fill="#88b8f9"/>
      <path id="Tracé_2152" data-name="Tracé 2152" d="M337.855,333.76a.986.986,0,0,0-1.043,1.043L332.64,388.41a1.043,1.043,0,1,0,2.086,0L338.9,334.8A1.118,1.118,0,0,0,337.855,333.76Z" transform="translate(-104.723 -134.944)" fill="#88b8f9"/>
      <path id="Tracé_2153" data-name="Tracé 2153" d="M295.632,421.029c-.626-.208-1.043.208-1.251.834l-2.712,10.429c-.208.626.208,1.043.834,1.251h.208a1.065,1.065,0,0,0,1.043-.834l2.712-10.429C296.675,421.863,296.257,421.237,295.632,421.029Z" transform="translate(-78.978 -189.673)" fill="#88b8f9"/>
      <path id="Tracé_2154" data-name="Tracé 2154" d="M420.626,435.615a.989.989,0,0,0-1.877.626l1.043,3.338a1.383,1.383,0,0,0,1.043.834h.208a.93.93,0,0,0,.626-1.251Z" transform="translate(-158.71 -198.419)" fill="#88b8f9"/>
      <path id="Tracé_2155" data-name="Tracé 2155" d="M406.307,387.461l-5.84-19.608a.989.989,0,1,0-1.877.626l5.84,19.608a1.383,1.383,0,0,0,1.043.834h.208C406.1,388.5,406.515,388.087,406.307,387.461Z" transform="translate(-146.059 -155.897)" fill="#88b8f9"/>
      <path id="Tracé_2156" data-name="Tracé 2156" d="M423.211,175.6a1.146,1.146,0,0,0,1.043.626h.418a1.007,1.007,0,0,0,.418-1.461,22.771,22.771,0,0,0-1.669-3.128,1.074,1.074,0,1,0-1.878,1.043C422.168,173.515,422.585,174.559,423.211,175.6Z" transform="translate(-160.46 -32.896)" fill="#88b8f9"/>
      <path id="Tracé_2157" data-name="Tracé 2157" d="M384.438,138.94a32.215,32.215,0,0,1,10.429,7.927,1.085,1.085,0,0,0,.834.418.767.767,0,0,0,.626-.208,1.283,1.283,0,0,0,.208-1.461,36.662,36.662,0,0,0-11.055-8.552,1.384,1.384,0,0,0-1.461.418,1.2,1.2,0,0,0,.419,1.459Z" transform="translate(-136.914 -11.461)" fill="#88b8f9"/>
    </g>
  </g>
</svg>
