<svg xmlns="http://www.w3.org/2000/svg" xmlns:xlink="http://www.w3.org/1999/xlink" width="24" height="24" viewBox="0 0 24 24">
  <defs>
    <clipPath id="clip-cube_outline-black-24dp">
      <rect width="24" height="24"/>
    </clipPath>
  </defs>
  <g id="cube_outline-black-24dp" clip-path="url(#clip-cube_outline-black-24dp)">
    <rect id="Rectangle_3053" data-name="Rectangle 3053" width="24" height="24" fill="none"/>
    <path id="Tracé_1958" data-name="Tracé 1958" d="M9.75,20.75l1.473.818a2.2,2.2,0,0,0,.576.267,1,1,0,0,0,.4,0,2.2,2.2,0,0,0,.576-.267l1.473-.818m-9-2.5-1.427-.793a2.216,2.216,0,0,1-.558-.368,1,1,0,0,1-.214-.364A2.218,2.218,0,0,1,3,16.059V14.5m0-5V7.942a2.218,2.218,0,0,1,.05-.667,1,1,0,0,1,.214-.364,2.218,2.218,0,0,1,.558-.368L5.25,5.75m4.5-2.5,1.473-.818a2.2,2.2,0,0,1,.576-.267,1,1,0,0,1,.4,0,2.2,2.2,0,0,1,.576.267l1.473.818m4.5,2.5,1.427.793a2.218,2.218,0,0,1,.558.368,1,1,0,0,1,.214.364A2.217,2.217,0,0,1,21,7.942V9.5m0,5v1.558a2.217,2.217,0,0,1-.051.667,1,1,0,0,1-.214.364,2.216,2.216,0,0,1-.558.368l-1.427.793m-9-7.5L12,12m0,0,2.25-1.25M12,12v2.5M3,7,5.25,8.25m13.5,0L21,7M12,19.5V22" transform="translate(0 -0.072)" fill="none" stroke="#000" stroke-linecap="round" stroke-linejoin="round" stroke-width="2"/>
  </g>
</svg>
