<svg xmlns="http://www.w3.org/2000/svg" xmlns:xlink="http://www.w3.org/1999/xlink" width="24" height="24" viewBox="0 0 24 24">
  <defs>
    <clipPath id="clip-document_request-black-24dp">
      <rect width="24" height="24"/>
    </clipPath>
  </defs>
  <g id="document_request-black-24dp" clip-path="url(#clip-document_request-black-24dp)">
    <rect id="Rectangle_3053" data-name="Rectangle 3053" width="24" height="24" fill="none"/>
    <path id="Tracé_1958" data-name="Tracé 1958" d="M20,9.5V6.8a7.453,7.453,0,0,0-.327-3.162,3,3,0,0,0-1.311-1.311A7.453,7.453,0,0,0,15.2,2H8.8a7.453,7.453,0,0,0-3.162.327A3,3,0,0,0,4.327,3.638,7.453,7.453,0,0,0,4,6.8V17.2a7.453,7.453,0,0,0,.327,3.162,3,3,0,0,0,1.311,1.311A7.453,7.453,0,0,0,8.8,22H14m0-11H8m2,4H8m8-8H8m8.5,8a2.248,2.248,0,0,1,4.369.75c0,1.5-2.248,2.248-2.248,2.248m.029,3h.01" transform="translate(-0.435)" fill="none" stroke="#000" stroke-linecap="round" stroke-linejoin="round" stroke-width="2"/>
  </g>
</svg>
