<svg xmlns="http://www.w3.org/2000/svg" xmlns:xlink="http://www.w3.org/1999/xlink" width="362" height="241" viewBox="0 0 362 241">
  <defs>
    <clipPath id="clip-no_constats">
      <rect width="362" height="241"/>
    </clipPath>
  </defs>
  <g id="no_constats" clip-path="url(#clip-no_constats)">
    <g id="illustration_-_no_constats" data-name="illustration - no constats" transform="translate(32.5 38.1)">
      <path id="BG" d="M277.749,86.625a9.625,9.625,0,1,1,9.625,9.625A9.626,9.626,0,0,1,277.749,86.625ZM63.25,96.25A9.625,9.625,0,0,1,63.25,77H9.625a9.625,9.625,0,1,1,0-19.249h55a9.625,9.625,0,0,0,0-19.251H30.249a9.625,9.625,0,0,1,0-19.249h55A9.625,9.625,0,1,1,85.25,0h78.375a9.625,9.625,0,1,1,0,19.251h88a9.625,9.625,0,1,1,0,19.249h30.251a9.625,9.625,0,1,1,0,19.251H255.75a9.625,9.625,0,1,0,0,19.249H264a9.625,9.625,0,1,1,0,19.251Z" transform="translate(0 29.914)" fill="#88b8f9" opacity="0.3"/>
      <g id="like" transform="translate(98.5 29.663)">
        <g id="Groupe_239" data-name="Groupe 239" transform="translate(0 8.237)">
          <path id="XMLID_1929_" d="M29.707,256.427H9.9a.816.816,0,0,1-.8-.8V204.592a.816.816,0,0,1,.8-.8H29.707a.816.816,0,0,1,.8.8v51.034A.8.8,0,0,1,29.707,256.427Z" transform="translate(-7.23 -163.615)" fill="#fff"/>
          <path id="XMLID_1929_2" data-name="XMLID_1929_" d="M29.707,256.427H9.9a.816.816,0,0,1-.8-.8V204.592a.816.816,0,0,1,.8-.8H29.707a.816.816,0,0,1,.8.8v51.034A.8.8,0,0,1,29.707,256.427Z" transform="translate(-7.23 -163.615)" fill="#88b8f9" opacity="0.3"/>
          <path id="Tracé_1687" data-name="Tracé 1687" d="M-1822.963-3481.494s22.4-.784,19.042-40.1c22.85-7.057,17.25,32.819,17.25,32.819l28.227,1.12s7.841,4.032,7.617,8.289-6.049,41.22-6.049,41.22-1.792,8.064-11.873,9.409-45.7,0-45.7,0-9.185-2.688-10.529-6.72S-1822.963-3481.494-1822.963-3481.494Z" transform="translate(1849 3523)" fill="#fff"/>
          <path id="Tracé_1686" data-name="Tracé 1686" d="M58.471,10.734C52.677,6.481,44.665,8.926,44.336,9.029A1.849,1.849,0,0,0,43.042,10.8V28.423c0,5.979-2.835,11.033-8.444,15.039a32.6,32.6,0,0,1-8.814,4.4c-.041,0-.062.021-.1.041l-1.048.349a3.478,3.478,0,0,0-2.979-1.685H3.472A3.481,3.481,0,0,0,0,50.036v49.41a3.481,3.481,0,0,0,3.472,3.472h18.2a3.462,3.462,0,0,0,3.369-2.671,13.366,13.366,0,0,0,9.779,4.253h43.1c9.163,0,15.018-4.787,16.046-13.149l5.506-34.967a13.531,13.531,0,0,0-5.3-13.087,13.23,13.23,0,0,0-7.787-2.506H63.977V24.437C63.977,18.027,62.128,13.425,58.471,10.734ZM21.408,99.18H3.719v-48.9H21.408ZM86.391,44.51A9.467,9.467,0,0,1,92,46.318a9.809,9.809,0,0,1,3.78,9.492L90.295,90.8v.062c-1.007,8.177-7.273,9.9-12.368,9.9h-43.1a9.68,9.68,0,0,1-9.677-9.677V52.008l1.705-.575a34.926,34.926,0,0,0,9.82-4.869C43.268,41.88,46.76,35.614,46.76,28.443V12.3c2.137-.411,6.431-.822,9.533,1.459,2.63,1.931,3.965,5.527,3.965,10.683V42.661a1.876,1.876,0,0,0,1.87,1.87H86.391Z" transform="translate(0 -8.237)" fill="#88b8f9"/>
        </g>
      </g>
      <path id="lines" d="M92.656,7.652,72.916,29.8ZM0,7.652,19.74,29.8Z" transform="translate(102.593 1.148)" fill="#88b8f9" stroke="#88b8f9" stroke-linecap="round" stroke-linejoin="round" stroke-miterlimit="10" stroke-width="2.5"/>
      <rect id="Rectangle_1988" data-name="Rectangle 1988" width="2.5" height="32" rx="1.25" transform="translate(147.5)" fill="#88b8f9"/>
    </g>
  </g>
</svg>
