<svg xmlns="http://www.w3.org/2000/svg" xmlns:xlink="http://www.w3.org/1999/xlink" width="362" height="241" viewBox="0 0 362 241">
  <defs>
    <clipPath id="clip-no_documents">
      <rect width="362" height="241"/>
    </clipPath>
  </defs>
  <g id="no_documents" clip-path="url(#clip-no_documents)">
    <g id="illustration_-_no_documents" data-name="illustration - no documents" transform="translate(32.5 30.5)">
      <path id="Background" d="M81.535,125.024a12.5,12.5,0,0,1,0-25.005H12.408a12.5,12.5,0,0,1,0-25h70.9a12.5,12.5,0,0,0,0-25.005H38.994a12.5,12.5,0,0,1,0-25h70.9A12.5,12.5,0,0,1,109.9,0H283.6a12.5,12.5,0,0,1,0,25.005H212.7a12.5,12.5,0,0,1,0,25h39a12.5,12.5,0,0,1,0,25.005H233.661c-8.64,0-15.643,5.6-15.643,12.5s10.634,12.5,10.634,12.5a12.5,12.5,0,0,1,0,25.005ZM271.193,62.512a12.408,12.408,0,1,1,12.408,12.5A12.455,12.455,0,0,1,271.193,62.512Z" transform="translate(0 26.791)" fill="#88b8f9" opacity="0.3"/>
      <path id="Shape" d="M111.674,142.731l-104.59.1A7.11,7.11,0,0,1,0,135.69L.121,3.575A3.57,3.57,0,0,1,3.67,0h.037l8.666.084L19.38.149,24.412.2l92.773.858,1.6,122.278-.011,12.246A7.141,7.141,0,0,1,111.674,142.731Z" transform="translate(72.636 38.236) rotate(-7)" fill="#fff" stroke="#88b8f9" stroke-linecap="round" stroke-miterlimit="10" stroke-width="2.5"/>
      <path id="Rectangle" d="M104.943,1l1.43,110.813-.01,11.1a6.427,6.427,0,0,1-6.356,6.48l-93.662.087A6.4,6.4,0,0,1,0,123.015L.11,3.586A3.567,3.567,0,0,1,3.658.011L15.245,0" transform="translate(80.305 44.422) rotate(-7)" fill="#88b8f9" opacity="0.3"/>
      <g id="Rectangle-2" data-name="Rectangle" transform="translate(105.769 0)" fill="#fff" stroke-miterlimit="10">
        <path d="M 111.6676483154297 148.7785339355469 L 7.090010166168213 148.7785339355469 C 3.869829893112183 148.7785339355469 1.250010013580322 146.1343841552734 1.250010013580322 142.8842926025391 L 1.250010013580322 7.144227027893066 C 1.250010013580322 3.894146919250488 3.869829893112183 1.250006914138794 7.090010166168213 1.250006914138794 L 87.83946990966797 1.250006914138794 C 89.39691162109375 1.250006914138794 90.86180877685547 1.861446976661682 91.96434783935547 2.971726894378662 L 115.7925109863281 26.96720695495605 C 116.898551940918 28.08098602294922 117.5076675415039 29.56280708312988 117.5076675415039 31.13970756530762 L 117.5076675415039 142.8842926025391 C 117.5076675415039 146.1343841552734 114.8878479003906 148.7785339355469 111.6676483154297 148.7785339355469 Z" stroke="none"/>
        <path d="M 7.090003967285156 2.499984741210938 C 4.55908203125 2.499984741210938 2.500007629394531 4.583389282226563 2.500007629394531 7.144210815429688 L 2.500007629394531 142.8842926025391 C 2.500007629394531 145.4451446533203 4.55908203125 147.5285491943359 7.090003967285156 147.5285491943359 L 111.6676559448242 147.5285491943359 C 114.1985778808594 147.5285491943359 116.2576522827148 145.4451446533203 116.2576522827148 142.8842926025391 L 116.2576522827148 31.13971710205078 C 116.2576522827148 29.91309356689453 115.7648315429688 28.71329498291016 114.9055328369141 27.84799194335938 L 91.07737731933594 3.852493286132813 C 90.21128082275391 2.980316162109375 89.06135559082031 2.499984741210938 87.8394775390625 2.499984741210938 L 7.090003967285156 2.499984741210938 M 7.090003967285156 -1.52587890625e-05 L 87.8394775390625 -1.52587890625e-05 C 89.71910095214844 -1.52587890625e-05 91.52180480957031 0.7520904541015625 92.85130310058594 2.090911865234375 L 116.6794815063477 26.08641815185547 C 118.0100784301758 27.42633819580078 118.7576522827148 29.24416351318359 118.7576522827148 31.13971710205078 L 118.7576522827148 142.8842926025391 C 118.7576522827148 146.8299407958984 115.5833282470703 150.0285491943359 111.6676559448242 150.0285491943359 L 7.090003967285156 150.0285491943359 C 3.174301147460938 150.0285491943359 7.62939453125e-06 146.8299407958984 7.62939453125e-06 142.8842926025391 L 7.62939453125e-06 7.144210815429688 C 7.62939453125e-06 3.198562622070313 3.174301147460938 -1.52587890625e-05 7.090003967285156 -1.52587890625e-05 Z" stroke="none" fill="#88b8f9"/>
      </g>
      <path id="Shape-2" data-name="Shape" d="M0,0V20.713a5.338,5.338,0,0,0,5.318,5.358H19.38" transform="translate(194.394 4.292)" fill="none" stroke="#88b8f9" stroke-linecap="round" stroke-linejoin="round" stroke-miterlimit="10" stroke-width="2.5"/>
      <path id="Line" d="M0,.5H46.085" transform="translate(127.039 29.863)" fill="none" stroke="#88b8f9" stroke-linecap="round" stroke-linejoin="round" stroke-miterlimit="10" stroke-width="2.5"/>
      <path id="Line-2" data-name="Line" d="M0,.5H76.218" transform="translate(127.039 51.296)" fill="none" stroke="#88b8f9" stroke-linecap="round" stroke-linejoin="round" stroke-miterlimit="10" stroke-width="2.5"/>
      <path id="Line-3" data-name="Line" d="M0,.5H76.218" transform="translate(127.039 74.514)" fill="none" stroke="#88b8f9" stroke-linecap="round" stroke-linejoin="round" stroke-miterlimit="10" stroke-width="2.5"/>
      <path id="Line-4" data-name="Line" d="M0,.5H76.218" transform="translate(127.039 97.733)" fill="none" stroke="#88b8f9" stroke-linecap="round" stroke-linejoin="round" stroke-miterlimit="10" stroke-width="2.5"/>
      <path id="Line-5" data-name="Line" d="M0,.5H46.085" transform="translate(127.039 120.952)" fill="none" stroke="#88b8f9" stroke-linecap="round" stroke-linejoin="round" stroke-miterlimit="10" stroke-width="2.5"/>
    </g>
  </g>
</svg>
