<svg xmlns="http://www.w3.org/2000/svg" xmlns:xlink="http://www.w3.org/1999/xlink" width="362" height="241" viewBox="0 0 362 241">
  <defs>
    <clipPath id="clip-no_operations">
      <rect width="362" height="241"/>
    </clipPath>
  </defs>
  <g id="no_operations" clip-path="url(#clip-no_operations)">
    <g id="illustration_-_no_operations" data-name="illustration - no operations" transform="translate(32.5 38.1)">
      <path id="Background" d="M81.808,124.491a12.449,12.449,0,0,1,0-24.9H12.449a12.449,12.449,0,1,1,0-24.9H83.586a12.449,12.449,0,0,0,0-24.9H39.125a12.449,12.449,0,0,1,0-24.9h71.139a12.449,12.449,0,1,1,0-24.9H284.551a12.449,12.449,0,0,1,0,24.9H213.412a12.449,12.449,0,1,1,0,24.9h39.127a12.449,12.449,0,1,1,0,24.9H234.444c-8.669,0-15.7,5.573-15.7,12.448s10.67,12.449,10.67,12.449a12.449,12.449,0,1,1,0,24.9ZM272.1,62.246A12.449,12.449,0,1,1,284.551,74.7,12.449,12.449,0,0,1,272.1,62.246Z" transform="translate(0 18.933)" fill="#88b8f9" stroke="#88b8f9" stroke-width="1" opacity="0.3"/>
      <path id="Rectangle_1864" data-name="Rectangle 1864" d="M0,0H143a0,0,0,0,1,0,0V46a5,5,0,0,1-5,5H5a5,5,0,0,1-5-5V0A0,0,0,0,1,0,0Z" transform="translate(76.5 101.9)" fill="#fff"/>
      <path id="Path" d="M49.829,53.9H0L17,3.626A5.335,5.335,0,0,1,22.057,0H123.775a5.335,5.335,0,0,1,5.054,3.626l17,50.273H96C96.025,54.307,49.807,54.307,49.829,53.9Z" transform="translate(74.695 49.167)" fill="#fff"/>
      <path id="Path-2" data-name="Path" d="M76.646,40.823c0,9.867-8.836,19.644-19.736,19.644S37.174,50.69,37.174,40.823c0-.32.009-2.416.028-2.731H0L14.514,2.8A4.543,4.543,0,0,1,18.829,0H94.991a4.543,4.543,0,0,1,4.314,2.8l14.514,35.29h-37.2C76.637,38.408,76.646,40.5,76.646,40.823Z" transform="translate(90.7 63.172)" fill="#88b8f9" stroke="#88b8f9" stroke-width="1" opacity="0.3"/>
      <g id="Rectangle" transform="translate(74.695 48.167)" fill="none" stroke-linejoin="round" stroke-miterlimit="10">
        <path d="M17,3.626A5.335,5.335,0,0,1,22.057,0H123.775a5.335,5.335,0,0,1,5.054,3.626l17,50.273v47.473a5.335,5.335,0,0,1-5.335,5.335H5.335A5.335,5.335,0,0,1,0,101.371V53.9Z" stroke="none"/>
        <path d="M 22.05675506591797 2.5 C 20.84006500244141 2.5 19.76071166992188 3.274383544921875 19.37090301513672 4.426933288574219 L 2.5 54.30984497070313 L 2.5 101.3711471557617 C 2.5 102.9345474243164 3.771926879882813 104.2064819335938 5.3353271484375 104.2064819335938 L 140.4968566894531 104.2064819335938 C 142.0602569580078 104.2064819335938 143.3321838378906 102.9345474243164 143.3321838378906 101.3711471557617 L 143.3321838378906 54.30984497070313 L 126.4612579345703 4.426910400390625 C 126.0714721679688 3.274360656738281 124.9921112060547 2.5 123.7754058837891 2.5 L 22.05675506591797 2.5 M 22.05675506591797 0 L 123.7754058837891 0 C 126.0632781982422 0 128.0965270996094 1.458694458007813 128.8294982910156 3.6259765625 L 145.8321838378906 53.89855194091797 L 145.8321838378906 101.3711471557617 C 145.8321838378906 104.3177642822266 143.4434661865234 106.7064819335938 140.4968566894531 106.7064819335938 L 5.3353271484375 106.7064819335938 C 2.388717651367188 106.7064819335938 0 104.3177642822266 0 101.3711471557617 L 0 53.89855194091797 L 17.002685546875 3.6259765625 C 17.73568725585938 1.458694458007813 19.76887512207031 0 22.05675506591797 0 Z" stroke="none" fill="#88b8f9"/>
      </g>
      <path id="lines" d="M92.656,7.652,72.916,29.8ZM46.417,0V0ZM0,7.652,19.74,29.8Z" transform="translate(99.593 1.148)" fill="#88b8f9" stroke="#88b8f9" stroke-linecap="round" stroke-linejoin="round" stroke-miterlimit="10" stroke-width="2.5"/>
      <rect id="Rectangle_1988" data-name="Rectangle 1988" width="2.5" height="32" rx="1.25" transform="translate(144.5)" fill="#88b8f9"/>
    </g>
  </g>
</svg>
