<svg xmlns="http://www.w3.org/2000/svg" xmlns:xlink="http://www.w3.org/1999/xlink" width="24" height="24" viewBox="0 0 24 24">
  <defs>
    <clipPath id="clip-settings-black-24dp">
      <rect width="24" height="24"/>
    </clipPath>
  </defs>
  <g id="settings-black-24dp" clip-path="url(#clip-settings-black-24dp)">
    <rect id="Rectangle_3053" data-name="Rectangle 3053" width="24" height="24" fill="none"/>
    <g id="Groupe_1500" data-name="Groupe 1500" transform="translate(-0.002)">
      <path id="Tracé_1958" data-name="Tracé 1958" d="M9.4,19.371l.584,1.315a2.213,2.213,0,0,0,4.044,0l.584-1.315a2.424,2.424,0,0,1,2.47-1.423l1.43.152a2.213,2.213,0,0,0,2.022-3.5l-.847-1.163a2.448,2.448,0,0,1,0-2.863l.847-1.163a2.213,2.213,0,0,0-2.022-3.5l-1.43.152a2.418,2.418,0,0,1-2.47-1.429l-.589-1.314a2.213,2.213,0,0,0-4.044,0L9.4,4.629a2.418,2.418,0,0,1-2.47,1.429L5.491,5.906a2.213,2.213,0,0,0-2.022,3.5l.847,1.163a2.43,2.43,0,0,1,0,2.858l-.847,1.163a2.213,2.213,0,0,0,2.022,3.5l1.43-.152A2.428,2.428,0,0,1,9.4,19.371Z" fill="none" stroke="#000" stroke-linecap="round" stroke-linejoin="round" stroke-width="2"/>
      <path id="Tracé_1959" data-name="Tracé 1959" d="M12,15a3,3,0,1,0-3-3A3,3,0,0,0,12,15Z" fill="none" stroke="#000" stroke-linecap="round" stroke-linejoin="round" stroke-width="2"/>
    </g>
  </g>
</svg>
