<svg xmlns="http://www.w3.org/2000/svg" xmlns:xlink="http://www.w3.org/1999/xlink" width="24" height="24" viewBox="0 0 24 24">
  <defs>
    <clipPath id="clip-briefcase-black-24dp">
      <rect width="24" height="24"/>
    </clipPath>
  </defs>
  <g id="briefcase-black-24dp" clip-path="url(#clip-briefcase-black-24dp)">
    <rect id="Rectangle_3053" data-name="Rectangle 3053" width="24" height="24" fill="none"/>
    <path id="Tracé_1958" data-name="Tracé 1958" d="M16,7a7.52,7.52,0,0,0-.1-1.776A3,3,0,0,0,13.776,3.1,7.518,7.518,0,0,0,12,3a7.518,7.518,0,0,0-1.776.1A3,3,0,0,0,8.1,5.224,7.518,7.518,0,0,0,8,7M5.2,21H18.8a4.968,4.968,0,0,0,2.108-.218,2,2,0,0,0,.874-.874A4.968,4.968,0,0,0,22,17.8V10.2a4.968,4.968,0,0,0-.218-2.108,2,2,0,0,0-.874-.874A4.969,4.969,0,0,0,18.8,7H5.2a4.969,4.969,0,0,0-2.108.218,2,2,0,0,0-.874.874A4.969,4.969,0,0,0,2,10.2v7.6a4.969,4.969,0,0,0,.218,2.108,2,2,0,0,0,.874.874A4.968,4.968,0,0,0,5.2,21Z" fill="none" stroke="#000" stroke-linecap="round" stroke-linejoin="round" stroke-width="2"/>
  </g>
</svg>
