<svg xmlns="http://www.w3.org/2000/svg" xmlns:xlink="http://www.w3.org/1999/xlink" width="48" height="48" viewBox="0 0 48 48">
  <defs>
    <clipPath id="clip-document_broken-colored-48dp">
      <rect width="48" height="48"/>
    </clipPath>
  </defs>
  <g id="document_broken-colored-48dp" clip-path="url(#clip-document_broken-colored-48dp)">
    <g id="icon_-_broken_document" data-name="icon - broken document">
      <rect id="Box" width="48" height="48" fill="none"/>
      <g id="files_1_" data-name="files (1)" transform="translate(-55 4)">
        <path id="Soustraction_3" data-name="Soustraction 3" d="M26.565,39.848H3.321A3.325,3.325,0,0,1,0,36.527V24.075a.83.83,0,0,1,1.417-.587l2.733,2.733,4.394-4.394a.831.831,0,0,1,1.175,0l6.054,6.054,4.394-4.394a.829.829,0,0,1,1.048-.1l4.415,2.942,2.839-2.839a.836.836,0,0,1,.588-.244.811.811,0,0,1,.317.064.826.826,0,0,1,.512.767V36.527A3.325,3.325,0,0,1,26.565,39.848ZM1.661,26.079V36.527a1.662,1.662,0,0,0,1.661,1.66H26.565a1.662,1.662,0,0,0,1.661-1.66V26.079l-1.9,1.9a.828.828,0,0,1-1.048.1L20.86,25.143l-4.5,4.5a.83.83,0,0,1-1.174,0L9.132,23.589,4.738,27.983a.83.83,0,0,1-1.174,0Zm14.113-1.174a.825.825,0,0,1-.587-.244L9.132,18.608,4.738,23a.828.828,0,0,1-1.174,0L.243,19.681A.824.824,0,0,1,0,19.094V3.321A3.325,3.325,0,0,1,3.321,0H20.754a.826.826,0,0,1,.588.243l8.3,8.3a.826.826,0,0,1,.243.588v9.962a.824.824,0,0,1-.243.587L26.322,23a.829.829,0,0,1-1.048.1L20.86,20.163l-4.5,4.5A.825.825,0,0,1,15.773,24.906ZM9.132,16.6a.822.822,0,0,1,.587.244L15.773,22.9l4.394-4.395a.831.831,0,0,1,1.048-.1l4.415,2.943,2.6-2.6V9.962H23.245a3.324,3.324,0,0,1-3.321-3.32V1.661H3.321A1.662,1.662,0,0,0,1.661,3.321v15.43l2.49,2.49,4.395-4.394A.822.822,0,0,1,9.132,16.6ZM21.585,2.834V6.641A1.662,1.662,0,0,0,23.245,8.3h3.807Z" transform="translate(64)" fill="#a8afbc"/>
      </g>
    </g>
  </g>
</svg>
