<svg xmlns="http://www.w3.org/2000/svg" xmlns:xlink="http://www.w3.org/1999/xlink" width="48" height="48" viewBox="0 0 48 48">
  <defs>
    <clipPath id="clip-document_img-colored-48dp">
      <rect width="48" height="48"/>
    </clipPath>
  </defs>
  <g id="document_img-colored-48dp" clip-path="url(#clip-document_img-colored-48dp)">
    <g id="icon_-_img_document" data-name="icon - img document">
      <rect id="Box" width="48" height="48" fill="none"/>
      <g id="img" transform="translate(7.736 4.085)">
        <path id="Tracé_1283" data-name="Tracé 1283" d="M21.964.308A.964.964,0,0,0,21.272,0H5.734A5.256,5.256,0,0,0,.5,5.224V34.606A5.256,5.256,0,0,0,5.734,39.83H26.822a5.256,5.256,0,0,0,5.234-5.224V11.275a1.036,1.036,0,0,0-.279-.673ZM22.243,3.4l6.571,6.9H24.543A2.291,2.291,0,0,1,22.243,8Zm4.579,34.51H5.734a3.332,3.332,0,0,1-3.31-3.3V5.224a3.332,3.332,0,0,1,3.31-3.3H20.319V8a4.209,4.209,0,0,0,4.224,4.214h5.59V34.606A3.326,3.326,0,0,1,26.822,37.906Zm0,0" fill="#a8afbc"/>
        <path id="Tracé_1382" data-name="Tracé 1382" d="M97.558,242.775a.967.967,0,0,0-1.464,0l-2.388,2.65-4.454-4.943a.967.967,0,0,0-1.464,0l-7.267,8.066a1.244,1.244,0,0,0,.014,1.629.989.989,0,0,0,.712.329h20.763a1.1,1.1,0,0,0,1.044-1.146,1.219,1.219,0,0,0-.307-.825Z" transform="translate(-75.645 -221.628)" fill="#88b8f9"/>
        <circle id="Ellipse_304" data-name="Ellipse 304" cx="2.5" cy="2.5" r="2.5" transform="translate(17.264 14.915)" fill="#88b8f9"/>
      </g>
    </g>
  </g>
</svg>
