<svg xmlns="http://www.w3.org/2000/svg" xmlns:xlink="http://www.w3.org/1999/xlink" width="48" height="48" viewBox="0 0 48 48">
  <defs>
    <clipPath id="clip-document_doc-colored-48dp">
      <rect width="48" height="48"/>
    </clipPath>
  </defs>
  <g id="document_doc-colored-48dp" clip-path="url(#clip-document_doc-colored-48dp)">
    <g id="icon_-_doc_document" data-name="icon - doc document">
      <rect id="Box" width="48" height="48" fill="none"/>
      <g id="doc" transform="translate(7.736 4.085)">
        <path id="Tracé_1283" data-name="Tracé 1283" d="M21.964.308A.964.964,0,0,0,21.272,0H5.734A5.256,5.256,0,0,0,.5,5.224V34.606A5.256,5.256,0,0,0,5.734,39.83H26.822a5.256,5.256,0,0,0,5.234-5.224V11.275a1.036,1.036,0,0,0-.279-.673ZM22.243,3.4l6.571,6.9H24.543A2.291,2.291,0,0,1,22.243,8Zm4.579,34.51H5.734a3.332,3.332,0,0,1-3.31-3.3V5.224a3.332,3.332,0,0,1,3.31-3.3H20.319V8a4.209,4.209,0,0,0,4.224,4.214h5.59V34.606A3.326,3.326,0,0,1,26.822,37.906Zm0,0" fill="#a8afbc"/>
        <rect id="Rectangle_1871" data-name="Rectangle 1871" width="36" height="12" rx="2" transform="translate(-1.736 17.915)" fill="#1373f3"/>
        <path id="Tracé_1567" data-name="Tracé 1567" d="M-4.879-3.186a3.4,3.4,0,0,1-.4,1.665A2.756,2.756,0,0,1-6.422-.4,3.748,3.748,0,0,1-8.209,0h-2.259V-6.354h2.259a3.819,3.819,0,0,1,1.787.391A2.708,2.708,0,0,1-5.275-4.856,3.392,3.392,0,0,1-4.879-3.186ZM-8.317-1.134a2.2,2.2,0,0,0,1.589-.54,2,2,0,0,0,.563-1.512,2.009,2.009,0,0,0-.562-1.521,2.2,2.2,0,0,0-1.589-.54H-9.2v4.113Zm8.173-5.31a3.2,3.2,0,0,1,1.616.414A3,3,0,0,1,2.615-4.874,3.358,3.358,0,0,1,3.033-3.2a3.384,3.384,0,0,1-.418,1.683A3,3,0,0,1,1.472-.351,3.2,3.2,0,0,1-.144.063,3.2,3.2,0,0,1-1.759-.351,3,3,0,0,1-2.9-1.512,3.384,3.384,0,0,1-3.321-3.2,3.358,3.358,0,0,1-2.9-4.874,3,3,0,0,1-1.759-6.03,3.2,3.2,0,0,1-.144-6.444Zm0,1.17a1.88,1.88,0,0,0-.981.252,1.724,1.724,0,0,0-.662.725,2.416,2.416,0,0,0-.238,1.1,2.416,2.416,0,0,0,.238,1.1,1.724,1.724,0,0,0,.662.725,1.88,1.88,0,0,0,.981.252,1.88,1.88,0,0,0,.981-.252A1.724,1.724,0,0,0,1.5-2.093a2.416,2.416,0,0,0,.239-1.1A2.416,2.416,0,0,0,1.5-4.3a1.724,1.724,0,0,0-.661-.725A1.88,1.88,0,0,0-.144-5.274Zm7.8-1.143a3.1,3.1,0,0,1,1.971.612A2.894,2.894,0,0,1,10.666-4.14H9.334a1.743,1.743,0,0,0-.643-.81,1.819,1.819,0,0,0-1.049-.3,1.685,1.685,0,0,0-.909.252,1.682,1.682,0,0,0-.63.72,2.509,2.509,0,0,0-.225,1.1A2.486,2.486,0,0,0,6.1-2.088a1.682,1.682,0,0,0,.63.72,1.685,1.685,0,0,0,.909.252,1.819,1.819,0,0,0,1.049-.3,1.743,1.743,0,0,0,.643-.81h1.332A2.894,2.894,0,0,1,9.631-.558,3.1,3.1,0,0,1,7.66.054a3.114,3.114,0,0,1-1.607-.41A2.788,2.788,0,0,1,4.973-1.5a3.584,3.584,0,0,1-.382-1.674A3.6,3.6,0,0,1,4.973-4.86,2.8,2.8,0,0,1,6.049-6.008,3.107,3.107,0,0,1,7.66-6.417Z" transform="translate(16.264 26.915)" fill="#fff"/>
      </g>
    </g>
  </g>
</svg>
