<svg xmlns="http://www.w3.org/2000/svg" xmlns:xlink="http://www.w3.org/1999/xlink" width="48" height="48" viewBox="0 0 48 48">
  <defs>
    <clipPath id="clip-document_pdf-colored-48dp">
      <rect width="48" height="48"/>
    </clipPath>
  </defs>
  <g id="document_pdf-colored-48dp" clip-path="url(#clip-document_pdf-colored-48dp)">
    <g id="icon_-_pdf_document" data-name="icon - pdf document">
      <rect id="Box" width="48" height="48" fill="none"/>
      <g id="pdf" transform="translate(7.736 4.085)">
        <path id="Tracé_1283" data-name="Tracé 1283" d="M21.964.308A.964.964,0,0,0,21.272,0H5.734A5.256,5.256,0,0,0,.5,5.224V34.606A5.256,5.256,0,0,0,5.734,39.83H26.822a5.256,5.256,0,0,0,5.234-5.224V11.275a1.036,1.036,0,0,0-.279-.673ZM22.243,3.4l6.571,6.9H24.543A2.291,2.291,0,0,1,22.243,8Zm4.579,34.51H5.734a3.332,3.332,0,0,1-3.31-3.3V5.224a3.332,3.332,0,0,1,3.31-3.3H20.319V8a4.209,4.209,0,0,0,4.224,4.214h5.59V34.606A3.326,3.326,0,0,1,26.822,37.906Zm0,0" fill="#a8afbc"/>
        <rect id="Rectangle_1871" data-name="Rectangle 1871" width="36" height="12" rx="2" transform="translate(-1.736 17.915)" fill="#f53669"/>
        <path id="Tracé_1566" data-name="Tracé 1566" d="M1.845-2.358V0H.576V-6.354H2.889a2.385,2.385,0,0,1,1.7.54,1.922,1.922,0,0,1,.571,1.467A1.869,1.869,0,0,1,4.568-2.9a2.4,2.4,0,0,1-1.679.54Zm.909-1.017q1.116,0,1.116-.972a.967.967,0,0,0-.261-.729,1.2,1.2,0,0,0-.855-.252H1.845v1.953Zm9.622.189a3.4,3.4,0,0,1-.4,1.665A2.756,2.756,0,0,1,10.832-.4,3.748,3.748,0,0,1,9.046,0H6.787V-6.354H9.046a3.819,3.819,0,0,1,1.786.391A2.708,2.708,0,0,1,11.98-4.856,3.392,3.392,0,0,1,12.376-3.186ZM8.938-1.134a2.2,2.2,0,0,0,1.589-.54,2,2,0,0,0,.563-1.512,2.009,2.009,0,0,0-.562-1.521,2.2,2.2,0,0,0-1.589-.54H8.056v4.113Zm9.136-5.22v1.008H15.4v1.7h2.142v.972H15.4V0H14.132V-6.354Z" transform="translate(7.264 26.915)" fill="#fff"/>
      </g>
    </g>
  </g>
</svg>
