<svg xmlns="http://www.w3.org/2000/svg" xmlns:xlink="http://www.w3.org/1999/xlink" width="24" height="24" viewBox="0 0 24 24">
  <defs>
    <clipPath id="clip-home-black-24dp">
      <rect width="24" height="24"/>
    </clipPath>
  </defs>
  <g id="home-black-24dp" clip-path="url(#clip-home-black-24dp)">
    <rect id="Rectangle_3035" data-name="Rectangle 3035" width="24" height="24" fill="none"/>
    <path id="Tracé_1825" data-name="Tracé 1825" d="M12,1.267a2,2,0,0,1,.523.07,3.019,3.019,0,0,1,1.074.638L20.379,7.25a4.957,4.957,0,0,1,1.033.944,2.991,2.991,0,0,1,.477.975,4.959,4.959,0,0,1,.111,1.4V17.8a5.5,5.5,0,0,1-.327,2.562,2.981,2.981,0,0,1-1.311,1.311A5.5,5.5,0,0,1,17.8,22H6.2a5.5,5.5,0,0,1-2.562-.327,2.981,2.981,0,0,1-1.311-1.311A5.5,5.5,0,0,1,2,17.8V10.565a4.957,4.957,0,0,1,.111-1.4,2.989,2.989,0,0,1,.477-.975A4.957,4.957,0,0,1,3.621,7.25L10.4,1.975a3.019,3.019,0,0,1,1.074-.638A2,2,0,0,1,12,1.267ZM17.8,20a5.557,5.557,0,0,0,1.654-.109.993.993,0,0,0,.437-.437A5.556,5.556,0,0,0,20,17.8V10.565a4.466,4.466,0,0,0-.037-.857,1,1,0,0,0-.159-.325,4.465,4.465,0,0,0-.653-.555L12.368,3.553c-.143-.111-.289-.225-.368-.277-.079.052-.226.166-.368.277L4.849,8.828a4.464,4.464,0,0,0-.653.555,1,1,0,0,0-.159.325A4.464,4.464,0,0,0,4,10.565V17.8a5.556,5.556,0,0,0,.109,1.654.993.993,0,0,0,.437.437A5.555,5.555,0,0,0,6.2,20Z" transform="translate(0 0.367)"/>
  </g>
</svg>
