<svg xmlns="http://www.w3.org/2000/svg" xmlns:xlink="http://www.w3.org/1999/xlink" width="24" height="24" viewBox="0 0 24 24">
  <defs>
    <clipPath id="clip-key-black-24dp">
      <rect width="24" height="24"/>
    </clipPath>
  </defs>
  <g id="key-black-24dp" clip-path="url(#clip-key-black-24dp)">
    <rect id="Rectangle_3053" data-name="Rectangle 3053" width="24" height="24" fill="none"/>
    <path id="Tracé_1958" data-name="Tracé 1958" d="M17,9a2,2,0,0,0-2-2m0,8A5.994,5.994,0,1,0,9.054,9.807a3.68,3.68,0,0,1,.068.789A.853.853,0,0,1,9,10.942a2.61,2.61,0,0,1-.426.479L3.469,16.531a2.138,2.138,0,0,0-.321.36,1,1,0,0,0-.12.289A2.139,2.139,0,0,0,3,17.663V19.4a2.484,2.484,0,0,0,.109,1.054,1,1,0,0,0,.437.437A2.484,2.484,0,0,0,4.6,21H7V19H9V17h2l1.579-1.579A2.611,2.611,0,0,1,13.058,15a.852.852,0,0,1,.346-.117,3.674,3.674,0,0,1,.789.068A6.051,6.051,0,0,0,15,15Z" fill="none" stroke="#000" stroke-linecap="round" stroke-linejoin="round" stroke-width="2"/>
  </g>
</svg>
