<svg xmlns="http://www.w3.org/2000/svg" xmlns:xlink="http://www.w3.org/1999/xlink" width="363" height="376" viewBox="0 0 363 376">
  <defs>
    <clipPath id="clip-path">
      <rect width="96" height="113" fill="none"/>
    </clipPath>
    <clipPath id="clip-constructor-icon">
      <rect width="363" height="376"/>
    </clipPath>
  </defs>
  <g id="constructor-icon" clip-path="url(#clip-constructor-icon)">
    <g id="svgg" transform="translate(-18.4 -12)">
      <path id="path0" d="M94.795,16.1c-.931,2.255-1.827,4.46-1.99,4.9s-.484,1.25-.711,1.8-.63,1.63-.894,2.4-.625,1.76-.8,2.2a78.426,78.426,0,0,0-2.8,7.628,7.181,7.181,0,0,1-1.4,2.064,5.782,5.782,0,0,0-1.4,2.472c0,.46-.147.836-.328.836s-.572.9-.872,2-.692,2-.872,2-.328.439-.328.976A1.668,1.668,0,0,1,82,46.6a1.334,1.334,0,0,0-.4,1.024c0,.427-.18.776-.4.776s-.4.45-.4,1-.18,1-.4,1-.4.445-.4.988a6.285,6.285,0,0,1-.8,2.412,6.17,6.17,0,0,0-.8,2.212c0,.433-.18.788-.4.788s-.4.352-.4.781c0,.747-.25,1.482-1.451,4.268a10.94,10.94,0,0,0-.667,2.09,2.54,2.54,0,0,1-.4,1.117c-.152.153-.277,5.2-.277,11.211V87.2H56.819l-.187-14.5c-.1-7.975-.3-16.237-.436-18.36l-.249-3.859-5.073-.252-9.552-.474-4.477-.223-9.223,9.211L18.4,67.954V112.27l18.7.2c54.694.586,202.027.046,203.382-.745,4.1-2.395,4.057-8.706-.082-11.725-.79-.577-3.2-4.157-3.2-4.755a2.932,2.932,0,0,0-.8-1.553,3.865,3.865,0,0,1-.8-1.073,16.8,16.8,0,0,0-2-2.258,11.468,11.468,0,0,1-2-2.4,11.523,11.523,0,0,0-2-2.4,11.165,11.165,0,0,1-2-2.415,5.916,5.916,0,0,0-1.368-1.74,28.3,28.3,0,0,1-2.576-3.087,24.877,24.877,0,0,0-2.638-3.08c-.786-.749-1.352-1.439-1.257-1.533a8.454,8.454,0,0,0-1.795-2.179A10.952,10.952,0,0,1,216,69.149a8.556,8.556,0,0,0-1.7-2.1c-.935-.952-2.15-2.29-2.7-2.973a3.612,3.612,0,0,0-1.5-1.258.479.479,0,0,1-.5-.417c0-.263-11.434-.4-33.5-.4H142.6l-.475-1.1a16.325,16.325,0,0,1-.753-2.3,5.987,5.987,0,0,0-.57-1.6A10.681,10.681,0,0,1,140,55a7.779,7.779,0,0,0-.852-1.98,2.781,2.781,0,0,1-.352-1.5c0-.616-.18-1.12-.4-1.12s-.4-.439-.4-.976a1.668,1.668,0,0,0-.4-1.224,1.334,1.334,0,0,1-.4-1.024c0-.427-.18-.776-.4-.776s-.4-.45-.4-1-.18-1-.4-1-.4-.54-.4-1.2-.18-1.2-.4-1.2-.4-.349-.4-.776a1.334,1.334,0,0,0-.4-1.024,1.668,1.668,0,0,1-.4-1.224c0-.537-.18-.976-.4-.976s-.4-.54-.4-1.2-.18-1.2-.4-1.2-.4-.272-.4-.6a4.179,4.179,0,0,0-.462-1.5c-1-1.926-1.138-2.312-1.138-3.09,0-.443-.18-.805-.4-.805s-.4-.45-.4-1-.18-1-.4-1-.4-.45-.4-1-.18-1-.4-1-.4-.362-.4-.805a4.258,4.258,0,0,0-.4-1.6l-.8-1.59a4.258,4.258,0,0,1-.4-1.6c0-.443-.18-.8-.4-.8s-.4-.54-.4-1.2-.18-1.2-.4-1.2a.473.473,0,0,1-.4-.52c0-3.823-1.726-4.28-16.15-4.28H96.488l-1.693,4.1M113.9,25.052c.495.133.9.445.9.695a27.5,27.5,0,0,0,1.24,3.653c.683,1.76,1.6,4.19,2.041,5.4s.961,2.6,1.16,3.1.524,1.305.724,1.8c.718,1.783,1.737,4.52,2.047,5.5.174.55,1.683,4.575,3.353,8.945s3.037,8.015,3.037,8.1-8.537.155-18.972.155H90.456l.337-1.1c.284-.927,2.619-7.2,5.4-14.5.377-.99,1.046-2.79,1.486-4s.962-2.6,1.161-3.1.523-1.305.722-1.8.721-1.89,1.16-3.1,1.358-3.64,2.041-5.4A26.874,26.874,0,0,0,104,25.729c0-.812,7.484-1.324,9.9-.677m-9.212,50.071c.36.228.254.57-.4,1.293-.489.541-1.7,1.972-2.688,3.18s-2.184,2.648-2.653,3.2-3.169,3.782-6,7.178L87.8,96.149l-.107-10.168c-.059-5.592-.02-10.4.087-10.674.221-.574,16.024-.747,16.908-.184m49.982-.012c.309.2-3.01,4.465-9.717,12.494L134.767,99.8l-1.784.122-1.783.122V87.689c0-6.8.12-12.476.267-12.622.368-.369,22.621-.326,23.2.044m20.436,12.2c.083,9.694,0,12.352-.4,12.507-.281.107-5.715.148-12.075.089L151.061,99.8l4.957-6c2.726-3.3,5.054-6.09,5.174-6.2s1.024-1.19,2.008-2.4,1.884-2.29,2-2.4,1.018-1.19,2-2.4,2-2.424,2.263-2.7.8-.92,1.209-1.435a3.008,3.008,0,0,1,3.124-1.345L175,75l.106,12.31m28.63-11.61c1.322,1.214,19.468,23.046,19.737,23.746.179.467-2.618.554-17.83.554H187.6V87.667c0-6.784.12-12.454.267-12.6.826-.827,14.89-.266,15.869.633M118.8,89.6V100h-8.833c-4.859,0-8.774-.151-8.7-.335.261-.655,16.938-20.457,17.233-20.461.165,0,.3,4.676.3,10.4M66.112,163.659a4.406,4.406,0,0,0-2.377,2.38c-.379.858-.924,1.561-1.212,1.561-.429,0-.523,19.437-.523,108.6,0,66.9.143,108.6.373,108.6.2,0,.483.347.618.771.763,2.4,1.017,2.429,24.832,2.429,11.977,0,21.777-.137,21.777-.3s.4-.483.9-.7a2.917,2.917,0,0,0,1.295-1.295c.217-.5.532-.9.7-.9s.3-48.645.288-108.1l-.017-108.1-1.135-2c-2.239-3.944-1.248-3.789-24.031-3.773-19.121.012-19.858.041-21.488.832M99.906,186.9c.058,6.545,0,11.9-.12,11.9-.2,0-16.058-13.072-17.215-14.187-.235-.227-1.991-1.673-3.9-3.213-2.735-2.206-3.523-3.075-3.715-4.1-.5-2.633-1.052-2.526,12.534-2.409L99.8,175l.106,11.9m-9.767,20.292L100,215.384v3.427l-12.5-.105L75,218.6l-.112-11c-.144-14.037-.327-13.349,2.859-10.7,1.392,1.156,6.969,5.788,12.392,10.294M100,243c0,6.963-.152,11.8-.37,11.8s-4.2-3.2-8.875-7.1-9.6-7.99-10.93-9.078-2.774-2.3-3.2-2.7a2.873,2.873,0,0,0-1.082-.722c-.419,0-.886-2.65-.6-3.4.2-.519,1.953-.6,12.644-.6H100V243M78.8,253.994c1.21.993,2.29,1.907,2.4,2.03s3.44,2.908,7.4,6.188,7.29,6.064,7.4,6.189,1.064.924,2.12,1.777c1.792,1.448,1.912,1.66,1.8,3.186L99.8,275H75l-.112-11c-.062-6.05-.01-11.421.116-11.935.258-1.056,0-1.187,3.8,1.929M100,299.4c0,6.49-.137,11.8-.305,11.8s-4.533-3.534-9.7-7.854S79.52,294.6,78.2,293.508c-2.987-2.471-3.4-3-3.4-4.318,0-1.619-.236-1.59,12.867-1.59H100v11.8M80.7,311.855c2.806,2.34,5.822,4.861,6.7,5.6s4.065,3.371,7.079,5.845c5.456,4.48,5.479,4.505,5.5,6.2l.021,1.7-12.5-.105L75,331l-.112-10.8c-.1-9.933.006-12.6.518-12.6.1,0,2.486,1.915,5.292,4.255M99.8,359.4V375H75l-.105-15.2c-.058-8.359-.017-15.427.09-15.706.152-.4,2.856-.484,12.5-.4l12.31.106v15.6" fill="#fec84b" fill-rule="evenodd"/>
      <path id="path1" d="M18.4,134.806v22.005l12.7-.105,12.7-.106.1-21.9.1-21.9H18.4v22.006M62,139.6c0,23.556.073,26.8.6,26.8a.568.568,0,0,0,.6-.525c0-.573,1.672-2.18,3.095-2.975,1.757-.982,40.957-.694,42.937.316a6.85,6.85,0,0,1,3.434,4.484c.381,1.789.934,1.257.934-.9,0-1.1.18-2,.4-2s.4-.63.4-1.4.135-1.4.3-1.4.354-.855.421-1.9.291-1.96.5-2.033.379-.738.379-1.477a2.417,2.417,0,0,1,.4-1.59,4.042,4.042,0,0,0,.4-2.2,4.042,4.042,0,0,1,.4-2.2,2.055,2.055,0,0,0,.4-1.424c0-.647.135-1.176.3-1.177s.352-.755.415-1.677a5.374,5.374,0,0,1,.467-2.1c.245-.295-4.38-.389-15.416-.313l-15.766.109V112.8H62v26.8m68.8,160.8v81.2H244.132l-.266-51.666c-.146-28.417-.266-64.957-.266-81.2V219.2H130.8v81.2" fill="#e3e8ef" fill-rule="evenodd"/>
      <path id="path2" d="M262.4,96.34c0,14.27.145,22,.431,22.9,2.411,7.617,7.217,12.066,15.361,14.222a71.427,71.427,0,0,1,10.208,3.6,52.955,52.955,0,0,1,6.445,3.4,6.316,6.316,0,0,1,1.155.78,6.547,6.547,0,0,0,1.263.8c1.968,1.033,9.035,7.153,11.394,9.867,1.286,1.48,2.559,2.923,2.827,3.206a12.217,12.217,0,0,1,1.188,1.7c.385.652.842,1.185,1.014,1.185s.314.193.314.428a8.589,8.589,0,0,0,1.223,2.206c5.621,8.169,9.552,21.658,9.57,32.837.065,40.514-37.928,70.438-77.147,60.761l-3.646-.9V312.8h43.978l.165-12.5c.182-13.727.7-18.7,1.946-18.7.218,0,.3-.242.19-.539-.274-.713,3.825-5.059,4.778-5.067.568,0,.615-.087.2-.349-.345-.218.58-.448,2.542-.632,3.69-.346,6.852-.351,7.4-.012.22.135.4.028.4-.239s.336-.1.747.377a2.5,2.5,0,0,0,1.162.861,17.27,17.27,0,0,1,3.153,2.869C316.853,285.357,325.869,294,326.446,294c.221,0,.307.153.191.34-.19.308,1.487,2.06,1.973,2.06.352,0,6.785-6.312,17.227-16.9,2.44-2.474,4.825-4.764,5.3-5.087a1.888,1.888,0,0,0,.863-1.124c0-.294.135-.459.3-.367s1.65-1.25,3.3-2.984,4.485-4.676,6.3-6.539a43.248,43.248,0,0,0,3.3-3.6c0-.422-8.6-8.8-8.926-8.691-.183.06-.24-.041-.126-.226.271-.439-7.521-8.177-7.877-7.822-.149.149-.271.047-.271-.227a6.131,6.131,0,0,0-1.6-2.035,5.91,5.91,0,0,1-1.6-2.08,1.828,1.828,0,0,0-.791-1.114c-.582-.419-.661-.652-.3-.882.385-.245.383-.313-.009-.318-.363,0-.5-1-.5-3.606,0-2.133.163-3.6.4-3.6.22,0,.4-.54.4-1.2s.18-1.2.4-1.2.4-.283.4-.629a2.1,2.1,0,0,1,.6-1.228c.33-.33.6-.483.6-.339s.706-.473,1.569-1.371a5.716,5.716,0,0,1,2.2-1.633c.347,0,.631-.18.631-.4s.36-.4.8-.4.8-.18.8-.4.99-.4,2.2-.4,2.2-.18,2.2-.4c0-.258,4.467-.4,12.6-.4h12.6V168.4H369c-8.133,0-12.6-.142-12.6-.4,0-.22-.99-.4-2.2-.4s-2.2-.18-2.2-.4-.36-.4-.8-.4-.8-.18-.8-.4-.282-.4-.626-.4a7.674,7.674,0,0,1-2.554-1.979c-1.06-1.089-2.039-1.869-2.174-1.734s-.246-.234-.246-.82-.18-1.067-.4-1.067-.4-.45-.4-1-.18-1-.4-1c-.237,0-.4-1.467-.4-3.6s.163-3.6.4-3.6c.22,0,.4-.36.4-.8s.18-.8.4-.8.4-.274.4-.608,1.782-2.392,3.961-4.573,3.859-4.066,3.733-4.191.023-.228.328-.228c.552,0,12.378-11.786,12.378-12.336,0-.158-.36-.547-.8-.864a1.843,1.843,0,0,1-.8-1.112c0-.294-.135-.455-.3-.357s-1.47-1.078-2.9-2.613c-4.9-5.265-12.408-12.718-12.8-12.718-.218,0-.4-.281-.4-.624s-.135-.544-.3-.447-1.65-1.262-3.3-3.019c-4.926-5.247-14.532-14.71-14.933-14.71a9.114,9.114,0,0,0-2.172,1.8,9.527,9.527,0,0,1-2.148,1.8c-.191,0-.347.281-.347.624s-.135.549-.3.459c-.4-.217-4.511,3.973-4.2,4.28.131.13.043.237-.2.237-.593,0-3.3,2.674-3.3,3.26,0,.26-.111.362-.248.226-.321-.322-1.352.709-1.352,1.352,0,.272-.108.388-.239.256-.247-.246-2.9,2.149-2.779,2.506.038.11-.347.6-.856,1.086s-.926.774-.926.639-.317.1-.7.514A5.457,5.457,0,0,1,305.8,112c-.333,0-.6.18-.6.4,0,.237-1.459.4-3.576.4-1.967,0-3.688-.18-3.824-.4a1.668,1.668,0,0,0-1.224-.4c-.537,0-.976-.18-.976-.4s-.294-.4-.653-.4a2.427,2.427,0,0,1-1.4-.861c-.411-.474-.747-.738-.747-.586s-.54-.34-1.2-1.092a4.868,4.868,0,0,1-1.2-2.014c0-.356-.18-.647-.4-.647s-.4-.345-.4-.767a.99.99,0,0,0-.462-.92c-.274-.092-.455-1-.445-2.238a4.69,4.69,0,0,0-.338-2.3c-.2-.12-.355-5.789-.355-12.6V74.8H262.4V96.34M160.212,127.317c-.171.395-.2.83-.061.967.406.406.733-.164.546-.953-.165-.7-.187-.7-.485-.014m5.686,6.673a50.657,50.657,0,0,0,5.5,5.148,31.975,31.975,0,0,0-4.112-4.369c-6.566-6.348-7.326-6.775-1.386-.779m8.635,8.556a52.114,52.114,0,0,1,3.575,3.844c.346.494.825.832,1.064.753.469-.157-6.6-7.543-7.214-7.543-.2,0,.955,1.326,2.575,2.946m5.467,6.43c0,.343.18.624.4.624s.4.36.4.8.171.8.379.8c.23,0,.215-.472-.039-1.2-.475-1.362-1.14-1.959-1.14-1.023m39.938,15.4a7.046,7.046,0,0,0,1.175,1.848c.2-.2-1.647-3.82-1.949-3.82-.153,0,.2.887.774,1.972m40.662-1.144c-.52.205.146.326,1.9.344,1.485.015,2.7-.115,2.7-.29,0-.417-3.573-.459-4.6-.054m-18.917,7.984c-1.164,1.093-1.992,1.988-1.839,1.988s-.137.36-.644.8-.759.8-.559.8A11.19,11.19,0,0,0,241,172.68c3.709-3.934,4.02-4.6.681-1.468m39.117-1.877a7.066,7.066,0,0,0,1.4,1.692c.77.77,1.4,1.249,1.4,1.065a6.215,6.215,0,0,0-1.4-1.692c-.77-.746-1.4-1.226-1.4-1.065m3.2,2.813c0,.526,1.933,2.691,2.1,2.354.083-.166-.356-.839-.975-1.5S284,171.963,284,172.148m7.308,11.872a1.194,1.194,0,0,0,.317,1c.206.127.375-.129.375-.569,0-1.043-.616-1.424-.692-.427m1.307,6.756c-.287.464.205,3.737.515,3.427.441-.44.456-1.8.021-1.8-.258,0-.364-.419-.253-1,.2-1.049.107-1.255-.283-.624m0,4.541c-.171.4-.2.83-.061.967.406.406.733-.164.546-.953-.165-.7-.187-.7-.485-.014m-8.549,19.343a16.794,16.794,0,0,0-2.395,2.741c.15.15,4.15-3.567,5.081-4.721,1.325-1.642-.37-.392-2.686,1.98m-5.2,4.382c-.815.921-.378,1,.746.14.65-.5.786-.762.394-.758a1.865,1.865,0,0,0-1.14.618m-19.26,5.113c0,.334,2.411.485,2.891.18.3-.193-.171-.325-1.191-.329a4.833,4.833,0,0,0-1.7.149m3.6.21c0,.406,1.023.346,1.455-.087.153-.153-.112-.278-.588-.278s-.867.164-.867.365" fill="#e45434" fill-rule="evenodd"/>
      <path id="path4" d="M104.7,25.076c-.385.1-.7.394-.7.653a26.874,26.874,0,0,1-1.24,3.671c-.683,1.76-1.6,4.19-2.041,5.4s-.961,2.6-1.16,3.1-.523,1.305-.722,1.8-.721,1.89-1.161,3.1-1.109,3.01-1.486,4c-2.78,7.3-5.115,13.573-5.4,14.5l-.337,1.1h18.972c10.435,0,18.972-.07,18.972-.155s-1.367-3.73-3.037-8.1-3.179-8.4-3.353-8.945c-.31-.98-1.329-3.717-2.047-5.5-.2-.495-.525-1.305-.724-1.8s-.721-1.89-1.16-3.1-1.358-3.64-2.041-5.4a27.5,27.5,0,0,1-1.24-3.653c0-.839-7.54-1.34-10.1-.671M87.78,75.307c-.107.279-.146,5.082-.087,10.674L87.8,96.149l5.147-6.175c2.831-3.4,5.531-6.626,6-7.178s1.663-1.992,2.653-3.2,2.2-2.639,2.688-3.18c.654-.723.76-1.065.4-1.293-.884-.563-16.687-.39-16.908.184m43.687-.24c-.147.146-.267,5.826-.267,12.622v12.355l1.783-.122,1.784-.122,10.186-12.195c6.707-8.029,10.026-12.3,9.717-12.494-.582-.37-22.835-.413-23.2-.044m40.54.02a4.483,4.483,0,0,0-1.331,1.18c-.406.515-.949,1.161-1.209,1.435s-1.277,1.488-2.263,2.7-1.888,2.29-2,2.4-1.016,1.19-2,2.4-1.887,2.29-2.008,2.4-2.448,2.9-5.174,6.2l-4.957,6,11.565.106c6.36.059,11.794.018,12.075-.089.4-.155.488-2.813.4-12.507L175,75l-1.2-.078a5.2,5.2,0,0,0-1.793.165m15.86-.02c-.147.146-.267,5.816-.267,12.6V100h18.043c15.212,0,18.009-.087,17.83-.554-.269-.7-18.415-22.532-19.737-23.746-.979-.9-15.043-1.46-15.869-.633M109.8,89.269c-4.62,5.534-8.46,10.212-8.533,10.4s3.841.335,8.7.335H118.8V89.6c0-5.72-.135-10.4-.3-10.4s-4.08,4.532-8.7,10.065M24.7,112.7c3.575.067,9.425.067,13,0s.65-.12-6.5-.12-10.075.054-6.5.12m44.025,0c3.589.067,9.349.067,12.8,0s.515-.121-6.525-.121-9.864.055-6.275.121m-2.64,50.285c-1.352.746-2.885,2.28-2.885,2.886a.57.57,0,0,1-.6.53.6.6,0,0,0-.6.6c0,1.165,1.055.58,1.735-.962,1.43-3.241,1.413-3.239,23.961-3.231,22.653.007,21.788-.128,23.854,3.717.569,1.059,1.1,1.735,1.174,1.5.3-.9-1.768-3.827-3.325-4.709l-1.6-.906-20.4.033c-15.63.025-20.614.151-21.315.538M74.946,175.4c-.668,1.74.226,3.181,3.725,6,1.909,1.54,3.665,2.986,3.9,3.213C83.728,185.728,99.59,198.8,99.786,198.8c.124,0,.178-5.355.12-11.9L99.8,175l-12.31-.106c-10.718-.092-12.341-.027-12.544.5M75,195.7c-.121.5-.17,5.852-.108,11.9l.112,11,12.5.106,12.5.105v-3.427l-9.861-8.192c-5.423-4.506-11-9.138-12.392-10.294-2.4-2-2.542-2.057-2.751-1.2m-.053,36.1c-.286.747.181,3.4.6,3.4a2.873,2.873,0,0,1,1.082.722c.426.4,1.866,1.612,3.2,2.7s6.252,5.173,10.93,9.078,8.671,7.1,8.875,7.1.37-4.837.37-11.8V231.2H87.587c-10.691,0-12.444.084-12.644.6M75,252.065c-.126.514-.178,5.885-.116,11.935L75,275H99.8l.12-1.636c.112-1.526-.008-1.738-1.8-3.186-1.056-.853-2.01-1.653-2.12-1.777s-3.44-2.91-7.4-6.189-7.29-6.064-7.4-6.188c-.209-.234-4.1-3.452-5.284-4.366-.6-.46-.713-.408-.912.407m.063,35.8c-1.15,1.15-.176,2.9,3.133,5.641,1.32,1.091,6.628,5.519,11.8,9.838s9.532,7.854,9.7,7.854.305-5.31.305-11.8V287.6H87.667c-6.784,0-12.454.12-12.6.267M75,308.5c-.121.495-.169,5.76-.107,11.7L75,331l12.5.106,12.5.105-.021-1.7c-.021-1.7-.044-1.724-5.5-6.2-3.014-2.474-6.2-5.1-7.079-5.845C74.9,306.928,75.307,307.224,75,308.5m-.01,35.6c-.107.279-.148,7.347-.09,15.706L75,375H99.8V343.8l-12.31-.106c-9.649-.083-12.353,0-12.5.4" fill="#fedf89" fill-rule="evenodd"/>
      <path id="path5" d="M49.3,50.3a44.672,44.672,0,0,0,4.6,0c1.265-.08.23-.145-2.3-.145s-3.565.065-2.3.145M237.2,85.369v10.57l1.463,1.93A23.848,23.848,0,0,0,240.4,100c2.833,2.066,4.044,6.811,2.418,9.478-1.769,2.9.669,2.7-35.4,2.922L175,112.6l-2.185,2.1a13.97,13.97,0,0,1-2.5,2.1c-.173,0-.315.281-.315.624s-.135.556-.3.474c-.391-.195-2.088,1.581-1.793,1.876.125.124-.074.226-.44.226s-.667.148-.667.329a48.164,48.164,0,0,1-5.944,6.271c-1.307,0,.726,2.641,5.835,7.58,8.286,8.012,12.725,12.6,12.609,13.04a.279.279,0,0,0,.264.38c1.46,0,3.007,8.941,1.9,11a6.147,6.147,0,0,0-.556,1.569,3.135,3.135,0,0,1-.528,1.251c-.73.879,1.114.969,20.216.982l18.8.013,6.148,12.41c6.109,12.332,6.718,13.233,7.4,10.942a13.888,13.888,0,0,1,.7-1.862,3.408,3.408,0,0,0,.353-1.254c0-.653,1.185-3.045,1.215-2.451.011.22.257-.262.546-1.072a7.325,7.325,0,0,1,1.082-2.055c1.135-1.19,1.941-2.273,1.692-2.273-.142,0,.158-.36.665-.8s.792-.8.633-.8-.049-.225.246-.5c2.843-2.652,4.418-3.936,4.6-3.753.121.12.512-.123.87-.541a2.852,2.852,0,0,1,1.45-.883c.96-.147,1.787-.806,1.534-1.223-.1-.165.279-.3.842-.3s1.024-.18,1.024-.4.54-.4,1.2-.4,1.2-.18,1.2-.4.5-.4,1.12-.4a2.654,2.654,0,0,0,1.5-.374c.643-.631,9.78-1.365,9.78-.785,0,.177.4.3.9.284,2.347-.1,3.929.1,3.7.475-.136.22.126.4.583.4,1.145,0,4.017.928,4.017,1.3,0,.167.234.3.52.3.736,0,2.673.941,2.677,1.3,0,.165.245.3.541.3a2.349,2.349,0,0,1,1.262.8,2.357,2.357,0,0,0,1.215.8,5.166,5.166,0,0,1,1.847,1.5,8.705,8.705,0,0,0,1.676,1.573c.45.1,2.286,2.124,1.943,2.14-.155.007,0,.232.334.5.972.77,2.385,2.946,2.385,3.672,0,.364.18.551.4.415s.4.013.4.331c0,.848,1.035,2.7,1.339,2.4.234-.233.443,1.17.3,2-.031.181.128.215.353.076.255-.157.41.371.41,1.394s.154,1.552.415,1.391.337.421.182,1.776c-.128,1.118-.069,2.033.13,2.033s.276.45.171,1c-.111.581-.005,1,.253,1,.362,0,.381,1.064.034,2a4.459,4.459,0,0,0-.006,1.062,1.334,1.334,0,0,1-.355,1.123.91.91,0,0,0-.424.662c0,.22.225.265.5.1.379-.228.394-.161.063.276a2.945,2.945,0,0,0-.362,1.677c.041.6-.085,1.1-.28,1.1s-.327.225-.291.5c.172,1.323-.069,2.723-.43,2.5-.223-.138-.4.169-.4.7a2.436,2.436,0,0,1-.336,1.324,8.561,8.561,0,0,0-.875,1.78,12.606,12.606,0,0,1-1.664,2.791,5.491,5.491,0,0,0-1.125,1.874,12.536,12.536,0,0,1-2.5,2.887c-3.592,3.456-4.7,4.35-6.5,5.251-.88.441-1.87.953-2.2,1.137a7.64,7.64,0,0,1-2.961,1.26.767.767,0,0,0-.706.382c-.073.211-.808.428-1.633.482s-1.5.243-1.5.418-.96.318-2.133.318a6.676,6.676,0,0,0-2.412.278c-.439.44-1.455.49-1.455.073,0-.231-.292-.223-.747.021-.411.22-.831.316-.933.214a15.049,15.049,0,0,0-2.953-.419,9.852,9.852,0,0,1-3.147-.6,2.238,2.238,0,0,0-1.3-.367,4.041,4.041,0,0,1-1.62-.376c-.382-.206-1.685-.832-2.895-1.39-2.892-1.334-4.825-2.476-4.589-2.711.1-.1-.083-.19-.415-.19-.531,0-.592,2.1-.5,17.434l.1,17.433,3.592.871c39.248,9.521,77.066-20.34,77-60.8-.018-11.179-3.949-24.668-9.57-32.837A8.589,8.589,0,0,1,314,158.428c0-.235-.141-.428-.314-.428s-.629-.533-1.014-1.185a12.217,12.217,0,0,0-1.188-1.7c-.268-.283-1.541-1.726-2.827-3.206-2.359-2.714-9.426-8.834-11.394-9.867a6.547,6.547,0,0,1-1.263-.8,6.316,6.316,0,0,0-1.155-.78,52.955,52.955,0,0,0-6.445-3.4,71.427,71.427,0,0,0-10.208-3.6c-8.144-2.156-12.95-6.605-15.361-14.222-.286-.9-.431-8.63-.431-22.9V74.8H237.2V85.369" fill="#ed6336" fill-rule="evenodd"/>
      <path id="path6" d="M87.6,128.2v15.808l15.7-.1,15.7-.1.129-1.4a3.934,3.934,0,0,1,.5-1.78A2.979,2.979,0,0,0,120,139a2.934,2.934,0,0,1,.378-1.62,5.339,5.339,0,0,0,.474-2.28c.054-1.045.224-1.9.379-1.9.271,0,.544-1.217,1.029-4.6a5.853,5.853,0,0,1,.642-2.11c.227-.28.31-.611.185-.736a4.69,4.69,0,0,1,.339-2.091,13.417,13.417,0,0,0,.57-2.939,1.88,1.88,0,0,1,.377-1.307c.38-.235.439-.723.559-4.617l.068-2.2-18.7-.1-18.7-.1V128.2m99.6,90.6-56.6.2,56.7.1c37.6.065,56.7-.037,56.7-.3,0-.22-.045-.356-.1-.3s-25.57.19-56.7.3" fill="#697586" fill-rule="evenodd"/>
      <path id="path7" d="M93.6,14.4c-.317.44-.767.8-1,.8s-.683.36-1,.8a1.848,1.848,0,0,1-1.128.8A3.855,3.855,0,0,0,88.8,18a3.855,3.855,0,0,1-1.672,1.2A1.848,1.848,0,0,0,86,20a1.848,1.848,0,0,1-1.128.8A3.855,3.855,0,0,0,83.2,22a3.855,3.855,0,0,1-1.672,1.2A1.848,1.848,0,0,0,80.4,24c-.317.44-.745.8-.951.8a5.694,5.694,0,0,0-1.685,1,5.934,5.934,0,0,1-1.649,1c-.186,0-.6.36-.915.8a1.85,1.85,0,0,1-1.029.8,4.331,4.331,0,0,0-1.619,1.1,12.451,12.451,0,0,1-2.259,1.668c-.6.312-1.093.717-1.093.9s-.288.332-.64.332a3.74,3.74,0,0,0-1.76,1.2,3.855,3.855,0,0,1-1.672,1.2A1.848,1.848,0,0,0,64,35.6c-.317.44-.762.8-.988.8a5.12,5.12,0,0,0-1.69,1.2,5.633,5.633,0,0,1-1.612,1.2c-.183,0-.593.36-.91.8a1.851,1.851,0,0,1-1.141.8,2.1,2.1,0,0,0-1.212.736,7.311,7.311,0,0,1-1.7,1.3c-1.82.974-5.145,3.337-5.145,3.658,0,.168-.32.306-.712.306a1.922,1.922,0,0,0-1.288.8,1.852,1.852,0,0,1-1.026.8,2.2,2.2,0,0,0-1.126.747c-.914,1.01.327,1.253,6.4,1.253H56.4v3.933c0,4.8.585,5.382,2.825,2.829a2.9,2.9,0,0,1,1.182-.837A4.6,4.6,0,0,0,61.9,54.9a3.468,3.468,0,0,1,1.3-.9,3.788,3.788,0,0,0,1.364-1A3.559,3.559,0,0,1,66,52a3.559,3.559,0,0,0,1.436-1A3.788,3.788,0,0,1,68.8,50a3.788,3.788,0,0,0,1.364-1,3.606,3.606,0,0,1,1.418-1A.41.41,0,0,0,72,47.6c0-.22.27-.4.6-.4s.6-.18.6-.4a.423.423,0,0,1,.44-.4,4.144,4.144,0,0,0,1.56-1.2A3.855,3.855,0,0,1,76.872,44,1.848,1.848,0,0,0,78,43.2a1.846,1.846,0,0,1,1.117-.8,2.006,2.006,0,0,0,1.1-.5c1.283-1.151,1.77-1.5,2.09-1.5,1.386,0,4.215-4.076,5.692-8.2.473-1.32,1.01-2.76,1.192-3.2s.728-1.88,1.211-3.2,1.065-2.85,1.293-3.4a42.028,42.028,0,0,0,1.564-4.2,13.133,13.133,0,0,1,.771-2c1.058-1.618.656-3.3-.428-1.8m96.728,148.3c5.35.063,13.99.063,19.2,0s.832-.115-9.728-.115-14.823.052-9.472.115m30.351,4.4c.288.794,1.321,2.4,1.321,2.05a10.018,10.018,0,0,0-1.417-2.75c-.087,0-.044.315.1.7m2.434,4.8c.959,2.337,3.537,7.287,3.8,7.293.172,0-.608-1.793-1.731-3.993-1.825-3.571-2.851-5.209-2.068-3.3m4.154,8.4a18.467,18.467,0,0,0,2.229,3.933c.2-.2-1.834-4.237-2.136-4.237-.125,0-.167.137-.093.3" fill="#697586" fill-rule="evenodd"/>
      <path id="path8" d="M95.041,13.663a3.5,3.5,0,0,0-.641,1.546,1.831,1.831,0,0,1-.318,1.011,9.02,9.02,0,0,0-.827,1.98c-.279.88-.676,2-.881,2.5-.739,1.778-1.11,2.737-1.974,5.1-.483,1.32-1.028,2.76-1.211,3.2S88.472,30.88,88,32.2a27.828,27.828,0,0,1-1.644,3.75c-.435.743-.713,1.429-.618,1.523.207.207,1.861-2.05,1.858-2.535,0-.279,1.406-4.07,2.8-7.538.177-.44.538-1.43.8-2.2s.643-1.805.84-2.3.519-1.305.714-1.8,1.007-2.5,1.805-4.461c1.475-3.618,1.639-4.628.482-2.976M56.144,53.6c0,2.09.068,2.945.15,1.9a29.38,29.38,0,0,0,0-3.8c-.082-1.045-.15-.19-.15,1.9M243.793,265.8c0,25.74.048,36.211.107,23.269s.058-34,0-46.8-.107-2.209-.107,23.531" fill="#ac9c64" fill-rule="evenodd"/>
      <g id="svgg-2" data-name="svgg">
        <path id="path0-2" data-name="path0" d="M94.795,16.1c-.931,2.255-1.827,4.46-1.99,4.9s-.484,1.25-.711,1.8-.63,1.63-.894,2.4-.625,1.76-.8,2.2a78.426,78.426,0,0,0-2.8,7.628,7.181,7.181,0,0,1-1.4,2.064,5.782,5.782,0,0,0-1.4,2.472c0,.46-.147.836-.328.836s-.572.9-.872,2-.692,2-.872,2-.328.439-.328.976A1.668,1.668,0,0,1,82,46.6a1.334,1.334,0,0,0-.4,1.024c0,.427-.18.776-.4.776s-.4.45-.4,1-.18,1-.4,1-.4.445-.4.988a6.285,6.285,0,0,1-.8,2.412,6.17,6.17,0,0,0-.8,2.212c0,.433-.18.788-.4.788s-.4.352-.4.781c0,.747-.25,1.482-1.451,4.268a10.94,10.94,0,0,0-.667,2.09,2.54,2.54,0,0,1-.4,1.117c-.152.153-.277,5.2-.277,11.211V87.2H56.819l-.187-14.5c-.1-7.975-.3-16.237-.436-18.36l-.249-3.859-5.073-.252-9.552-.474-4.477-.223-9.223,9.211L18.4,67.954V112.27l18.7.2c54.694.586,202.027.046,203.382-.745,4.1-2.395,4.057-8.706-.082-11.725-.79-.577-3.2-4.157-3.2-4.755a2.932,2.932,0,0,0-.8-1.553,3.865,3.865,0,0,1-.8-1.073,16.8,16.8,0,0,0-2-2.258,11.468,11.468,0,0,1-2-2.4,11.523,11.523,0,0,0-2-2.4,11.165,11.165,0,0,1-2-2.415,5.916,5.916,0,0,0-1.368-1.74,28.3,28.3,0,0,1-2.576-3.087,24.877,24.877,0,0,0-2.638-3.08c-.786-.749-1.352-1.439-1.257-1.533a8.454,8.454,0,0,0-1.795-2.179A10.952,10.952,0,0,1,216,69.149a8.556,8.556,0,0,0-1.7-2.1c-.935-.952-2.15-2.29-2.7-2.973a3.612,3.612,0,0,0-1.5-1.258.479.479,0,0,1-.5-.417c0-.263-11.434-.4-33.5-.4H142.6l-.475-1.1a16.325,16.325,0,0,1-.753-2.3,5.987,5.987,0,0,0-.57-1.6A10.681,10.681,0,0,1,140,55a7.779,7.779,0,0,0-.852-1.98,2.781,2.781,0,0,1-.352-1.5c0-.616-.18-1.12-.4-1.12s-.4-.439-.4-.976a1.668,1.668,0,0,0-.4-1.224,1.334,1.334,0,0,1-.4-1.024c0-.427-.18-.776-.4-.776s-.4-.45-.4-1-.18-1-.4-1-.4-.54-.4-1.2-.18-1.2-.4-1.2-.4-.349-.4-.776a1.334,1.334,0,0,0-.4-1.024,1.668,1.668,0,0,1-.4-1.224c0-.537-.18-.976-.4-.976s-.4-.54-.4-1.2-.18-1.2-.4-1.2-.4-.272-.4-.6a4.179,4.179,0,0,0-.462-1.5c-1-1.926-1.138-2.312-1.138-3.09,0-.443-.18-.805-.4-.805s-.4-.45-.4-1-.18-1-.4-1-.4-.45-.4-1-.18-1-.4-1-.4-.362-.4-.805a4.258,4.258,0,0,0-.4-1.6l-.8-1.59a4.258,4.258,0,0,1-.4-1.6c0-.443-.18-.8-.4-.8s-.4-.54-.4-1.2-.18-1.2-.4-1.2a.473.473,0,0,1-.4-.52c0-3.823-1.726-4.28-16.15-4.28H96.488l-1.693,4.1M113.9,25.052c.495.133.9.445.9.695a27.5,27.5,0,0,0,1.24,3.653c.683,1.76,1.6,4.19,2.041,5.4s.961,2.6,1.16,3.1.524,1.305.724,1.8c.718,1.783,1.737,4.52,2.047,5.5.174.55,1.683,4.575,3.353,8.945s3.037,8.015,3.037,8.1-8.537.155-18.972.155H90.456l.337-1.1c.284-.927,2.619-7.2,5.4-14.5.377-.99,1.046-2.79,1.486-4s.962-2.6,1.161-3.1.523-1.305.722-1.8.721-1.89,1.16-3.1,1.358-3.64,2.041-5.4A26.874,26.874,0,0,0,104,25.729c0-.812,7.484-1.324,9.9-.677m-9.212,50.071c.36.228.254.57-.4,1.293-.489.541-1.7,1.972-2.688,3.18s-2.184,2.648-2.653,3.2-3.169,3.782-6,7.178L87.8,96.149l-.107-10.168c-.059-5.592-.02-10.4.087-10.674.221-.574,16.024-.747,16.908-.184m49.982-.012c.309.2-3.01,4.465-9.717,12.494L134.767,99.8l-1.784.122-1.783.122V87.689c0-6.8.12-12.476.267-12.622.368-.369,22.621-.326,23.2.044m20.436,12.2c.083,9.694,0,12.352-.4,12.507-.281.107-5.715.148-12.075.089L151.061,99.8l4.957-6c2.726-3.3,5.054-6.09,5.174-6.2s1.024-1.19,2.008-2.4,1.884-2.29,2-2.4,1.018-1.19,2-2.4,2-2.424,2.263-2.7.8-.92,1.209-1.435a3.008,3.008,0,0,1,3.124-1.345L175,75l.106,12.31m28.63-11.61c1.322,1.214,19.468,23.046,19.737,23.746.179.467-2.618.554-17.83.554H187.6V87.667c0-6.784.12-12.454.267-12.6.826-.827,14.89-.266,15.869.633M118.8,89.6V100h-8.833c-4.859,0-8.774-.151-8.7-.335.261-.655,16.938-20.457,17.233-20.461.165,0,.3,4.676.3,10.4M66.112,163.659a4.406,4.406,0,0,0-2.377,2.38c-.379.858-.924,1.561-1.212,1.561-.429,0-.523,19.437-.523,108.6,0,66.9.143,108.6.373,108.6.2,0,.483.347.618.771.763,2.4,1.017,2.429,24.832,2.429,11.977,0,21.777-.137,21.777-.3s.4-.483.9-.7a2.917,2.917,0,0,0,1.295-1.295c.217-.5.532-.9.7-.9s.3-48.645.288-108.1l-.017-108.1-1.135-2c-2.239-3.944-1.248-3.789-24.031-3.773-19.121.012-19.858.041-21.488.832M99.906,186.9c.058,6.545,0,11.9-.12,11.9-.2,0-16.058-13.072-17.215-14.187-.235-.227-1.991-1.673-3.9-3.213-2.735-2.206-3.523-3.075-3.715-4.1-.5-2.633-1.052-2.526,12.534-2.409L99.8,175l.106,11.9m-9.767,20.292L100,215.384v3.427l-12.5-.105L75,218.6l-.112-11c-.144-14.037-.327-13.349,2.859-10.7,1.392,1.156,6.969,5.788,12.392,10.294M100,243c0,6.963-.152,11.8-.37,11.8s-4.2-3.2-8.875-7.1-9.6-7.99-10.93-9.078-2.774-2.3-3.2-2.7a2.873,2.873,0,0,0-1.082-.722c-.419,0-.886-2.65-.6-3.4.2-.519,1.953-.6,12.644-.6H100V243M78.8,253.994c1.21.993,2.29,1.907,2.4,2.03s3.44,2.908,7.4,6.188,7.29,6.064,7.4,6.189,1.064.924,2.12,1.777c1.792,1.448,1.912,1.66,1.8,3.186L99.8,275H75l-.112-11c-.062-6.05-.01-11.421.116-11.935.258-1.056,0-1.187,3.8,1.929M100,299.4c0,6.49-.137,11.8-.305,11.8s-4.533-3.534-9.7-7.854S79.52,294.6,78.2,293.508c-2.987-2.471-3.4-3-3.4-4.318,0-1.619-.236-1.59,12.867-1.59H100v11.8M80.7,311.855c2.806,2.34,5.822,4.861,6.7,5.6s4.065,3.371,7.079,5.845c5.456,4.48,5.479,4.505,5.5,6.2l.021,1.7-12.5-.105L75,331l-.112-10.8c-.1-9.933.006-12.6.518-12.6.1,0,2.486,1.915,5.292,4.255M99.8,359.4V375H75l-.105-15.2c-.058-8.359-.017-15.427.09-15.706.152-.4,2.856-.484,12.5-.4l12.31.106v15.6" fill="#fbc230" fill-rule="evenodd"/>
        <path id="path1-2" data-name="path1" d="M18.4,134.806v22.005l12.7-.105,12.7-.106.1-21.9.1-21.9H18.4v22.006M62,139.6c0,23.556.073,26.8.6,26.8a.568.568,0,0,0,.6-.525c0-.573,1.672-2.18,3.095-2.975,1.757-.982,40.957-.694,42.937.316a6.85,6.85,0,0,1,3.434,4.484c.381,1.789.934,1.257.934-.9,0-1.1.18-2,.4-2s.4-.63.4-1.4.135-1.4.3-1.4.354-.855.421-1.9.291-1.96.5-2.033.379-.738.379-1.477a2.417,2.417,0,0,1,.4-1.59,4.042,4.042,0,0,0,.4-2.2,4.042,4.042,0,0,1,.4-2.2,2.055,2.055,0,0,0,.4-1.424c0-.647.135-1.176.3-1.177s.352-.755.415-1.677a5.374,5.374,0,0,1,.467-2.1c.245-.295-4.38-.389-15.416-.313l-15.766.109V112.8H62v26.8m68.8,160.8v81.2H244.132l-.266-51.666c-.146-28.417-.266-64.957-.266-81.2V219.2H130.8v81.2" fill="#cfdef4" fill-rule="evenodd"/>
        <path id="path2-2" data-name="path2" d="M262.4,96.34c0,14.27.145,22,.431,22.9,2.411,7.617,7.217,12.066,15.361,14.222a71.427,71.427,0,0,1,10.208,3.6,52.955,52.955,0,0,1,6.445,3.4,6.316,6.316,0,0,1,1.155.78,6.547,6.547,0,0,0,1.263.8c1.968,1.033,9.035,7.153,11.394,9.867,1.286,1.48,2.559,2.923,2.827,3.206a12.217,12.217,0,0,1,1.188,1.7c.385.652.842,1.185,1.014,1.185s.314.193.314.428a8.589,8.589,0,0,0,1.223,2.206c5.621,8.169,9.552,21.658,9.57,32.837.065,40.514-37.928,70.438-77.147,60.761l-3.646-.9V312.8h43.978l.165-12.5c.182-13.727.7-18.7,1.946-18.7.218,0,.3-.242.19-.539-.274-.713,3.825-5.059,4.778-5.067.568,0,.615-.087.2-.349-.345-.218.58-.448,2.542-.632,3.69-.346,6.852-.351,7.4-.012.22.135.4.028.4-.239s.336-.1.747.377a2.5,2.5,0,0,0,1.162.861,17.27,17.27,0,0,1,3.153,2.869C316.853,285.357,325.869,294,326.446,294c.221,0,.307.153.191.34-.19.308,1.487,2.06,1.973,2.06.352,0,6.785-6.312,17.227-16.9,2.44-2.474,4.825-4.764,5.3-5.087a1.888,1.888,0,0,0,.863-1.124c0-.294.135-.459.3-.367s1.65-1.25,3.3-2.984,4.485-4.676,6.3-6.539a43.248,43.248,0,0,0,3.3-3.6c0-.422-8.6-8.8-8.926-8.691-.183.06-.24-.041-.126-.226.271-.439-7.521-8.177-7.877-7.822-.149.149-.271.047-.271-.227a6.131,6.131,0,0,0-1.6-2.035,5.91,5.91,0,0,1-1.6-2.08,1.828,1.828,0,0,0-.791-1.114c-.582-.419-.661-.652-.3-.882.385-.245.383-.313-.009-.318-.363,0-.5-1-.5-3.606,0-2.133.163-3.6.4-3.6.22,0,.4-.54.4-1.2s.18-1.2.4-1.2.4-.283.4-.629a2.1,2.1,0,0,1,.6-1.228c.33-.33.6-.483.6-.339s.706-.473,1.569-1.371a5.716,5.716,0,0,1,2.2-1.633c.347,0,.631-.18.631-.4s.36-.4.8-.4.8-.18.8-.4.99-.4,2.2-.4,2.2-.18,2.2-.4c0-.258,4.467-.4,12.6-.4h12.6V168.4H369c-8.133,0-12.6-.142-12.6-.4,0-.22-.99-.4-2.2-.4s-2.2-.18-2.2-.4-.36-.4-.8-.4-.8-.18-.8-.4-.282-.4-.626-.4a7.674,7.674,0,0,1-2.554-1.979c-1.06-1.089-2.039-1.869-2.174-1.734s-.246-.234-.246-.82-.18-1.067-.4-1.067-.4-.45-.4-1-.18-1-.4-1c-.237,0-.4-1.467-.4-3.6s.163-3.6.4-3.6c.22,0,.4-.36.4-.8s.18-.8.4-.8.4-.274.4-.608,1.782-2.392,3.961-4.573,3.859-4.066,3.733-4.191.023-.228.328-.228c.552,0,12.378-11.786,12.378-12.336,0-.158-.36-.547-.8-.864a1.843,1.843,0,0,1-.8-1.112c0-.294-.135-.455-.3-.357s-1.47-1.078-2.9-2.613c-4.9-5.265-12.408-12.718-12.8-12.718-.218,0-.4-.281-.4-.624s-.135-.544-.3-.447-1.65-1.262-3.3-3.019c-4.926-5.247-14.532-14.71-14.933-14.71a9.114,9.114,0,0,0-2.172,1.8,9.527,9.527,0,0,1-2.148,1.8c-.191,0-.347.281-.347.624s-.135.549-.3.459c-.4-.217-4.511,3.973-4.2,4.28.131.13.043.237-.2.237-.593,0-3.3,2.674-3.3,3.26,0,.26-.111.362-.248.226-.321-.322-1.352.709-1.352,1.352,0,.272-.108.388-.239.256-.247-.246-2.9,2.149-2.779,2.506.038.11-.347.6-.856,1.086s-.926.774-.926.639-.317.1-.7.514A5.457,5.457,0,0,1,305.8,112c-.333,0-.6.18-.6.4,0,.237-1.459.4-3.576.4-1.967,0-3.688-.18-3.824-.4a1.668,1.668,0,0,0-1.224-.4c-.537,0-.976-.18-.976-.4s-.294-.4-.653-.4a2.427,2.427,0,0,1-1.4-.861c-.411-.474-.747-.738-.747-.586s-.54-.34-1.2-1.092a4.868,4.868,0,0,1-1.2-2.014c0-.356-.18-.647-.4-.647s-.4-.345-.4-.767a.99.99,0,0,0-.462-.92c-.274-.092-.455-1-.445-2.238a4.69,4.69,0,0,0-.338-2.3c-.2-.12-.355-5.789-.355-12.6V74.8H262.4V96.34M160.212,127.317c-.171.395-.2.83-.061.967.406.406.733-.164.546-.953-.165-.7-.187-.7-.485-.014m5.686,6.673a50.657,50.657,0,0,0,5.5,5.148,31.975,31.975,0,0,0-4.112-4.369c-6.566-6.348-7.326-6.775-1.386-.779m8.635,8.556a52.114,52.114,0,0,1,3.575,3.844c.346.494.825.832,1.064.753.469-.157-6.6-7.543-7.214-7.543-.2,0,.955,1.326,2.575,2.946m5.467,6.43c0,.343.18.624.4.624s.4.36.4.8.171.8.379.8c.23,0,.215-.472-.039-1.2-.475-1.362-1.14-1.959-1.14-1.023m39.938,15.4a7.046,7.046,0,0,0,1.175,1.848c.2-.2-1.647-3.82-1.949-3.82-.153,0,.2.887.774,1.972m40.662-1.144c-.52.205.146.326,1.9.344,1.485.015,2.7-.115,2.7-.29,0-.417-3.573-.459-4.6-.054m-18.917,7.984c-1.164,1.093-1.992,1.988-1.839,1.988s-.137.36-.644.8-.759.8-.559.8A11.19,11.19,0,0,0,241,172.68c3.709-3.934,4.02-4.6.681-1.468m39.117-1.877a7.066,7.066,0,0,0,1.4,1.692c.77.77,1.4,1.249,1.4,1.065a6.215,6.215,0,0,0-1.4-1.692c-.77-.746-1.4-1.226-1.4-1.065m3.2,2.813c0,.526,1.933,2.691,2.1,2.354.083-.166-.356-.839-.975-1.5S284,171.963,284,172.148m7.308,11.872a1.194,1.194,0,0,0,.317,1c.206.127.375-.129.375-.569,0-1.043-.616-1.424-.692-.427m1.307,6.756c-.287.464.205,3.737.515,3.427.441-.44.456-1.8.021-1.8-.258,0-.364-.419-.253-1,.2-1.049.107-1.255-.283-.624m0,4.541c-.171.4-.2.83-.061.967.406.406.733-.164.546-.953-.165-.7-.187-.7-.485-.014m-8.549,19.343a16.794,16.794,0,0,0-2.395,2.741c.15.15,4.15-3.567,5.081-4.721,1.325-1.642-.37-.392-2.686,1.98m-5.2,4.382c-.815.921-.378,1,.746.14.65-.5.786-.762.394-.758a1.865,1.865,0,0,0-1.14.618m-19.26,5.113c0,.334,2.411.485,2.891.18.3-.193-.171-.325-1.191-.329a4.833,4.833,0,0,0-1.7.149m3.6.21c0,.406,1.023.346,1.455-.087.153-.153-.112-.278-.588-.278s-.867.164-.867.365" fill="#528bff" fill-rule="evenodd"/>
        <path id="path3" d="M155.2,162.789c0,.446-.18.811-.4.811s-.4.36-.4.8-.18.8-.4.8-.4.36-.4.8-.18.8-.4.8-.4.36-.4.8-.18.8-.4.8-.4.36-.4.8-.18.8-.4.8-.4.36-.4.8-.18.8-.4.8-.4.36-.4.8-.18.8-.4.8-.4.36-.4.8-.146.8-.325.8-.573.63-.875,1.4-.7,1.4-.875,1.4-.325.234-.325.52c0,.736-.941,2.673-1.3,2.677-.165,0-.3.363-.3.8s-.18.8-.4.8a.473.473,0,0,0-.4.52c0,.736-.941,2.673-1.3,2.677-.165,0-.3.363-.3.8,0,.766-.267.8-6.2.8h-6.2v31.6l56.5-.1,56.5-.1.1-15.732.1-15.731-6.412.1c-3.58.058-6.572-.06-6.772-.268a44.2,44.2,0,0,1-3.625-7.209.715.715,0,0,0-.319-.63c-.176-.073-2.1-3.775-4.288-8.226l-3.969-8.092-19.012-.2c-10.457-.112-24.727-.3-31.712-.418-12.561-.213-12.7-.206-12.7.6" fill="#2970ff" fill-rule="evenodd"/>
        <path id="path4-2" data-name="path4" d="M104.7,25.076c-.385.1-.7.394-.7.653a26.874,26.874,0,0,1-1.24,3.671c-.683,1.76-1.6,4.19-2.041,5.4s-.961,2.6-1.16,3.1-.523,1.305-.722,1.8-.721,1.89-1.161,3.1-1.109,3.01-1.486,4c-2.78,7.3-5.115,13.573-5.4,14.5l-.337,1.1h18.972c10.435,0,18.972-.07,18.972-.155s-1.367-3.73-3.037-8.1-3.179-8.4-3.353-8.945c-.31-.98-1.329-3.717-2.047-5.5-.2-.495-.525-1.305-.724-1.8s-.721-1.89-1.16-3.1-1.358-3.64-2.041-5.4a27.5,27.5,0,0,1-1.24-3.653c0-.839-7.54-1.34-10.1-.671M87.78,75.307c-.107.279-.146,5.082-.087,10.674L87.8,96.149l5.147-6.175c2.831-3.4,5.531-6.626,6-7.178s1.663-1.992,2.653-3.2,2.2-2.639,2.688-3.18c.654-.723.76-1.065.4-1.293-.884-.563-16.687-.39-16.908.184m43.687-.24c-.147.146-.267,5.826-.267,12.622v12.355l1.783-.122,1.784-.122,10.186-12.195c6.707-8.029,10.026-12.3,9.717-12.494-.582-.37-22.835-.413-23.2-.044m40.54.02a4.483,4.483,0,0,0-1.331,1.18c-.406.515-.949,1.161-1.209,1.435s-1.277,1.488-2.263,2.7-1.888,2.29-2,2.4-1.016,1.19-2,2.4-1.887,2.29-2.008,2.4-2.448,2.9-5.174,6.2l-4.957,6,11.565.106c6.36.059,11.794.018,12.075-.089.4-.155.488-2.813.4-12.507L175,75l-1.2-.078a5.2,5.2,0,0,0-1.793.165m15.86-.02c-.147.146-.267,5.816-.267,12.6V100h18.043c15.212,0,18.009-.087,17.83-.554-.269-.7-18.415-22.532-19.737-23.746-.979-.9-15.043-1.46-15.869-.633M109.8,89.269c-4.62,5.534-8.46,10.212-8.533,10.4s3.841.335,8.7.335H118.8V89.6c0-5.72-.135-10.4-.3-10.4s-4.08,4.532-8.7,10.065M24.7,112.7c3.575.067,9.425.067,13,0s.65-.12-6.5-.12-10.075.054-6.5.12m44.025,0c3.589.067,9.349.067,12.8,0s.515-.121-6.525-.121-9.864.055-6.275.121m-2.64,50.285c-1.352.746-2.885,2.28-2.885,2.886a.57.57,0,0,1-.6.53.6.6,0,0,0-.6.6c0,1.165,1.055.58,1.735-.962,1.43-3.241,1.413-3.239,23.961-3.231,22.653.007,21.788-.128,23.854,3.717.569,1.059,1.1,1.735,1.174,1.5.3-.9-1.768-3.827-3.325-4.709l-1.6-.906-20.4.033c-15.63.025-20.614.151-21.315.538M74.946,175.4c-.668,1.74.226,3.181,3.725,6,1.909,1.54,3.665,2.986,3.9,3.213C83.728,185.728,99.59,198.8,99.786,198.8c.124,0,.178-5.355.12-11.9L99.8,175l-12.31-.106c-10.718-.092-12.341-.027-12.544.5M75,195.7c-.121.5-.17,5.852-.108,11.9l.112,11,12.5.106,12.5.105v-3.427l-9.861-8.192c-5.423-4.506-11-9.138-12.392-10.294-2.4-2-2.542-2.057-2.751-1.2m-.053,36.1c-.286.747.181,3.4.6,3.4a2.873,2.873,0,0,1,1.082.722c.426.4,1.866,1.612,3.2,2.7s6.252,5.173,10.93,9.078,8.671,7.1,8.875,7.1.37-4.837.37-11.8V231.2H87.587c-10.691,0-12.444.084-12.644.6M75,252.065c-.126.514-.178,5.885-.116,11.935L75,275H99.8l.12-1.636c.112-1.526-.008-1.738-1.8-3.186-1.056-.853-2.01-1.653-2.12-1.777s-3.44-2.91-7.4-6.189-7.29-6.064-7.4-6.188c-.209-.234-4.1-3.452-5.284-4.366-.6-.46-.713-.408-.912.407m.063,35.8c-1.15,1.15-.176,2.9,3.133,5.641,1.32,1.091,6.628,5.519,11.8,9.838s9.532,7.854,9.7,7.854.305-5.31.305-11.8V287.6H87.667c-6.784,0-12.454.12-12.6.267M75,308.5c-.121.495-.169,5.76-.107,11.7L75,331l12.5.106,12.5.105-.021-1.7c-.021-1.7-.044-1.724-5.5-6.2-3.014-2.474-6.2-5.1-7.079-5.845C74.9,306.928,75.307,307.224,75,308.5m-.01,35.6c-.107.279-.148,7.347-.09,15.706L75,375H99.8V343.8l-12.31-.106c-9.649-.083-12.353,0-12.5.4" fill="#fcdb73" fill-rule="evenodd"/>
        <path id="path5-2" data-name="path5" d="M49.3,50.3a44.672,44.672,0,0,0,4.6,0c1.265-.08.23-.145-2.3-.145s-3.565.065-2.3.145M237.2,85.369v10.57l1.463,1.93A23.848,23.848,0,0,0,240.4,100c2.833,2.066,4.044,6.811,2.418,9.478-1.769,2.9.669,2.7-35.4,2.922L175,112.6l-2.185,2.1a13.97,13.97,0,0,1-2.5,2.1c-.173,0-.315.281-.315.624s-.135.556-.3.474c-.391-.195-2.088,1.581-1.793,1.876.125.124-.074.226-.44.226s-.667.148-.667.329a48.164,48.164,0,0,1-5.944,6.271c-1.307,0,.726,2.641,5.835,7.58,8.286,8.012,12.725,12.6,12.609,13.04a.279.279,0,0,0,.264.38c1.46,0,3.007,8.941,1.9,11a6.147,6.147,0,0,0-.556,1.569,3.135,3.135,0,0,1-.528,1.251c-.73.879,1.114.969,20.216.982l18.8.013,6.148,12.41c6.109,12.332,6.718,13.233,7.4,10.942a13.888,13.888,0,0,1,.7-1.862,3.408,3.408,0,0,0,.353-1.254c0-.653,1.185-3.045,1.215-2.451.011.22.257-.262.546-1.072a7.325,7.325,0,0,1,1.082-2.055c1.135-1.19,1.941-2.273,1.692-2.273-.142,0,.158-.36.665-.8s.792-.8.633-.8-.049-.225.246-.5c2.843-2.652,4.418-3.936,4.6-3.753.121.12.512-.123.87-.541a2.852,2.852,0,0,1,1.45-.883c.96-.147,1.787-.806,1.534-1.223-.1-.165.279-.3.842-.3s1.024-.18,1.024-.4.54-.4,1.2-.4,1.2-.18,1.2-.4.5-.4,1.12-.4a2.654,2.654,0,0,0,1.5-.374c.643-.631,9.78-1.365,9.78-.785,0,.177.4.3.9.284,2.347-.1,3.929.1,3.7.475-.136.22.126.4.583.4,1.145,0,4.017.928,4.017,1.3,0,.167.234.3.52.3.736,0,2.673.941,2.677,1.3,0,.165.245.3.541.3a2.349,2.349,0,0,1,1.262.8,2.357,2.357,0,0,0,1.215.8,5.166,5.166,0,0,1,1.847,1.5,8.705,8.705,0,0,0,1.676,1.573c.45.1,2.286,2.124,1.943,2.14-.155.007,0,.232.334.5.972.77,2.385,2.946,2.385,3.672,0,.364.18.551.4.415s.4.013.4.331c0,.848,1.035,2.7,1.339,2.4.234-.233.443,1.17.3,2-.031.181.128.215.353.076.255-.157.41.371.41,1.394s.154,1.552.415,1.391.337.421.182,1.776c-.128,1.118-.069,2.033.13,2.033s.276.45.171,1c-.111.581-.005,1,.253,1,.362,0,.381,1.064.034,2a4.459,4.459,0,0,0-.006,1.062,1.334,1.334,0,0,1-.355,1.123.91.91,0,0,0-.424.662c0,.22.225.265.5.1.379-.228.394-.161.063.276a2.945,2.945,0,0,0-.362,1.677c.041.6-.085,1.1-.28,1.1s-.327.225-.291.5c.172,1.323-.069,2.723-.43,2.5-.223-.138-.4.169-.4.7a2.436,2.436,0,0,1-.336,1.324,8.561,8.561,0,0,0-.875,1.78,12.606,12.606,0,0,1-1.664,2.791,5.491,5.491,0,0,0-1.125,1.874,12.536,12.536,0,0,1-2.5,2.887c-3.592,3.456-4.7,4.35-6.5,5.251-.88.441-1.87.953-2.2,1.137a7.64,7.64,0,0,1-2.961,1.26.767.767,0,0,0-.706.382c-.073.211-.808.428-1.633.482s-1.5.243-1.5.418-.96.318-2.133.318a6.676,6.676,0,0,0-2.412.278c-.439.44-1.455.49-1.455.073,0-.231-.292-.223-.747.021-.411.22-.831.316-.933.214a15.049,15.049,0,0,0-2.953-.419,9.852,9.852,0,0,1-3.147-.6,2.238,2.238,0,0,0-1.3-.367,4.041,4.041,0,0,1-1.62-.376c-.382-.206-1.685-.832-2.895-1.39-2.892-1.334-4.825-2.476-4.589-2.711.1-.1-.083-.19-.415-.19-.531,0-.592,2.1-.5,17.434l.1,17.433,3.592.871c39.248,9.521,77.066-20.34,77-60.8-.018-11.179-3.949-24.668-9.57-32.837A8.589,8.589,0,0,1,314,158.428c0-.235-.141-.428-.314-.428s-.629-.533-1.014-1.185a12.217,12.217,0,0,0-1.188-1.7c-.268-.283-1.541-1.726-2.827-3.206-2.359-2.714-9.426-8.834-11.394-9.867a6.547,6.547,0,0,1-1.263-.8,6.316,6.316,0,0,0-1.155-.78,52.955,52.955,0,0,0-6.445-3.4,71.427,71.427,0,0,0-10.208-3.6c-8.144-2.156-12.95-6.605-15.361-14.222-.286-.9-.431-8.63-.431-22.9V74.8H237.2V85.369" fill="#84adff" fill-rule="evenodd"/>
        <path id="path6-2" data-name="path6" d="M87.6,128.2v15.808l15.7-.1,15.7-.1.129-1.4a3.934,3.934,0,0,1,.5-1.78A2.979,2.979,0,0,0,120,139a2.934,2.934,0,0,1,.378-1.62,5.339,5.339,0,0,0,.474-2.28c.054-1.045.224-1.9.379-1.9.271,0,.544-1.217,1.029-4.6a5.853,5.853,0,0,1,.642-2.11c.227-.28.31-.611.185-.736a4.69,4.69,0,0,1,.339-2.091,13.417,13.417,0,0,0,.57-2.939,1.88,1.88,0,0,1,.377-1.307c.38-.235.439-.723.559-4.617l.068-2.2-18.7-.1-18.7-.1V128.2m99.6,90.6-56.6.2,56.7.1c37.6.065,56.7-.037,56.7-.3,0-.22-.045-.356-.1-.3s-25.57.19-56.7.3" fill="#b4c4ec" fill-rule="evenodd"/>
        <path id="path7-2" data-name="path7" d="M93.6,14.4c-.317.44-.767.8-1,.8s-.683.36-1,.8a1.848,1.848,0,0,1-1.128.8A3.855,3.855,0,0,0,88.8,18a3.855,3.855,0,0,1-1.672,1.2A1.848,1.848,0,0,0,86,20a1.848,1.848,0,0,1-1.128.8A3.855,3.855,0,0,0,83.2,22a3.855,3.855,0,0,1-1.672,1.2A1.848,1.848,0,0,0,80.4,24c-.317.44-.745.8-.951.8a5.694,5.694,0,0,0-1.685,1,5.934,5.934,0,0,1-1.649,1c-.186,0-.6.36-.915.8a1.85,1.85,0,0,1-1.029.8,4.331,4.331,0,0,0-1.619,1.1,12.451,12.451,0,0,1-2.259,1.668c-.6.312-1.093.717-1.093.9s-.288.332-.64.332a3.74,3.74,0,0,0-1.76,1.2,3.855,3.855,0,0,1-1.672,1.2A1.848,1.848,0,0,0,64,35.6c-.317.44-.762.8-.988.8a5.12,5.12,0,0,0-1.69,1.2,5.633,5.633,0,0,1-1.612,1.2c-.183,0-.593.36-.91.8a1.851,1.851,0,0,1-1.141.8,2.1,2.1,0,0,0-1.212.736,7.311,7.311,0,0,1-1.7,1.3c-1.82.974-5.145,3.337-5.145,3.658,0,.168-.32.306-.712.306a1.922,1.922,0,0,0-1.288.8,1.852,1.852,0,0,1-1.026.8,2.2,2.2,0,0,0-1.126.747c-.914,1.01.327,1.253,6.4,1.253H56.4v3.933c0,4.8.585,5.382,2.825,2.829a2.9,2.9,0,0,1,1.182-.837A4.6,4.6,0,0,0,61.9,54.9a3.468,3.468,0,0,1,1.3-.9,3.788,3.788,0,0,0,1.364-1A3.559,3.559,0,0,1,66,52a3.559,3.559,0,0,0,1.436-1A3.788,3.788,0,0,1,68.8,50a3.788,3.788,0,0,0,1.364-1,3.606,3.606,0,0,1,1.418-1A.41.41,0,0,0,72,47.6c0-.22.27-.4.6-.4s.6-.18.6-.4a.423.423,0,0,1,.44-.4,4.144,4.144,0,0,0,1.56-1.2A3.855,3.855,0,0,1,76.872,44,1.848,1.848,0,0,0,78,43.2a1.846,1.846,0,0,1,1.117-.8,2.006,2.006,0,0,0,1.1-.5c1.283-1.151,1.77-1.5,2.09-1.5,1.386,0,4.215-4.076,5.692-8.2.473-1.32,1.01-2.76,1.192-3.2s.728-1.88,1.211-3.2,1.065-2.85,1.293-3.4a42.028,42.028,0,0,0,1.564-4.2,13.133,13.133,0,0,1,.771-2c1.058-1.618.656-3.3-.428-1.8m96.728,148.3c5.35.063,13.99.063,19.2,0s.832-.115-9.728-.115-14.823.052-9.472.115m30.351,4.4c.288.794,1.321,2.4,1.321,2.05a10.018,10.018,0,0,0-1.417-2.75c-.087,0-.044.315.1.7m2.434,4.8c.959,2.337,3.537,7.287,3.8,7.293.172,0-.608-1.793-1.731-3.993-1.825-3.571-2.851-5.209-2.068-3.3m4.154,8.4a18.467,18.467,0,0,0,2.229,3.933c.2-.2-1.834-4.237-2.136-4.237-.125,0-.167.137-.093.3" fill="#647c8b" fill-rule="evenodd"/>
        <path id="path8-2" data-name="path8" d="M95.041,13.663a3.5,3.5,0,0,0-.641,1.546,1.831,1.831,0,0,1-.318,1.011,9.02,9.02,0,0,0-.827,1.98c-.279.88-.676,2-.881,2.5-.739,1.778-1.11,2.737-1.974,5.1-.483,1.32-1.028,2.76-1.211,3.2S88.472,30.88,88,32.2a27.828,27.828,0,0,1-1.644,3.75c-.435.743-.713,1.429-.618,1.523.207.207,1.861-2.05,1.858-2.535,0-.279,1.406-4.07,2.8-7.538.177-.44.538-1.43.8-2.2s.643-1.805.84-2.3.519-1.305.714-1.8,1.007-2.5,1.805-4.461c1.475-3.618,1.639-4.628.482-2.976M56.144,53.6c0,2.09.068,2.945.15,1.9a29.38,29.38,0,0,0,0-3.8c-.082-1.045-.15-.19-.15,1.9M243.793,265.8c0,25.74.048,36.211.107,23.269s.058-34,0-46.8-.107-2.209-.107,23.531" fill="#ac9c64" fill-rule="evenodd"/>
        <rect id="Rectangle_3064" data-name="Rectangle 3064" width="114" height="32" transform="translate(130.4 187)" fill="#528bff"/>
      </g>
    </g>
    <g id="Grille_de_répétition_3" data-name="Grille de répétition 3" transform="translate(130 226)" clip-path="url(#clip-path)">
      <g transform="translate(-131 -223)">
        <rect id="Rectangle_3063" data-name="Rectangle 3063" width="19" height="19" transform="translate(131 223)" fill="#eff4ff"/>
      </g>
      <g transform="translate(-73 -223)">
        <rect id="Rectangle_3063-2" data-name="Rectangle 3063" width="19" height="19" transform="translate(131 223)" fill="#eff4ff"/>
      </g>
      <g transform="translate(-131 -184)">
        <rect id="Rectangle_3063-3" data-name="Rectangle 3063" width="19" height="19" transform="translate(131 223)" fill="#eff4ff"/>
      </g>
      <g transform="translate(-73 -184)">
        <rect id="Rectangle_3063-4" data-name="Rectangle 3063" width="19" height="19" transform="translate(131 223)" fill="#eff4ff"/>
      </g>
      <g transform="translate(-131 -145)">
        <rect id="Rectangle_3063-5" data-name="Rectangle 3063" width="19" height="19" transform="translate(131 223)" fill="#eff4ff"/>
      </g>
      <g transform="translate(-73 -145)">
        <rect id="Rectangle_3063-6" data-name="Rectangle 3063" width="19" height="19" transform="translate(131 223)" fill="#eff4ff"/>
      </g>
    </g>
  </g>
</svg>
