<svg xmlns="http://www.w3.org/2000/svg" xmlns:xlink="http://www.w3.org/1999/xlink" width="323" height="252" viewBox="0 0 323 252">
  <defs>
    <clipPath id="clip-constructor-illustration">
      <rect width="323" height="252"/>
    </clipPath>
  </defs>
  <g id="constructor-illustration" clip-path="url(#clip-constructor-illustration)">
    <g id="Construction_Worker_Two_Color" data-name="Construction Worker_Two Color" transform="translate(-49.965 -33.979)">
      <path id="Tracé_1918" data-name="Tracé 1918" d="M147.605,42.465c-44.15,10.9-79.049,45.337-89.282,89.681-7.61,32.977-.928,66.98,50.292,79.34,110.742,26.738,230.356,17.919,244.681-35.557S340.58,41.612,277.313,35.934C241.205,32.706,187.534,32.6,147.605,42.465Z" transform="translate(0 0)" fill="#dcdfea" opacity="0.3"/>
      <path id="Tracé_1919" data-name="Tracé 1919" d="M191.2,174.74s-8.161,4.134-5.041,8.916,9.92-4.458,9.92-4.458Z" transform="translate(10.31 11.185)" fill="#f4a28c"/>
      <path id="Tracé_1920" data-name="Tracé 1920" d="M173.513,99.454a4.868,4.868,0,0,1,5.937-6,71.331,71.331,0,0,1,38.634,26.511c1.695,2.3,3.314,4.545,4.836,6.714a33.841,33.841,0,0,1-7.437,46.568L197.9,186.4l-6.952-6.358,14.109-13.482a18.459,18.459,0,0,0-.065-26.749l-27.7-26.2Z" transform="translate(9.347 4.713)" fill="#b2ccff"/>
      <path id="Tracé_1921" data-name="Tracé 1921" d="M173.513,99.454a4.868,4.868,0,0,1,5.937-6,71.331,71.331,0,0,1,38.634,26.511c1.695,2.3,3.314,4.545,4.836,6.714a33.841,33.841,0,0,1-7.437,46.568L197.9,186.4l-6.952-6.358,14.109-13.482a18.459,18.459,0,0,0-.065-26.749l-27.7-26.2Z" transform="translate(9.347 4.713)" fill="#eff4ff" opacity="0.46"/>
      <ellipse id="Ellipse_696" data-name="Ellipse 696" cx="148.825" cy="14.292" rx="148.825" ry="14.292" transform="translate(69.582 257.395)" fill="#dcdfea" opacity="0.45"/>
      <path id="Tracé_1922" data-name="Tracé 1922" d="M159.116,77.093a34.058,34.058,0,0,1,3.066,8.636,2.753,2.753,0,0,1-2.353,3.13,6.131,6.131,0,0,1-6.175-2.429L150.3,82.587a4.944,4.944,0,0,1,0-5.721C152.326,73.627,157.724,74.038,159.116,77.093Z" transform="translate(7.444 3.229)" fill="#f4a28c"/>
      <path id="Tracé_1923" data-name="Tracé 1923" d="M151.859,80.69l-.8,18.027,9.963-.27L157.6,85.44Z" transform="translate(7.577 3.712)" fill="#f4a28c"/>
      <path id="Tracé_1924" data-name="Tracé 1924" d="M155.261,83.1s-.842-1.943-2.256-1.187-.205,3.573,1.911,3.012Z" transform="translate(7.683 3.795)" fill="#f4a28c"/>
      <path id="Tracé_1925" data-name="Tracé 1925" d="M159.73,79.85l2.234,1.371a.885.885,0,0,1,0,1.49l-1.792,1.166Z" transform="translate(8.266 3.645)" fill="#f4a28c"/>
      <path id="Tracé_1926" data-name="Tracé 1926" d="M158.122,87.964A6.542,6.542,0,0,1,154.7,86.42s.518,3.238,4.491,6.088Z" transform="translate(7.867 4.167)" fill="#ce8172" opacity="0.31"/>
      <path id="Tracé_1927" data-name="Tracé 1927" d="M151.862,86.56,148,80s-3.573-1.079-2.019-3.918,3.875-1.554,4.76-5.246a3.238,3.238,0,0,1,5.926-1.425c1.306,1.911,5.948-.151,5.861,3.238s-4.415,4.771-5.646,5.16C151.495,79.49,158.22,85.384,151.862,86.56Z" transform="translate(7.142 2.699)" fill="#24285b"/>
      <path id="Tracé_1928" data-name="Tracé 1928" d="M178.977,245.48s1.468,4.07,5.138,4.383,4.642,3.9,1.339,4.836-11.874-3.314-11.874-3.314l.237-5.3Z" transform="translate(9.367 16.805)" fill="#b2ccff"/>
      <path id="Tracé_1929" data-name="Tracé 1929" d="M133.105,245.48s-1.468,4.07-5.138,4.383-4.642,3.9-1.339,4.836,11.874-3.314,11.874-3.314l-.237-5.3Z" transform="translate(5.476 16.805)" fill="#b2ccff"/>
      <path id="Tracé_1930" data-name="Tracé 1930" d="M177.326,92.5a127.29,127.29,0,0,0-47.572,10.179,18.351,18.351,0,0,0-9.262,25.1l25.907,51.63,47.993-2.839s8.733-29.016,6.984-61.842A23.6,23.6,0,0,0,177.326,92.5Z" transform="translate(4.995 4.65)" fill="#b2ccff"/>
      <path id="Tracé_1931" data-name="Tracé 1931" d="M145.4,173.209,131.06,252.171h7.168L156.2,209.306a74.407,74.407,0,0,1,31.909-35.946l5.279-2.99Z" transform="translate(5.988 10.837)" fill="#202939"/>
      <path id="Tracé_1932" data-name="Tracé 1932" d="M191.149,170.38l-7.405,81.8h-9.532s2.224-61.529-14.972-74.655Z" transform="translate(8.227 10.838)" fill="#202939"/>
      <path id="Tracé_1933" data-name="Tracé 1933" d="M142.2,105.44s12.252,7.88,8.4,32.114a48.576,48.576,0,0,0,11.6,39.832l-16.829.993s-10.795-22.485-13.666-27.256S142.2,105.44,142.2,105.44Z" transform="translate(6.008 5.678)" opacity="0.08"/>
      <path id="Tracé_1934" data-name="Tracé 1934" d="M146.2,113.116c.054-10.978-13.666-16.041-21.006-7.88a45.445,45.445,0,0,0-11.68,25.076c-2.925,24.1.291,76.728.291,76.728h8.722s5.894-52.591,18.761-76.728C144.869,123.587,146.175,117.866,146.2,113.116Z" transform="translate(4.496 5.342)" fill="#b2ccff"/>
      <path id="Tracé_1935" data-name="Tracé 1935" d="M146.2,113.116c.054-10.978-13.666-16.041-21.006-7.88a45.445,45.445,0,0,0-11.68,25.076c-2.925,24.1.291,76.728.291,76.728h8.722s5.894-52.591,18.761-76.728C144.869,123.587,146.175,117.866,146.2,113.116Z" transform="translate(4.496 5.342)" fill="#eff4ff" opacity="0.46"/>
      <path id="Tracé_1938" data-name="Tracé 1938" d="M115.16,199.25s-2.612,8.69.831,8.69,7.556,1.652,4.955-8.69Z" transform="translate(4.649 13.132)" fill="#f4a28c"/>
      <rect id="Rectangle_3076" data-name="Rectangle 3076" width="4.059" height="55.549" transform="translate(352.753 213.443) rotate(15.67)" fill="#dcdfea"/>
      <path id="Tracé_1939" data-name="Tracé 1939" d="M336.991,204.15a3.9,3.9,0,0,1-.918-.119l-6.552-1.846a3.39,3.39,0,0,1-2.342-4.167l1.328-4.717a3.379,3.379,0,0,1,4.167-2.342l6.552,1.835a3.389,3.389,0,0,1,2.04,1.608,3.336,3.336,0,0,1,.3,2.569l-1.317,4.717a3.39,3.39,0,0,1-3.26,2.461Zm-.345-2.159a1.274,1.274,0,0,0,1.576-.885l1.328-4.717a1.284,1.284,0,0,0-.885-1.576l-6.563-1.835a1.263,1.263,0,0,0-1.565.885l-1.328,4.706a1.263,1.263,0,0,0,.885,1.565Z" transform="translate(21.562 12.463)" fill="#b9c0d4"/>
      <path id="Tracé_1940" data-name="Tracé 1940" d="M329.021,254.489l3.238-11.637-19.43-5.462-3.411,12.165a10.072,10.072,0,0,0-.129,4.933Z" transform="translate(20.13 16.163)" fill="#b9c0d4"/>
      <path id="Tracé_1945" data-name="Tracé 1945" d="M145.237,76.59,163.9,74.064a.734.734,0,0,0,.313-1.328l-.8-.551a4.318,4.318,0,0,1-1.8-2.623c-.7-2.9-2.785-8.754-8.377-8.992-7.146-.313-14.195,5.041-9.92,14.929A1.824,1.824,0,0,0,145.237,76.59Z" transform="translate(6.859 2.112)" fill="#fec84b"/>
      <path id="Tracé_1946" data-name="Tracé 1946" d="M143.5,69.862a8.128,8.128,0,0,1,3.152-6.585.583.583,0,0,1,.864.712,14.692,14.692,0,0,0-1.468,5.937,1.263,1.263,0,0,1-1.079,1.209h0a1.274,1.274,0,0,1-1.468-1.274Z" transform="translate(6.977 2.32)" fill="#fef0c7" opacity="0.31"/>
      <path id="Tracé_1947" data-name="Tracé 1947" d="M310.9,116.373a9.963,9.963,0,0,0-11.669-9.877,13.482,13.482,0,0,0-11.874-7.1h-.5a16.03,16.03,0,1,0-31.056,0h-.5a13.493,13.493,0,1,0,0,26.986h46.848v-.086A10.007,10.007,0,0,0,310.9,116.373Z" transform="translate(14.788 3.608)" fill="#dcdfea"/>
      <path id="Tracé_1948" data-name="Tracé 1948" d="M68.61,85.845a7.416,7.416,0,0,1,7.416-7.373,8.636,8.636,0,0,1,1.2.1,9.985,9.985,0,0,1,8.808-5.257H86.4a11.442,11.442,0,0,1-.367-2.871,11.874,11.874,0,1,1,23.37,2.871h.367a10,10,0,0,1,0,19.992h-34.7v-.065a7.427,7.427,0,0,1-6.455-7.394Z" transform="translate(1.026 1.946)" fill="#dcdfea"/>
      <path id="Tracé_1949" data-name="Tracé 1949" d="M144.244,181.31s5.8-30.808,5.8-47.831c0-25.162-9.111-35.9-9.111-35.9l3.778-1.209s7.9,12.878,20.888,10.136c12.09-2.537,9.024-14.27,8.97-14.443h3.5s11.27,9.219,13.914,24.061c4.491,25.151.594,60.45.594,60.45Z" transform="translate(6.772 4.615)" fill="#202939"/>
      <rect id="Rectangle_3083" data-name="Rectangle 3083" width="51.479" height="6.52" transform="translate(147.303 181.218)" fill="#c9c9c9"/>
      <rect id="Rectangle_3084" data-name="Rectangle 3084" width="10.438" height="15.285" rx="2.11" transform="translate(145.144 177.829)" fill="#fec84b"/>
      <rect id="Rectangle_3085" data-name="Rectangle 3085" width="10.438" height="7.351" rx="2.11" transform="translate(145.144 177.829)" fill="#fff" opacity="0.46"/>
      <circle id="Ellipse_697" data-name="Ellipse 697" cx="1.457" cy="1.457" r="1.457" transform="translate(148.911 179.998)" fill="#48505e"/>
      <rect id="Rectangle_3086" data-name="Rectangle 3086" width="10.438" height="15.285" rx="2.11" transform="translate(157.461 177.829)" fill="#fec84b"/>
      <rect id="Rectangle_3087" data-name="Rectangle 3087" width="10.438" height="7.351" rx="2.11" transform="translate(157.461 177.829)" fill="#fff" opacity="0.46"/>
      <circle id="Ellipse_698" data-name="Ellipse 698" cx="1.457" cy="1.457" r="1.457" transform="translate(161.217 179.998)" fill="#48505e"/>
      <rect id="Rectangle_3088" data-name="Rectangle 3088" width="10.438" height="15.285" rx="2.11" transform="translate(190.309 177.829)" fill="#fec84b"/>
      <rect id="Rectangle_3089" data-name="Rectangle 3089" width="10.438" height="7.351" rx="2.11" transform="translate(190.309 177.829)" fill="#fff" opacity="0.46"/>
      <circle id="Ellipse_699" data-name="Ellipse 699" cx="1.457" cy="1.457" r="1.457" transform="translate(194.065 179.998)" fill="#48505e"/>
      <path id="Tracé_1950" data-name="Tracé 1950" d="M215.959,250.092s3.972-5.721-1.965-7.3,1.436-9.283-4.091-10.3-4.6,7.135-4.6,7.135-3.81-3.238-6.477-.518,1.079,5.786,1.079,5.786-5.322,1.835-2.008,5.192Z" transform="translate(11.213 15.767)" fill="#b9c0d4"/>
      <path id="Tracé_1951" data-name="Tracé 1951" d="M207.16,249.772s2.526-4.318,6.239-3.789a3.465,3.465,0,0,1,3.325,3.789Z" transform="translate(12.035 16.842)" fill="#f9f9fb"/>
      <path id="Tracé_1952" data-name="Tracé 1952" d="M187.066,132.76s-23.025,1.479-29.977,0l-.939,18.858s23.165,3.238,29.933.777Z" transform="translate(7.982 7.849)" fill="#e3e8ef" opacity="0.2"/>
      <g id="Groupe_1498" data-name="Groupe 1498" transform="translate(232.915 185.925)">
        <rect id="Rectangle_3090" data-name="Rectangle 3090" width="8.851" height="84.154" transform="translate(10.478 0)" fill="#00359e" opacity="0.12"/>
        <rect id="Rectangle_3091" data-name="Rectangle 3091" width="8.851" height="84.154" transform="translate(58.31 0)" fill="#00359e" opacity="0.12"/>
        <rect id="Rectangle_3092" data-name="Rectangle 3092" width="77.677" height="27.401" transform="translate(0 10.446)" fill="#b2ccff"/>
        <path id="Tracé_1953" data-name="Tracé 1953" d="M140.84,122.44l9.282,27.4h12.84l-10.548-27.4Z" transform="translate(-136.902 -111.994)" fill="#00359e"/>
        <path id="Tracé_1954" data-name="Tracé 1954" d="M178.39,122.44l9.282,27.4h12.84l-10.554-27.4Z" transform="translate(-150.679 -111.994)" fill="#00359e"/>
        <path id="Tracé_1955" data-name="Tracé 1955" d="M215.83,122.44l9.282,27.4h12.84L227.4,122.44Z" transform="translate(-164.415 -111.994)" fill="#00359e"/>
        <rect id="Rectangle_3093" data-name="Rectangle 3093" width="77.677" height="12.846" transform="translate(0 48.225)" fill="#b2ccff"/>
      </g>
    </g>
  </g>
</svg>
