<svg xmlns="http://www.w3.org/2000/svg" xmlns:xlink="http://www.w3.org/1999/xlink" width="150" height="111" viewBox="0 0 150 111">
  <defs>
    <clipPath id="clip-path">
      <rect width="150" height="111" fill="none"/>
    </clipPath>
  </defs>
  <g id="Grille_de_répétition_4" data-name="Grille de répétition 4" opacity="0.07" clip-path="url(#clip-path)">
    <g transform="translate(-317 -551)">
      <circle id="Ellipse_495" data-name="Ellipse 495" cx="2.5" cy="2.5" r="2.5" transform="translate(317 551)" fill="#0c273e"/>
    </g>
    <g transform="translate(-302 -551)">
      <circle id="Ellipse_495-2" data-name="Ellipse 495" cx="2.5" cy="2.5" r="2.5" transform="translate(317 551)" fill="#0c273e"/>
    </g>
    <g transform="translate(-287 -551)">
      <circle id="Ellipse_495-3" data-name="Ellipse 495" cx="2.5" cy="2.5" r="2.5" transform="translate(317 551)" fill="#0c273e"/>
    </g>
    <g transform="translate(-272 -551)">
      <circle id="Ellipse_495-4" data-name="Ellipse 495" cx="2.5" cy="2.5" r="2.5" transform="translate(317 551)" fill="#0c273e"/>
    </g>
    <g transform="translate(-257 -551)">
      <circle id="Ellipse_495-5" data-name="Ellipse 495" cx="2.5" cy="2.5" r="2.5" transform="translate(317 551)" fill="#0c273e"/>
    </g>
    <g transform="translate(-242 -551)">
      <circle id="Ellipse_495-6" data-name="Ellipse 495" cx="2.5" cy="2.5" r="2.5" transform="translate(317 551)" fill="#0c273e"/>
    </g>
    <g transform="translate(-227 -551)">
      <circle id="Ellipse_495-7" data-name="Ellipse 495" cx="2.5" cy="2.5" r="2.5" transform="translate(317 551)" fill="#0c273e"/>
    </g>
    <g transform="translate(-212 -551)">
      <circle id="Ellipse_495-8" data-name="Ellipse 495" cx="2.5" cy="2.5" r="2.5" transform="translate(317 551)" fill="#0c273e"/>
    </g>
    <g transform="translate(-197 -551)">
      <circle id="Ellipse_495-9" data-name="Ellipse 495" cx="2.5" cy="2.5" r="2.5" transform="translate(317 551)" fill="#0c273e"/>
    </g>
    <g transform="translate(-182 -551)">
      <circle id="Ellipse_495-10" data-name="Ellipse 495" cx="2.5" cy="2.5" r="2.5" transform="translate(317 551)" fill="#0c273e"/>
    </g>
    <g transform="translate(-317 -536)">
      <circle id="Ellipse_495-11" data-name="Ellipse 495" cx="2.5" cy="2.5" r="2.5" transform="translate(317 551)" fill="#0c273e"/>
    </g>
    <g transform="translate(-302 -536)">
      <circle id="Ellipse_495-12" data-name="Ellipse 495" cx="2.5" cy="2.5" r="2.5" transform="translate(317 551)" fill="#0c273e"/>
    </g>
    <g transform="translate(-287 -536)">
      <circle id="Ellipse_495-13" data-name="Ellipse 495" cx="2.5" cy="2.5" r="2.5" transform="translate(317 551)" fill="#0c273e"/>
    </g>
    <g transform="translate(-272 -536)">
      <circle id="Ellipse_495-14" data-name="Ellipse 495" cx="2.5" cy="2.5" r="2.5" transform="translate(317 551)" fill="#0c273e"/>
    </g>
    <g transform="translate(-257 -536)">
      <circle id="Ellipse_495-15" data-name="Ellipse 495" cx="2.5" cy="2.5" r="2.5" transform="translate(317 551)" fill="#0c273e"/>
    </g>
    <g transform="translate(-242 -536)">
      <circle id="Ellipse_495-16" data-name="Ellipse 495" cx="2.5" cy="2.5" r="2.5" transform="translate(317 551)" fill="#0c273e"/>
    </g>
    <g transform="translate(-227 -536)">
      <circle id="Ellipse_495-17" data-name="Ellipse 495" cx="2.5" cy="2.5" r="2.5" transform="translate(317 551)" fill="#0c273e"/>
    </g>
    <g transform="translate(-212 -536)">
      <circle id="Ellipse_495-18" data-name="Ellipse 495" cx="2.5" cy="2.5" r="2.5" transform="translate(317 551)" fill="#0c273e"/>
    </g>
    <g transform="translate(-197 -536)">
      <circle id="Ellipse_495-19" data-name="Ellipse 495" cx="2.5" cy="2.5" r="2.5" transform="translate(317 551)" fill="#0c273e"/>
    </g>
    <g transform="translate(-182 -536)">
      <circle id="Ellipse_495-20" data-name="Ellipse 495" cx="2.5" cy="2.5" r="2.5" transform="translate(317 551)" fill="#0c273e"/>
    </g>
    <g transform="translate(-317 -521)">
      <circle id="Ellipse_495-21" data-name="Ellipse 495" cx="2.5" cy="2.5" r="2.5" transform="translate(317 551)" fill="#0c273e"/>
    </g>
    <g transform="translate(-302 -521)">
      <circle id="Ellipse_495-22" data-name="Ellipse 495" cx="2.5" cy="2.5" r="2.5" transform="translate(317 551)" fill="#0c273e"/>
    </g>
    <g transform="translate(-287 -521)">
      <circle id="Ellipse_495-23" data-name="Ellipse 495" cx="2.5" cy="2.5" r="2.5" transform="translate(317 551)" fill="#0c273e"/>
    </g>
    <g transform="translate(-272 -521)">
      <circle id="Ellipse_495-24" data-name="Ellipse 495" cx="2.5" cy="2.5" r="2.5" transform="translate(317 551)" fill="#0c273e"/>
    </g>
    <g transform="translate(-257 -521)">
      <circle id="Ellipse_495-25" data-name="Ellipse 495" cx="2.5" cy="2.5" r="2.5" transform="translate(317 551)" fill="#0c273e"/>
    </g>
    <g transform="translate(-242 -521)">
      <circle id="Ellipse_495-26" data-name="Ellipse 495" cx="2.5" cy="2.5" r="2.5" transform="translate(317 551)" fill="#0c273e"/>
    </g>
    <g transform="translate(-227 -521)">
      <circle id="Ellipse_495-27" data-name="Ellipse 495" cx="2.5" cy="2.5" r="2.5" transform="translate(317 551)" fill="#0c273e"/>
    </g>
    <g transform="translate(-212 -521)">
      <circle id="Ellipse_495-28" data-name="Ellipse 495" cx="2.5" cy="2.5" r="2.5" transform="translate(317 551)" fill="#0c273e"/>
    </g>
    <g transform="translate(-197 -521)">
      <circle id="Ellipse_495-29" data-name="Ellipse 495" cx="2.5" cy="2.5" r="2.5" transform="translate(317 551)" fill="#0c273e"/>
    </g>
    <g transform="translate(-182 -521)">
      <circle id="Ellipse_495-30" data-name="Ellipse 495" cx="2.5" cy="2.5" r="2.5" transform="translate(317 551)" fill="#0c273e"/>
    </g>
    <g transform="translate(-317 -506)">
      <circle id="Ellipse_495-31" data-name="Ellipse 495" cx="2.5" cy="2.5" r="2.5" transform="translate(317 551)" fill="#0c273e"/>
    </g>
    <g transform="translate(-302 -506)">
      <circle id="Ellipse_495-32" data-name="Ellipse 495" cx="2.5" cy="2.5" r="2.5" transform="translate(317 551)" fill="#0c273e"/>
    </g>
    <g transform="translate(-287 -506)">
      <circle id="Ellipse_495-33" data-name="Ellipse 495" cx="2.5" cy="2.5" r="2.5" transform="translate(317 551)" fill="#0c273e"/>
    </g>
    <g transform="translate(-272 -506)">
      <circle id="Ellipse_495-34" data-name="Ellipse 495" cx="2.5" cy="2.5" r="2.5" transform="translate(317 551)" fill="#0c273e"/>
    </g>
    <g transform="translate(-257 -506)">
      <circle id="Ellipse_495-35" data-name="Ellipse 495" cx="2.5" cy="2.5" r="2.5" transform="translate(317 551)" fill="#0c273e"/>
    </g>
    <g transform="translate(-242 -506)">
      <circle id="Ellipse_495-36" data-name="Ellipse 495" cx="2.5" cy="2.5" r="2.5" transform="translate(317 551)" fill="#0c273e"/>
    </g>
    <g transform="translate(-227 -506)">
      <circle id="Ellipse_495-37" data-name="Ellipse 495" cx="2.5" cy="2.5" r="2.5" transform="translate(317 551)" fill="#0c273e"/>
    </g>
    <g transform="translate(-212 -506)">
      <circle id="Ellipse_495-38" data-name="Ellipse 495" cx="2.5" cy="2.5" r="2.5" transform="translate(317 551)" fill="#0c273e"/>
    </g>
    <g transform="translate(-197 -506)">
      <circle id="Ellipse_495-39" data-name="Ellipse 495" cx="2.5" cy="2.5" r="2.5" transform="translate(317 551)" fill="#0c273e"/>
    </g>
    <g transform="translate(-182 -506)">
      <circle id="Ellipse_495-40" data-name="Ellipse 495" cx="2.5" cy="2.5" r="2.5" transform="translate(317 551)" fill="#0c273e"/>
    </g>
    <g transform="translate(-317 -491)">
      <circle id="Ellipse_495-41" data-name="Ellipse 495" cx="2.5" cy="2.5" r="2.5" transform="translate(317 551)" fill="#0c273e"/>
    </g>
    <g transform="translate(-302 -491)">
      <circle id="Ellipse_495-42" data-name="Ellipse 495" cx="2.5" cy="2.5" r="2.5" transform="translate(317 551)" fill="#0c273e"/>
    </g>
    <g transform="translate(-287 -491)">
      <circle id="Ellipse_495-43" data-name="Ellipse 495" cx="2.5" cy="2.5" r="2.5" transform="translate(317 551)" fill="#0c273e"/>
    </g>
    <g transform="translate(-272 -491)">
      <circle id="Ellipse_495-44" data-name="Ellipse 495" cx="2.5" cy="2.5" r="2.5" transform="translate(317 551)" fill="#0c273e"/>
    </g>
    <g transform="translate(-257 -491)">
      <circle id="Ellipse_495-45" data-name="Ellipse 495" cx="2.5" cy="2.5" r="2.5" transform="translate(317 551)" fill="#0c273e"/>
    </g>
    <g transform="translate(-242 -491)">
      <circle id="Ellipse_495-46" data-name="Ellipse 495" cx="2.5" cy="2.5" r="2.5" transform="translate(317 551)" fill="#0c273e"/>
    </g>
    <g transform="translate(-227 -491)">
      <circle id="Ellipse_495-47" data-name="Ellipse 495" cx="2.5" cy="2.5" r="2.5" transform="translate(317 551)" fill="#0c273e"/>
    </g>
    <g transform="translate(-212 -491)">
      <circle id="Ellipse_495-48" data-name="Ellipse 495" cx="2.5" cy="2.5" r="2.5" transform="translate(317 551)" fill="#0c273e"/>
    </g>
    <g transform="translate(-197 -491)">
      <circle id="Ellipse_495-49" data-name="Ellipse 495" cx="2.5" cy="2.5" r="2.5" transform="translate(317 551)" fill="#0c273e"/>
    </g>
    <g transform="translate(-182 -491)">
      <circle id="Ellipse_495-50" data-name="Ellipse 495" cx="2.5" cy="2.5" r="2.5" transform="translate(317 551)" fill="#0c273e"/>
    </g>
    <g transform="translate(-317 -476)">
      <circle id="Ellipse_495-51" data-name="Ellipse 495" cx="2.5" cy="2.5" r="2.5" transform="translate(317 551)" fill="#0c273e"/>
    </g>
    <g transform="translate(-302 -476)">
      <circle id="Ellipse_495-52" data-name="Ellipse 495" cx="2.5" cy="2.5" r="2.5" transform="translate(317 551)" fill="#0c273e"/>
    </g>
    <g transform="translate(-287 -476)">
      <circle id="Ellipse_495-53" data-name="Ellipse 495" cx="2.5" cy="2.5" r="2.5" transform="translate(317 551)" fill="#0c273e"/>
    </g>
    <g transform="translate(-272 -476)">
      <circle id="Ellipse_495-54" data-name="Ellipse 495" cx="2.5" cy="2.5" r="2.5" transform="translate(317 551)" fill="#0c273e"/>
    </g>
    <g transform="translate(-257 -476)">
      <circle id="Ellipse_495-55" data-name="Ellipse 495" cx="2.5" cy="2.5" r="2.5" transform="translate(317 551)" fill="#0c273e"/>
    </g>
    <g transform="translate(-242 -476)">
      <circle id="Ellipse_495-56" data-name="Ellipse 495" cx="2.5" cy="2.5" r="2.5" transform="translate(317 551)" fill="#0c273e"/>
    </g>
    <g transform="translate(-227 -476)">
      <circle id="Ellipse_495-57" data-name="Ellipse 495" cx="2.5" cy="2.5" r="2.5" transform="translate(317 551)" fill="#0c273e"/>
    </g>
    <g transform="translate(-212 -476)">
      <circle id="Ellipse_495-58" data-name="Ellipse 495" cx="2.5" cy="2.5" r="2.5" transform="translate(317 551)" fill="#0c273e"/>
    </g>
    <g transform="translate(-197 -476)">
      <circle id="Ellipse_495-59" data-name="Ellipse 495" cx="2.5" cy="2.5" r="2.5" transform="translate(317 551)" fill="#0c273e"/>
    </g>
    <g transform="translate(-182 -476)">
      <circle id="Ellipse_495-60" data-name="Ellipse 495" cx="2.5" cy="2.5" r="2.5" transform="translate(317 551)" fill="#0c273e"/>
    </g>
    <g transform="translate(-317 -461)">
      <circle id="Ellipse_495-61" data-name="Ellipse 495" cx="2.5" cy="2.5" r="2.5" transform="translate(317 551)" fill="#0c273e"/>
    </g>
    <g transform="translate(-302 -461)">
      <circle id="Ellipse_495-62" data-name="Ellipse 495" cx="2.5" cy="2.5" r="2.5" transform="translate(317 551)" fill="#0c273e"/>
    </g>
    <g transform="translate(-287 -461)">
      <circle id="Ellipse_495-63" data-name="Ellipse 495" cx="2.5" cy="2.5" r="2.5" transform="translate(317 551)" fill="#0c273e"/>
    </g>
    <g transform="translate(-272 -461)">
      <circle id="Ellipse_495-64" data-name="Ellipse 495" cx="2.5" cy="2.5" r="2.5" transform="translate(317 551)" fill="#0c273e"/>
    </g>
    <g transform="translate(-257 -461)">
      <circle id="Ellipse_495-65" data-name="Ellipse 495" cx="2.5" cy="2.5" r="2.5" transform="translate(317 551)" fill="#0c273e"/>
    </g>
    <g transform="translate(-242 -461)">
      <circle id="Ellipse_495-66" data-name="Ellipse 495" cx="2.5" cy="2.5" r="2.5" transform="translate(317 551)" fill="#0c273e"/>
    </g>
    <g transform="translate(-227 -461)">
      <circle id="Ellipse_495-67" data-name="Ellipse 495" cx="2.5" cy="2.5" r="2.5" transform="translate(317 551)" fill="#0c273e"/>
    </g>
    <g transform="translate(-212 -461)">
      <circle id="Ellipse_495-68" data-name="Ellipse 495" cx="2.5" cy="2.5" r="2.5" transform="translate(317 551)" fill="#0c273e"/>
    </g>
    <g transform="translate(-197 -461)">
      <circle id="Ellipse_495-69" data-name="Ellipse 495" cx="2.5" cy="2.5" r="2.5" transform="translate(317 551)" fill="#0c273e"/>
    </g>
    <g transform="translate(-182 -461)">
      <circle id="Ellipse_495-70" data-name="Ellipse 495" cx="2.5" cy="2.5" r="2.5" transform="translate(317 551)" fill="#0c273e"/>
    </g>
    <g transform="translate(-317 -446)">
      <circle id="Ellipse_495-71" data-name="Ellipse 495" cx="2.5" cy="2.5" r="2.5" transform="translate(317 551)" fill="#0c273e"/>
    </g>
    <g transform="translate(-302 -446)">
      <circle id="Ellipse_495-72" data-name="Ellipse 495" cx="2.5" cy="2.5" r="2.5" transform="translate(317 551)" fill="#0c273e"/>
    </g>
    <g transform="translate(-287 -446)">
      <circle id="Ellipse_495-73" data-name="Ellipse 495" cx="2.5" cy="2.5" r="2.5" transform="translate(317 551)" fill="#0c273e"/>
    </g>
    <g transform="translate(-272 -446)">
      <circle id="Ellipse_495-74" data-name="Ellipse 495" cx="2.5" cy="2.5" r="2.5" transform="translate(317 551)" fill="#0c273e"/>
    </g>
    <g transform="translate(-257 -446)">
      <circle id="Ellipse_495-75" data-name="Ellipse 495" cx="2.5" cy="2.5" r="2.5" transform="translate(317 551)" fill="#0c273e"/>
    </g>
    <g transform="translate(-242 -446)">
      <circle id="Ellipse_495-76" data-name="Ellipse 495" cx="2.5" cy="2.5" r="2.5" transform="translate(317 551)" fill="#0c273e"/>
    </g>
    <g transform="translate(-227 -446)">
      <circle id="Ellipse_495-77" data-name="Ellipse 495" cx="2.5" cy="2.5" r="2.5" transform="translate(317 551)" fill="#0c273e"/>
    </g>
    <g transform="translate(-212 -446)">
      <circle id="Ellipse_495-78" data-name="Ellipse 495" cx="2.5" cy="2.5" r="2.5" transform="translate(317 551)" fill="#0c273e"/>
    </g>
    <g transform="translate(-197 -446)">
      <circle id="Ellipse_495-79" data-name="Ellipse 495" cx="2.5" cy="2.5" r="2.5" transform="translate(317 551)" fill="#0c273e"/>
    </g>
    <g transform="translate(-182 -446)">
      <circle id="Ellipse_495-80" data-name="Ellipse 495" cx="2.5" cy="2.5" r="2.5" transform="translate(317 551)" fill="#0c273e"/>
    </g>
  </g>
</svg>
