<svg xmlns="http://www.w3.org/2000/svg" width="174.89" height="63.983" viewBox="0 0 174.89 63.983">
  <g id="Groupe_283" data-name="Groupe 283" transform="translate(-291.53 -132.316)">
    <path id="Tracé_2146" data-name="Tracé 2146" d="M21.359-121.145a1.058,1.058,0,0,0-1.182-1.148h-.54a1.058,1.058,0,0,0-1.182,1.148v11.311c0,.169-.068.236-.169.236a.172.172,0,0,1-.169-.135L11.095-120.57c-.642-1.013-1.452-2.093-2.769-2.093H8.292a2.319,2.319,0,0,0-2.262,2.6v14.62A1.074,1.074,0,0,0,7.212-104.3h.506a1.084,1.084,0,0,0,1.216-1.148v-11.345c0-.135.068-.236.169-.236a.224.224,0,0,1,.169.135l6.989,10.839c.675,1.047,1.486,2.127,2.8,2.127H19.1a2.337,2.337,0,0,0,2.262-2.6Zm20.5,0c0-.709.407-17.236.407-17.236H38.951V-110.2c0,2.33-1.756,3.68-4.119,3.68-2.938,0-3.087-1.958-3.087-3.68l.2-10.6v-18.125l-3.144-.5v28.988c0,4.018,1.74,6.382,6.028,6.382,4.153,0,7.023-2.4,7.023-6.382Zm26.235.777a2.2,2.2,0,0,0-2.161-2.33,2.7,2.7,0,0,0-2.431,1.891l-5.1,11.514a.185.185,0,0,1-.2.135.244.244,0,0,1-.2-.135L52.93-120.807a2.648,2.648,0,0,0-2.465-1.891,2.223,2.223,0,0,0-2.195,2.33v14.89a1.117,1.117,0,0,0,1.182,1.182h.405a1.109,1.109,0,0,0,1.216-1.182v-10.5c0-.169.068-.236.169-.236.068,0,.135.068.169.169l4.761,10.771a1.708,1.708,0,0,0,1.654,1.216,1.7,1.7,0,0,0,1.654-1.216l4.761-10.771a.249.249,0,0,1,.2-.169c.068,0,.169.068.169.236v10.5a1.083,1.083,0,0,0,1.182,1.182h1.114a1.1,1.1,0,0,0,1.182-1.182Zm15.7-5.6c0-.169-.1-.236-.338-.236H82.238c-.338,0-.473.135-.608.473l-.945,2.262a.859.859,0,0,0-.068.236c0,.1.1.169.3.169h.608c.3,0,.405,0,.608-.3l1.553-2.33A.539.539,0,0,0,83.791-125.973Zm2.87,20.191a1.046,1.046,0,0,0-1.114-1.114H79c-.709,0-.979-.3-.979-1.013v-3.748a.638.638,0,0,1,.675-.675h6.449a1.037,1.037,0,0,0,1.08-1.114v-.371a1.037,1.037,0,0,0-1.08-1.114H78.692a.638.638,0,0,1-.675-.675v-3.073c0-.709.27-1.013.979-1.013h6.55a1.037,1.037,0,0,0,1.114-1.08v-.405a1.046,1.046,0,0,0-1.114-1.114H78.557c-2.8,0-4.052,1.249-4.052,4.052v9.927c0,2.769,1.249,4.018,4.052,4.018h6.989a1.046,1.046,0,0,0,1.114-1.114Zm20.394.642a1.273,1.273,0,0,0-.371-.844l-5.4-6.415a6.33,6.33,0,0,0,3.41-1.587,4.308,4.308,0,0,0,1.317-3.14c0-2.364-1.283-5.166-7.057-5.166H94.8a2.046,2.046,0,0,0-2.33,2.33v14.485A1.117,1.117,0,0,0,93.65-104.3h1.114a1.1,1.1,0,0,0,1.182-1.182V-118.95a.631.631,0,0,1,.709-.675h1.958c2.938,0,3.545,1.283,3.545,2.566,0,1.216-.574,2.634-3.545,2.634h-.338a1.426,1.426,0,0,0-1.351.709,1.415,1.415,0,0,0-.135.54,1.611,1.611,0,0,0,.371.979l5.774,7.158a1.683,1.683,0,0,0,1.519.743h1.519a1.065,1.065,0,0,0,1.013-.473A1.437,1.437,0,0,0,107.055-105.14Zm9.42-15.971c0-.709-.219-18.058-.219-18.058h-3.2S113-121.82,113-121.111v15.633a1.083,1.083,0,0,0,1.182,1.182h1.08a1.109,1.109,0,0,0,1.216-1.182Zm24.986,7.867a9.05,9.05,0,0,0-9.42-9.454,9.069,9.069,0,0,0-9.42,9.454,8.975,8.975,0,0,0,7.192,9.218c.439.1.675.2.675.675v3.106a1.083,1.083,0,0,0,1.182,1.182h.81a1.1,1.1,0,0,0,1.182-1.182v-3.073a.712.712,0,0,1,.642-.81A8.863,8.863,0,0,0,141.462-113.243Zm-3.883,0c0,3.039-1.216,5.3-3.208,6.247a.755.755,0,0,1-.338.1c-.236,0-.371-.169-.371-.506v-2.161a1.1,1.1,0,0,0-1.182-1.182h-.81a1.083,1.083,0,0,0-1.182,1.182v2.195c0,.3-.169.473-.405.473a.668.668,0,0,1-.338-.068c-1.992-.945-3.208-3.208-3.208-6.28,0-4.119,2.228-6.787,5.5-6.787C135.35-120.03,137.579-117.363,137.579-113.243Zm23.771-7.9a1.074,1.074,0,0,0-1.182-1.148h-.506a1.1,1.1,0,0,0-1.216,1.148v10.94c0,2.33-1.553,3.68-3.917,3.68a3.46,3.46,0,0,1-3.782-3.748v-10.839a1.083,1.083,0,0,0-1.182-1.182h-1.114a1.1,1.1,0,0,0-1.182,1.182v10.8c0,4.018,2.769,6.449,7.057,6.449,4.153,0,7.023-2.6,7.023-6.584Zm18.571,15.363a1.046,1.046,0,0,0-1.114-1.114h-6.55c-.709,0-.979-.3-.979-1.013v-3.748a.638.638,0,0,1,.675-.675H178.4a1.037,1.037,0,0,0,1.08-1.114v-.371a1.037,1.037,0,0,0-1.08-1.114h-6.449a.638.638,0,0,1-.675-.675v-3.073c0-.709.27-1.013.979-1.013h6.55a1.037,1.037,0,0,0,1.114-1.08v-.405a1.046,1.046,0,0,0-1.114-1.114h-6.989c-2.8,0-4.052,1.249-4.052,4.052v9.927c0,2.769,1.249,4.018,4.052,4.018h6.989a1.046,1.046,0,0,0,1.114-1.114Z" transform="translate(286 294.861)" fill="#394e98"/>
    <path id="Tracé_2146_-_Contour" data-name="Tracé 2146 - Contour" d="M28.3-140.014l4.144.655V-120.8l-.2,10.6c0,1.8.193,3.175,2.587,3.175,2.2,0,3.619-1.248,3.619-3.18v-28.676h4.324l-.013.512c0,.165-.407,16.529-.407,17.224v10.7a6.536,6.536,0,0,1-2.122,5.059,7.975,7.975,0,0,1-5.4,1.823c-4.332,0-6.528-2.315-6.528-6.882Zm3.144,1.509-2.144-.339v28.4c0,4.013,1.757,5.882,5.528,5.882,4.024,0,6.523-2.254,6.523-5.882v-10.7c0-.645.325-13.893.395-16.736h-2.3V-110.2c0,2.5-1.856,4.18-4.619,4.18a3.252,3.252,0,0,1-3.079-1.446,5.517,5.517,0,0,1-.508-2.735v-.01l.2-10.6Zm81.113-1.163h4.189l.006.494c.009.708.219,17.36.219,18.064v15.633a1.608,1.608,0,0,1-1.716,1.682h-1.08a1.576,1.576,0,0,1-1.682-1.682v-15.633c0-.7.061-17.886.061-18.059Zm3.2,1h-2.205c-.01,2.847-.06,16.925-.06,17.558v15.633a.594.594,0,0,0,.682.682h1.08c.475,0,.716-.229.716-.682v-15.633C115.975-121.741,115.8-135.832,115.763-138.668ZM82.238-126.709h1.216a.731.731,0,0,1,.838.736,1.017,1.017,0,0,1-.185.548l-1.553,2.33a1.5,1.5,0,0,1-.257.3h3.251a1.544,1.544,0,0,1,1.614,1.614v.405a1.529,1.529,0,0,1-1.614,1.58H79a.621.621,0,0,0-.393.085c-.026.027-.086.124-.086.428v3.073c0,.129.046.175.175.175h6.449a1.529,1.529,0,0,1,1.58,1.614v.371a1.529,1.529,0,0,1-1.58,1.614H78.692c-.129,0-.175.046-.175.175v3.748c0,.3.06.4.086.428A.621.621,0,0,0,79-107.4h6.55a1.544,1.544,0,0,1,1.614,1.614v.371a1.544,1.544,0,0,1-1.614,1.614H78.557a4.644,4.644,0,0,1-3.429-1.116,4.57,4.57,0,0,1-1.123-3.4v-9.927a4.628,4.628,0,0,1,1.121-3.43,4.628,4.628,0,0,1,3.43-1.121H80.3a.631.631,0,0,1-.185-.445.926.926,0,0,1,.072-.333c.007-.019.014-.039.022-.061l.013-.035.944-2.258A1.075,1.075,0,0,1,82.238-126.709Zm.855,1h-.855a.428.428,0,0,0-.068,0,.8.8,0,0,0-.075.154l0,.007-.825,1.975h.263c.045,0,.1,0,.134,0,.013-.015.031-.04.058-.08Zm2.454,5.517a.544.544,0,0,0,.614-.58v-.405a.549.549,0,0,0-.614-.614H78.557c-2.523,0-3.552,1.029-3.552,3.552v9.927c0,2.5,1.029,3.518,3.552,3.518h6.989a.549.549,0,0,0,.614-.614v-.371a.549.549,0,0,0-.614-.614H79a1.326,1.326,0,0,1-1.479-1.513v-3.748a1.137,1.137,0,0,1,1.175-1.175h6.449a.544.544,0,0,0,.58-.614v-.371a.544.544,0,0,0-.58-.614H78.692a1.137,1.137,0,0,1-1.175-1.175v-3.073A1.326,1.326,0,0,1,79-120.193ZM50.465-123.2a3.143,3.143,0,0,1,2.921,2.187L58.2-110.072l4.843-10.937a3.206,3.206,0,0,1,2.888-2.188,2.689,2.689,0,0,1,2.661,2.83v14.89a1.592,1.592,0,0,1-1.682,1.682H65.794a1.576,1.576,0,0,1-1.682-1.682v-9.041l-4.173,9.441a2.2,2.2,0,0,1-2.114,1.518,2.219,2.219,0,0,1-2.111-1.512l-4.142-9.37v8.964a1.608,1.608,0,0,1-1.716,1.682h-.405a1.609,1.609,0,0,1-1.682-1.682v-14.89a2.9,2.9,0,0,1,.764-2A2.62,2.62,0,0,1,50.465-123.2Zm7.732,14.54a.732.732,0,0,1-.619-.358l-.024-.036-5.082-11.554c-.478-1.071-1.135-1.592-2.007-1.592a1.727,1.727,0,0,0-1.695,1.83v14.89a.621.621,0,0,0,.682.682h.405c.475,0,.716-.229.716-.682v-10.5a.673.673,0,0,1,.669-.736.69.69,0,0,1,.634.484l4.753,10.754c.252.566.54.918,1.2.918a1.2,1.2,0,0,0,1.194-.91l0-.008,4.754-10.756a.743.743,0,0,1,.667-.482.7.7,0,0,1,.669.736v10.5a.594.594,0,0,0,.682.682h1.114a.6.6,0,0,0,.682-.682v-14.89a1.694,1.694,0,0,0-1.661-1.83,2.234,2.234,0,0,0-1.972,1.589l-5.093,11.5A.681.681,0,0,1,58.2-108.658Zm73.844-14.54a9.952,9.952,0,0,1,7.128,2.784,10.009,10.009,0,0,1,2.793,7.17,9.979,9.979,0,0,1-2.08,6.314,9.38,9.38,0,0,1-5.474,3.292l-.022,0c-.144.024-.224.037-.224.317v3.073a1.592,1.592,0,0,1-1.682,1.682h-.81a1.576,1.576,0,0,1-1.682-1.682v-3.106a.476.476,0,0,0-.009-.1,1.235,1.235,0,0,0-.273-.083,9.25,9.25,0,0,1-5.49-3.332,10.157,10.157,0,0,1-2.1-6.375,10,10,0,0,1,2.806-7.17A9.95,9.95,0,0,1,132.041-123.2Zm2.168,18.58a8.345,8.345,0,0,0,6.752-8.625,8.551,8.551,0,0,0-8.92-8.954,8.551,8.551,0,0,0-8.92,8.954c0,4.457,2.666,7.883,6.792,8.728l.012,0a1.126,1.126,0,0,1,1.063,1.163v3.106a.594.594,0,0,0,.682.682h.81a.6.6,0,0,0,.682-.682v-3.073A1.209,1.209,0,0,1,134.209-104.618ZM8.292-123.164h.034c1.509,0,2.425,1.117,3.19,2.324l6.439,9.938v-10.242a1.545,1.545,0,0,1,1.682-1.648h.54a1.545,1.545,0,0,1,1.682,1.648v14.62a3.346,3.346,0,0,1-.746,2.2,2.616,2.616,0,0,1-2.016.9h-.034c-1.571,0-2.487-1.216-3.223-2.356l-6.407-9.935v10.272A1.577,1.577,0,0,1,7.718-103.8H7.212a1.576,1.576,0,0,1-1.682-1.648v-14.62A2.818,2.818,0,0,1,8.292-123.164Zm9.38,13.663-7-10.8c-.707-1.117-1.377-1.861-2.346-1.861H8.292c-1.071,0-1.762.824-1.762,2.1v14.62c0,.436.223.648.682.648h.506c.641,0,.716-.37.716-.648v-11.345a.689.689,0,0,1,.669-.736.7.7,0,0,1,.6.382l6.978,10.82c.756,1.172,1.418,1.9,2.382,1.9H19.1c1.054,0,1.762-.844,1.762-2.1v-14.62c0-.454-.2-.648-.682-.648h-.54c-.478,0-.682.194-.682.648v11.311a.673.673,0,0,1-.669.736A.661.661,0,0,1,17.672-109.5ZM94.8-122.793h4.153c6.575,0,7.557,3.55,7.557,5.666a4.789,4.789,0,0,1-1.463,3.494,6.414,6.414,0,0,1-2.846,1.547l4.864,5.776a1.752,1.752,0,0,1,.492,1.17,1.6,1.6,0,0,1-.067.431l-.016.062-.016.062-.031.056a1.508,1.508,0,0,1-1.452.733h-1.519a2.177,2.177,0,0,1-1.9-.923l-.005-.006-5.779-7.165a2.41,2.41,0,0,1-.321-.541v6.954a1.592,1.592,0,0,1-1.682,1.682H93.65a1.609,1.609,0,0,1-1.682-1.682v-14.485A2.53,2.53,0,0,1,94.8-122.793Zm11.724,17.827a.7.7,0,0,0,.033-.174.762.762,0,0,0-.248-.515l-.006-.007-5.974-7.094.877-.137a5.918,5.918,0,0,0,3.134-1.447,3.822,3.822,0,0,0,1.17-2.787,4.114,4.114,0,0,0-1.209-3.108c-1.082-1.034-2.882-1.558-5.348-1.558H94.8c-1.3,0-1.83.53-1.83,1.83v14.485a.621.621,0,0,0,.682.682h1.114a.6.6,0,0,0,.682-.682V-118.95a1.129,1.129,0,0,1,1.209-1.175h1.958a4.585,4.585,0,0,1,3.214.935,2.774,2.774,0,0,1,.831,2.131,2.863,2.863,0,0,1-.808,2.129,4.5,4.5,0,0,1-3.238,1h-.338a.978.978,0,0,0-.892.41.961.961,0,0,0-.093.339,1.118,1.118,0,0,0,.264.669l5.768,7.151a1.2,1.2,0,0,0,1.133.56h1.519C106.342-104.8,106.47-104.9,106.522-104.966Zm-7.908-9.959c2.73,0,3.045-1.218,3.045-2.134,0-.962-.346-2.066-3.045-2.066H96.655c-.209,0-.209.062-.209.175v5.085l.015-.038.011-.026a1.892,1.892,0,0,1,1.8-1Zm49.837-7.867h1.114a1.576,1.576,0,0,1,1.682,1.682v10.839a2.991,2.991,0,0,0,3.282,3.248c2.139,0,3.417-1.189,3.417-3.18v-10.94a1.593,1.593,0,0,1,1.716-1.648h.506a1.576,1.576,0,0,1,1.682,1.648v10.7a6.818,6.818,0,0,1-2.114,5.153,7.769,7.769,0,0,1-5.409,1.932,7.992,7.992,0,0,1-5.472-1.847,6.648,6.648,0,0,1-2.085-5.1v-10.8A1.592,1.592,0,0,1,148.451-122.793Zm6.078,16.768a4.092,4.092,0,0,1-3.383-1.416,4.524,4.524,0,0,1-.9-2.832v-10.839a.594.594,0,0,0-.682-.682h-1.114a.6.6,0,0,0-.682.682v10.8c0,3.67,2.512,5.949,6.557,5.949,3.9,0,6.523-2.445,6.523-6.084v-10.7c0-.436-.223-.648-.682-.648h-.506c-.326,0-.716.112-.716.648v10.94a4.05,4.05,0,0,1-1.234,3.082A4.6,4.6,0,0,1,154.529-106.024Zm17.288-16.768h6.989a1.544,1.544,0,0,1,1.614,1.614v.405a1.529,1.529,0,0,1-1.614,1.58h-6.55a.621.621,0,0,0-.393.085c-.026.027-.086.124-.086.428v3.073c0,.129.046.175.175.175H178.4a1.529,1.529,0,0,1,1.58,1.614v.371a1.529,1.529,0,0,1-1.58,1.614h-6.449c-.129,0-.175.046-.175.175v3.748c0,.3.06.4.086.428a.621.621,0,0,0,.393.085h6.55a1.544,1.544,0,0,1,1.614,1.614v.371a1.544,1.544,0,0,1-1.614,1.614h-6.989a4.644,4.644,0,0,1-3.429-1.116,4.57,4.57,0,0,1-1.123-3.4v-9.927a4.628,4.628,0,0,1,1.121-3.43A4.628,4.628,0,0,1,171.816-122.793Zm6.989,2.6a.544.544,0,0,0,.614-.58v-.405a.549.549,0,0,0-.614-.614h-6.989c-2.523,0-3.552,1.029-3.552,3.552v9.927c0,2.5,1.029,3.518,3.552,3.518h6.989a.549.549,0,0,0,.614-.614v-.371a.549.549,0,0,0-.614-.614h-6.55a1.326,1.326,0,0,1-1.479-1.513v-3.748a1.137,1.137,0,0,1,1.175-1.175H178.4a.544.544,0,0,0,.58-.614v-.371a.544.544,0,0,0-.58-.614h-6.449a1.137,1.137,0,0,1-1.175-1.175v-3.073a1.326,1.326,0,0,1,1.479-1.513Zm-46.765-.338c3.611,0,6.037,2.928,6.037,7.287a8.9,8.9,0,0,1-.913,4.139,5.669,5.669,0,0,1-2.576,2.557,1.231,1.231,0,0,1-.556.152.882.882,0,0,1-.871-1.006v-2.161a.6.6,0,0,0-.682-.682h-.81a.594.594,0,0,0-.682.682v2.195a.91.91,0,0,1-.905.973,1.151,1.151,0,0,1-.556-.118c-2.218-1.055-3.49-3.507-3.49-6.73C126.037-117.6,128.45-120.53,132.041-120.53Zm2.121,13.079c1.854-.883,2.917-2.994,2.917-5.792,0-3.819-1.977-6.287-5.037-6.287-3.04,0-5,2.468-5,6.287,0,2.823,1.065,4.947,2.922,5.829l.009,0,.019.009v-2.161a1.576,1.576,0,0,1,1.682-1.682h.81a1.592,1.592,0,0,1,1.682,1.682Z" transform="translate(286 294.861)" fill="#394e98"/>
    <path id="Tracé_2147" data-name="Tracé 2147" d="M18.221-78.281a1.338,1.338,0,0,0-.187-.687A1.115,1.115,0,0,0,17-79.594a1.532,1.532,0,0,0-1,.375,5.676,5.676,0,0,1-3.687,1.406C9.1-77.813,6.941-80.125,6.941-84c0-3.906,2.156-6.218,5.374-6.218A5.119,5.119,0,0,1,16-88.811a1.349,1.349,0,0,0,.969.406,1.226,1.226,0,0,0,1.062-.656,1.338,1.338,0,0,0,.187-.687,1.471,1.471,0,0,0-.531-1.094,7.342,7.342,0,0,0-5.405-1.875A8.879,8.879,0,0,0,5.91-90.311,8.427,8.427,0,0,0,3.348-84a8.406,8.406,0,0,0,2.562,6.28,8.9,8.9,0,0,0,6.374,2.437,7.473,7.473,0,0,0,5.405-1.875A1.587,1.587,0,0,0,18.221-78.281ZM38.686-91.248a1.042,1.042,0,0,0-1.125-1.094h-1a1.042,1.042,0,0,0-1.125,1.094v5.155a.584.584,0,0,1-.625.656h-5.78a.6.6,0,0,1-.625-.656v-14a1,1,0,0,0-1.094-1.094H26.282a1.017,1.017,0,0,0-1.094,1.094v23.309a1.017,1.017,0,0,0,1.094,1.094h1.031a1,1,0,0,0,1.094-1.094v-5.749a.607.607,0,0,1,.656-.656h5.749a.584.584,0,0,1,.625.656v5.843c0,.687.437,1,1.125,1h1a1.026,1.026,0,0,0,1.125-1.094ZM61.4-76.563a.9.9,0,0,0-.094-.469s.031,0-6.218-14.4a1.738,1.738,0,0,0-1.625-1.25,1.785,1.785,0,0,0-1.656,1.25s-.031,0-6.218,14.373a1.071,1.071,0,0,0-.125.5.944.944,0,0,0,.156.5.843.843,0,0,0,.781.375h.344A1.223,1.223,0,0,0,48-76.5l1.156-2.718a.55.55,0,0,1,.594-.375h6.5a.523.523,0,0,1,.562.375l1.125,2.656a1.263,1.263,0,0,0,1.25.875H60.4a1.07,1.07,0,0,0,.875-.406A.843.843,0,0,0,61.4-76.563Zm-5.843-5.53c0,.156-.125.25-.312.25H50.716c-.187,0-.312-.094-.312-.25a.3.3,0,0,1,.062-.219l2.25-5.374A.29.29,0,0,1,53-87.9c.094,0,.187.062.25.219l2.25,5.374A.579.579,0,0,1,55.559-82.093Zm26.808-9.186a.979.979,0,0,0-1.094-1.062h-.5a.979.979,0,0,0-1.094,1.062v10.467c0,.156-.062.219-.156.219a.159.159,0,0,1-.156-.125l-6.5-10.03c-.594-.937-1.344-1.937-2.562-1.937h-.031a2.146,2.146,0,0,0-2.093,2.406V-76.75a.994.994,0,0,0,1.094,1.062h.469a1,1,0,0,0,1.125-1.062v-10.5c0-.125.062-.219.156-.219a.208.208,0,0,1,.156.125l6.468,10.03c.625.969,1.375,1.968,2.593,1.968h.031a2.163,2.163,0,0,0,2.093-2.406Zm19.966-.031a.968.968,0,0,0-1.031-1.031H90.241a.96.96,0,0,0-1,1.031v.406a.96.96,0,0,0,1,1.031h3.281a.607.607,0,0,1,.656.656v12.436a1.017,1.017,0,0,0,1.094,1.094H96.3A1.017,1.017,0,0,0,97.4-76.781V-89.217a.607.607,0,0,1,.656-.656h3.25a.968.968,0,0,0,1.031-1.031Zm10.873-5.405a2.067,2.067,0,0,0-2.062-2.093,2.087,2.087,0,0,0-2.062,2.093,2.08,2.08,0,0,0,2.062,2.062A2.06,2.06,0,0,0,113.206-96.716Zm-.437,5.468a1.042,1.042,0,0,0-1.125-1.094h-1a1.017,1.017,0,0,0-1.094,1.094v14.467a1,1,0,0,0,1.094,1.094h1a1.026,1.026,0,0,0,1.125-1.094ZM132.2-77.063a.968.968,0,0,0-1.031-1.031h-6.062c-.656,0-.906-.281-.906-.937V-82.5a.59.59,0,0,1,.625-.625H130.8a.96.96,0,0,0,1-1.031V-84.5a.96.96,0,0,0-1-1.031h-5.968a.59.59,0,0,1-.625-.625V-89c0-.656.25-.937.906-.937h6.062a.96.96,0,0,0,1.031-1v-.375a.968.968,0,0,0-1.031-1.031H124.7c-2.593,0-3.749,1.156-3.749,3.749v9.186c0,2.562,1.156,3.718,3.749,3.718h6.468a.968.968,0,0,0,1.031-1.031Zm20.809.594a1.178,1.178,0,0,0-.344-.781l-5-5.937a5.857,5.857,0,0,0,3.156-1.469,3.986,3.986,0,0,0,1.219-2.906c0-2.187-1.187-4.781-6.53-4.781h-3.843a1.893,1.893,0,0,0-2.156,2.156v13.4a1.033,1.033,0,0,0,1.094,1.094h1.031a1.017,1.017,0,0,0,1.094-1.094V-89.248a.584.584,0,0,1,.656-.625H145.2c2.718,0,3.281,1.187,3.281,2.375,0,1.125-.531,2.437-3.281,2.437h-.312a1.319,1.319,0,0,0-1.25.656,1.31,1.31,0,0,0-.125.5,1.491,1.491,0,0,0,.344.906l5.343,6.624a1.557,1.557,0,0,0,1.406.687h1.406a.986.986,0,0,0,.937-.437A1.329,1.329,0,0,0,153.013-76.469Z" transform="translate(289.518 234)" fill="#394e98"/>
    <path id="Tracé_2147_-_Contour" data-name="Tracé 2147 - Contour" d="M12.284-74.782a9.368,9.368,0,0,1-6.724-2.58A8.96,8.96,0,0,1,2.848-84,8.883,8.883,0,0,1,5.56-90.667a9.362,9.362,0,0,1,6.724-2.549A7.831,7.831,0,0,1,18.035-91.2a1.956,1.956,0,0,1,.686,1.455,1.841,1.841,0,0,1-.253.935,1.727,1.727,0,0,1-1.5.908,1.86,1.86,0,0,1-1.322-.553,4.647,4.647,0,0,0-3.333-1.26c-3.007,0-4.874,2.191-4.874,5.718,0,3.508,1.868,5.687,4.874,5.687A5.174,5.174,0,0,0,15.677-79.6a2.029,2.029,0,0,1,1.325-.5,1.617,1.617,0,0,1,1.472.889,1.838,1.838,0,0,1,.247.924,2.069,2.069,0,0,1-.678,1.478l0,0A8.04,8.04,0,0,1,12.284-74.782Zm0-17.435A8.384,8.384,0,0,0,6.26-89.954,7.929,7.929,0,0,0,3.848-84,7.892,7.892,0,0,0,6.26-78.076a8.389,8.389,0,0,0,6.024,2.294,6.982,6.982,0,0,0,5.054-1.731,1.1,1.1,0,0,0,.382-.769.844.844,0,0,0-.122-.439l-.013-.024A.616.616,0,0,0,17-79.094a1.03,1.03,0,0,0-.668.249l-.012.01a6.149,6.149,0,0,1-4.007,1.522c-3.568,0-5.874-2.625-5.874-6.687a7.273,7.273,0,0,1,1.605-4.9,5.505,5.505,0,0,1,4.269-1.813,5.636,5.636,0,0,1,4.04,1.552.844.844,0,0,0,.615.26.731.731,0,0,0,.628-.4.844.844,0,0,0,.122-.439.978.978,0,0,0-.368-.724l-.017-.016A6.875,6.875,0,0,0,12.284-92.217Zm67.99,17.372h-.031c-1.6,0-2.518-1.429-3.013-2.2l-5.86-9.087v9.379a1.494,1.494,0,0,1-1.625,1.562h-.469a1.494,1.494,0,0,1-1.594-1.562V-90.279a2.643,2.643,0,0,1,2.593-2.906h.031c1.415,0,2.27,1.042,2.983,2.168l5.89,9.09v-9.352a1.479,1.479,0,0,1,1.594-1.562h.5a1.479,1.479,0,0,1,1.594,1.562V-77.75a3.133,3.133,0,0,1-.7,2.057A2.458,2.458,0,0,1,80.274-74.844ZM71.613-87.6l6.456,10.012c.693,1.074,1.3,1.739,2.173,1.739h.031c.953,0,1.593-.766,1.593-1.906V-91.279c0-.4-.172-.562-.594-.562h-.5c-.422,0-.594.163-.594.562v10.467a.659.659,0,0,1-.656.719.657.657,0,0,1-.6-.392l-6.477-10c-.648-1.023-1.26-1.7-2.14-1.7h-.031c-.968,0-1.593.748-1.593,1.906V-76.75c0,.384.189.562.594.562h.469c.554,0,.625-.3.625-.562v-10.5a.674.674,0,0,1,.656-.719A.682.682,0,0,1,71.613-87.6Zm80.4,12.408h-1.406a2.047,2.047,0,0,1-1.79-.867l-.005-.006-5.348-6.631a2.344,2.344,0,0,1-.23-.357v6.268a1.509,1.509,0,0,1-1.594,1.594h-1.031a1.525,1.525,0,0,1-1.594-1.594v-13.4a2.375,2.375,0,0,1,2.656-2.656h3.843c6.117,0,7.03,3.308,7.03,5.281a4.468,4.468,0,0,1-1.365,3.259,5.938,5.938,0,0,1-2.594,1.426l4.463,5.3a1.657,1.657,0,0,1,.464,1.107,1.512,1.512,0,0,1-.063.408l-.015.057-.016.062-.031.056A1.431,1.431,0,0,1,152.013-75.188Zm-2.425-1.5a1.077,1.077,0,0,0,1.019.5h1.406c.313,0,.427-.081.473-.137a.586.586,0,0,0,.027-.144.672.672,0,0,0-.22-.452l-.006-.007-5.571-6.616.877-.137a5.438,5.438,0,0,0,2.879-1.328,3.5,3.5,0,0,0,1.072-2.552,3.771,3.771,0,0,0-1.107-2.849c-.994-.95-2.651-1.432-4.923-1.432h-3.843c-1.176,0-1.656.48-1.656,1.656v13.4a.54.54,0,0,0,.594.594h1.031a.526.526,0,0,0,.594-.594V-89.248a1.08,1.08,0,0,1,1.156-1.125H145.2a4.277,4.277,0,0,1,3,.875,2.6,2.6,0,0,1,.781,2,2.686,2.686,0,0,1-.759,2,4.194,4.194,0,0,1-3.022.94h-.312a.872.872,0,0,0-.792.357.847.847,0,0,0-.083.3,1,1,0,0,0,.236.6Zm-6.2-12.681a.258.258,0,0,0-.14.026.194.194,0,0,0-.016.1v4.539a1.815,1.815,0,0,1,1.656-.853h.312c2.492,0,2.781-1.106,2.781-1.937,0-.561,0-1.875-2.781-1.875ZM131.172-75.188H124.7c-2.859,0-4.249-1.38-4.249-4.218v-9.186a4.317,4.317,0,0,1,1.049-3.2,4.317,4.317,0,0,1,3.2-1.049h6.468a1.465,1.465,0,0,1,1.531,1.531v.375a1.45,1.45,0,0,1-1.531,1.5h-6.062c-.345,0-.406.032-.406.437v2.843c0,.1.026.125.125.125H130.8a1.45,1.45,0,0,1,1.5,1.531v.344a1.45,1.45,0,0,1-1.5,1.531h-5.968c-.1,0-.125.026-.125.125v3.468c0,.4.061.437.406.437h6.062a1.465,1.465,0,0,1,1.531,1.531v.344A1.465,1.465,0,0,1,131.172-75.188ZM124.7-91.842c-2.308,0-3.249.941-3.249,3.249v9.186c0,2.286.941,3.218,3.249,3.218h6.468a.475.475,0,0,0,.531-.531v-.344a.475.475,0,0,0-.531-.531h-6.062a1.273,1.273,0,0,1-1.406-1.437V-82.5a1.088,1.088,0,0,1,1.125-1.125H130.8a.466.466,0,0,0,.5-.531V-84.5a.466.466,0,0,0-.5-.531h-5.968a1.088,1.088,0,0,1-1.125-1.125V-89a1.273,1.273,0,0,1,1.406-1.437h6.062a.466.466,0,0,0,.531-.5v-.375a.475.475,0,0,0-.531-.531ZM111.644-75.188h-1a1.493,1.493,0,0,1-1.594-1.594V-91.248a1.509,1.509,0,0,1,1.594-1.594h1a1.54,1.54,0,0,1,1.625,1.594v14.467A1.524,1.524,0,0,1,111.644-75.188Zm-1-16.654a.526.526,0,0,0-.594.594v14.467c0,.411.183.594.594.594h1c.42,0,.625-.194.625-.594V-91.248a.55.55,0,0,0-.625-.594ZM96.3-75.188H95.272a1.509,1.509,0,0,1-1.594-1.594V-89.217c0-.13-.026-.156-.156-.156H90.241a1.45,1.45,0,0,1-1.5-1.531v-.406a1.45,1.45,0,0,1,1.5-1.531H101.3a1.465,1.465,0,0,1,1.531,1.531v.406a1.465,1.465,0,0,1-1.531,1.531h-3.25c-.13,0-.156.026-.156.156v12.436A1.509,1.509,0,0,1,96.3-75.188ZM90.241-91.842a.466.466,0,0,0-.5.531v.406a.466.466,0,0,0,.5.531h3.281a1.106,1.106,0,0,1,1.156,1.156v12.436a.526.526,0,0,0,.594.594H96.3a.526.526,0,0,0,.594-.594V-89.217a1.106,1.106,0,0,1,1.156-1.156h3.25a.475.475,0,0,0,.531-.531v-.406a.475.475,0,0,0-.531-.531ZM60.4-75.188H59.183a1.765,1.765,0,0,1-1.711-1.181L56.34-79.043a.33.33,0,0,0-.02-.045.375.375,0,0,0-.074-.006h-6.5a.506.506,0,0,0-.1.007.429.429,0,0,0-.036.067L48.454-76.3a1.718,1.718,0,0,1-1.707,1.109H46.4a1.357,1.357,0,0,1-1.21-.618,1.447,1.447,0,0,1-.227-.757,1.561,1.561,0,0,1,.171-.71C48.33-84.69,49.849-88.2,50.562-89.838c.32-.736.558-1.28.689-1.575.051-.116.078-.174.091-.2l.012-.024a2.25,2.25,0,0,1,2.112-1.545,2.224,2.224,0,0,1,2.085,1.555c3.217,7.414,4.735,10.934,5.442,12.58.323.752.552,1.288.68,1.592.032.076.06.143.082.2h0a1.388,1.388,0,0,1,.146.692,1.326,1.326,0,0,1-.209.746l-.016.023A1.567,1.567,0,0,1,60.4-75.188ZM57.273-79.4l1.121,2.647a.776.776,0,0,0,.789.57H60.4a.587.587,0,0,0,.464-.192.392.392,0,0,0,.036-.183.426.426,0,0,0-.041-.245l-.132-.264.013-.02c-.293-.694-1.46-3.425-6.111-14.145-.268-.631-.659-.949-1.166-.949-.333,0-.819.1-1.2.953l-.134.3c-.337.762-1.57,3.589-6.082,14.07l-.012.026a.571.571,0,0,0-.072.276.448.448,0,0,0,.085.243.4.4,0,0,0,.352.132h.344a.734.734,0,0,0,.791-.511L48.7-79.422a1.041,1.041,0,0,1,1.051-.672h6.5A1.021,1.021,0,0,1,57.273-79.4ZM37.562-75.188h-1a1.453,1.453,0,0,1-1.625-1.5v-5.843a.258.258,0,0,0-.026-.14.194.194,0,0,0-.1-.016H29.063c-.13,0-.156.026-.156.156v5.749a1.493,1.493,0,0,1-1.594,1.594H26.282a1.509,1.509,0,0,1-1.594-1.594V-100.09a1.509,1.509,0,0,1,1.594-1.594h1.031a1.493,1.493,0,0,1,1.594,1.594v14c0,.156.052.156.125.156h5.78a.192.192,0,0,0,.1-.017.259.259,0,0,0,.026-.139v-5.155a1.54,1.54,0,0,1,1.625-1.594h1a1.54,1.54,0,0,1,1.625,1.594v14.467A1.524,1.524,0,0,1,37.562-75.188Zm-8.5-8.5h5.749a1.08,1.08,0,0,1,1.125,1.156v5.843c0,.253.048.5.625.5h1c.42,0,.625-.194.625-.594V-91.248a.55.55,0,0,0-.625-.594h-1a.55.55,0,0,0-.625.594v5.155a1.08,1.08,0,0,1-1.125,1.156h-5.78a1.092,1.092,0,0,1-1.125-1.156v-14c0-.411-.183-.594-.594-.594H26.282a.526.526,0,0,0-.594.594v23.309a.526.526,0,0,0,.594.594h1.031c.411,0,.594-.183.594-.594v-5.749A1.106,1.106,0,0,1,29.063-83.687Zm26.183,2.344H50.716a.757.757,0,0,1-.812-.75.819.819,0,0,1,.127-.474l2.222-5.309A.784.784,0,0,1,53-88.4a.774.774,0,0,1,.713.529l2.243,5.358a1.048,1.048,0,0,1,.107.425A.757.757,0,0,1,55.246-81.343Zm-4.225-1h3.92l-1.96-4.682Zm60.123-11.81a2.542,2.542,0,0,1-1.806-.756,2.542,2.542,0,0,1-.756-1.806,2.581,2.581,0,0,1,2.562-2.593,2.53,2.53,0,0,1,1.822.763,2.6,2.6,0,0,1,.74,1.83A2.565,2.565,0,0,1,111.144-94.154Zm0-4.156a1.58,1.58,0,0,0-1.562,1.593,1.583,1.583,0,0,0,1.562,1.562,1.564,1.564,0,0,0,1.562-1.562A1.561,1.561,0,0,0,111.144-98.309Z" transform="translate(289.518 234)" fill="#394e98"/>
  </g>
</svg>
