<svg xmlns="http://www.w3.org/2000/svg" xmlns:xlink="http://www.w3.org/1999/xlink" width="362" height="241" viewBox="0 0 362 241">
  <defs>
    <clipPath id="clip-no_comments">
      <rect width="362" height="241"/>
    </clipPath>
  </defs>
  <g id="no_comments" clip-path="url(#clip-no_comments)">
    <g id="illustration_-_no_comments" data-name="illustration - no comments" transform="translate(32.5 52.5)">
      <path id="Background" d="M277.749,86.625a9.625,9.625,0,1,1,9.625,9.625A9.626,9.626,0,0,1,277.749,86.625ZM192.5,96.25a9.676,9.676,0,0,1-2.063-.222,9.684,9.684,0,0,1-2.063.222H63.25A9.625,9.625,0,0,1,63.25,77H9.625a9.625,9.625,0,1,1,0-19.249h55a9.625,9.625,0,0,0,0-19.251H30.249a9.625,9.625,0,0,1,0-19.249h55A9.625,9.625,0,0,1,85.25,0h78.375a9.625,9.625,0,0,1,0,19.251h88a9.625,9.625,0,1,1,0,19.249h30.251a9.625,9.625,0,0,1,0,19.251H255.75a9.625,9.625,0,1,0,0,19.249H264a9.625,9.625,0,0,1,0,19.251Z" transform="translate(0 20.625)" fill="#88b8f9" opacity="0.3"/>
      <path id="Shape" d="M115.242,135.411a2.77,2.77,0,0,1-1.681-.571l-17.412-13.4a91.626,91.626,0,0,1-20.524,2.305,89.784,89.784,0,0,1-29.437-4.862,78.083,78.083,0,0,1-24.038-13.26A62.622,62.622,0,0,1,5.943,85.959a51.774,51.774,0,0,1,0-48.169A62.622,62.622,0,0,1,22.15,18.123,78.082,78.082,0,0,1,46.188,4.862a91.535,91.535,0,0,1,58.874,0A78.081,78.081,0,0,1,129.1,18.123a62.622,62.622,0,0,1,16.207,19.668,51.866,51.866,0,0,1-1.288,50.522c-.841,1.455-1.774,2.914-2.771,4.336l-12.58,13.329a75.158,75.158,0,0,1-10.907,7.285l.226,19.364a2.755,2.755,0,0,1-2.718,2.783ZM133.815,101.4l0,0,3.952-4.246C136.521,98.614,135.192,100.042,133.815,101.4Z" transform="translate(79.75)" fill="#fff" stroke="#88b8f9" stroke-linecap="round" stroke-miterlimit="10" stroke-width="2.5"/>
      <path id="Shape-2" data-name="Shape" d="M52.25,8.25A8.25,8.25,0,1,1,60.5,16.5,8.251,8.251,0,0,1,52.25,8.25Zm-26.125,0a8.25,8.25,0,1,1,8.25,8.249A8.251,8.251,0,0,1,26.125,8.25ZM0,8.25A8.25,8.25,0,1,1,8.25,16.5,8.251,8.251,0,0,1,0,8.25Z" transform="translate(119.625 53.625)" fill="rgba(136,184,249,0.3)" stroke="#88b8f9" stroke-miterlimit="10" stroke-width="2.5"/>
      <path id="Line" d="M3.232,0A47.238,47.238,0,0,0,0,6.546" transform="translate(96.679 41.678)" fill="#88b8f9" stroke="#88b8f9" stroke-linecap="round" stroke-miterlimit="10" stroke-width="2.5"/>
      <path id="Line-2" data-name="Line" d="M22.114,0A59.862,59.862,0,0,0,0,17.665" transform="translate(103.042 19.351)" fill="#88b8f9" stroke="#88b8f9" stroke-linecap="round" stroke-miterlimit="10" stroke-width="2.5"/>
    </g>
  </g>
</svg>
