<svg xmlns="http://www.w3.org/2000/svg" xmlns:xlink="http://www.w3.org/1999/xlink" width="323" height="252" viewBox="0 0 323 252">
  <defs>
    <clipPath id="clip-under-construction-illustration">
      <rect width="323" height="252"/>
    </clipPath>
  </defs>
  <g id="under-construction-illustration" clip-path="url(#clip-under-construction-illustration)">
    <g id="Under_Constructions__Two_Color" data-name="Under Constructions _Two Color" transform="translate(-51.817 -36.501)">
      <path id="Tracé_1903" data-name="Tracé 1903" d="M158.471,61.453c-44.483,10.455-79.628,43.491-89.91,85.957-7.665,31.607-.934,64.205,50.661,76.078,111.523,25.659,232.015,17.141,246.493-34.108S353.322,50.226,289.532,44.785C253.211,41.661,198.688,52.036,158.471,61.453Z" transform="translate(2.153 0.628)" fill="#dcdfea" opacity="0.3"/>
      <ellipse id="Ellipse_695" data-name="Ellipse 695" cx="156.847" cy="18.512" rx="156.847" ry="18.512" transform="translate(61.123 247.873)" fill="#dcdfea" opacity="0.45"/>
      <rect id="Rectangle_3065" data-name="Rectangle 3065" width="6.582" height="90.037" transform="translate(335.976 174.367) rotate(15.67)" fill="#dcdfea"/>
      <path id="Tracé_1904" data-name="Tracé 1904" d="M308.656,163.855a5.488,5.488,0,0,1-1.475-.208l-10.651-2.939a5.475,5.475,0,0,1-3.792-6.755l2.144-7.642a5.487,5.487,0,0,1,6.755-3.8l10.628,2.985a5.487,5.487,0,0,1,3.792,6.766l-2.144,7.642A5.5,5.5,0,0,1,308.656,163.855ZM308.1,160.4a2.063,2.063,0,0,0,2.547-1.429l2.144-7.642a2.063,2.063,0,0,0-1.429-2.559l-10.628-2.974a2.063,2.063,0,0,0-2.547,1.429l-2.144,7.642a2.063,2.063,0,0,0,1.429,2.548Z" transform="translate(36.756 15.606)" fill="#b9c0d4"/>
      <path id="Tracé_1905" data-name="Tracé 1905" d="M297.59,240.665l5.291-18.858L271.354,213l-5.533,19.711a16.265,16.265,0,0,0-.219,8Z" transform="translate(32.584 26.401)" fill="#b9c0d4"/>
      <rect id="Rectangle_3066" data-name="Rectangle 3066" width="16.115" height="153.216" transform="translate(166.341 115.993)" fill="#b2ccff"/>
      <rect id="Rectangle_3067" data-name="Rectangle 3067" width="16.115" height="153.216" transform="translate(253.427 115.993)" fill="#b2ccff"/>
      <rect id="Rectangle_3068" data-name="Rectangle 3068" width="16.115" height="153.216" transform="translate(166.341 115.993)" fill="#00359e" opacity="0.12"/>
      <rect id="Rectangle_3069" data-name="Rectangle 3069" width="16.115" height="153.216" transform="translate(253.427 115.993)" fill="#00359e" opacity="0.12"/>
      <rect id="Rectangle_3070" data-name="Rectangle 3070" width="141.424" height="49.889" transform="translate(147.264 135.012)" fill="#b2ccff"/>
      <path id="Tracé_1906" data-name="Tracé 1906" d="M140.84,122.44l16.9,49.889h23.377l-19.2-49.889Z" transform="translate(13.593 12.572)" fill="#00359e"/>
      <path id="Tracé_1907" data-name="Tracé 1907" d="M178.39,122.44l16.9,49.889h23.377L199.45,122.44Z" transform="translate(19.327 12.572)" fill="#00359e"/>
      <path id="Tracé_1908" data-name="Tracé 1908" d="M215.83,122.44l16.9,49.889h23.377L236.89,122.44Z" transform="translate(25.044 12.572)" fill="#00359e"/>
      <rect id="Rectangle_3071" data-name="Rectangle 3071" width="141.424" height="23.388" transform="translate(147.264 203.794)" fill="#b2ccff"/>
      <path id="Tracé_1909" data-name="Tracé 1909" d="M102,239.333,116.132,174.3a2.9,2.9,0,0,1,5.66,0l15.423,66.119Z" transform="translate(7.663 20.147)" fill="#b2ccff"/>
      <rect id="Rectangle_3072" data-name="Rectangle 3072" width="44.333" height="10.893" rx="4.42" transform="translate(104.879 253.21)" fill="#b2ccff"/>
      <rect id="Rectangle_3073" data-name="Rectangle 3073" width="44.333" height="10.893" rx="4.42" transform="translate(104.879 253.21)" fill="#fff" opacity="0.46"/>
      <path id="Tracé_1910" data-name="Tracé 1910" d="M110.262,195.743,125.4,189.68l4.415,18.927-23.792,6.582Z" transform="translate(8.277 22.84)" opacity="0.08"/>
      <path id="Tracé_1911" data-name="Tracé 1911" d="M108.408,239.137s6.444-9.222-3.17-11.827,2.305-15.043-6.64-16.691-7.458,11.527-7.458,11.527-6.132-5.3-10.443-.807,1.706,9.337,1.706,9.337-8.611,2.974-3.239,8.415Z" transform="translate(3.906 26.015)" fill="#dcdfea"/>
      <path id="Tracé_1912" data-name="Tracé 1912" d="M93.08,237.234s4.092-7.008,10.132-6.144,5.383,6.144,5.383,6.144Z" transform="translate(6.301 29.151)" fill="#f9f9fb"/>
      <path id="Tracé_1913" data-name="Tracé 1913" d="M223.549,126.155l48.413,24.495A2.121,2.121,0,0,0,274.89,148l-1.026-2.617a12.68,12.68,0,0,1,0-9.222c3.1-8.069,7.689-25.359-5.187-35.03-16.484-12.415-41.958-11.216-47.952,19.262A5.233,5.233,0,0,0,223.549,126.155Z" transform="translate(25.775 8.189)" fill="#fec84b"/>
      <path id="Tracé_1914" data-name="Tracé 1914" d="M224.31,122.44l38.027,36.7V141.667Z" transform="translate(26.339 12.572)" opacity="0.08"/>
      <path id="Tracé_1915" data-name="Tracé 1915" d="M229.286,107.59c2.939-4.115,8.876-10.236,18.236-10.49a1.66,1.66,0,0,1,.888,3.089A42.316,42.316,0,0,0,235.222,111.9a3.642,3.642,0,0,1-4.611,1.153h0a3.654,3.654,0,0,1-1.326-5.464Z" transform="translate(26.988 8.703)" fill="#fef0c7" opacity="0.31"/>
      <path id="Tracé_1916" data-name="Tracé 1916" d="M107.15,132.024a8.069,8.069,0,0,0-9.371-7.954,10.881,10.881,0,0,0-9.579-5.764h-.4a12.772,12.772,0,0,0,.4-3.135,12.922,12.922,0,1,0-25.843,0,12.771,12.771,0,0,0,.4,3.135h-.4a10.893,10.893,0,0,0,0,21.774H100.13V140a8.069,8.069,0,0,0,7.02-7.977Z" transform="translate(0 9.489)" fill="#dcdfea"/>
      <path id="Tracé_1917" data-name="Tracé 1917" d="M338.5,79.937a10.7,10.7,0,0,0-10.7-10.685,10.571,10.571,0,0,0-1.718.15,14.409,14.409,0,0,0-12.68-7.6h-.53a16.89,16.89,0,0,0,.53-4.138,17.118,17.118,0,1,0-34.224,0,16.888,16.888,0,0,0,.519,4.219h-.53a14.42,14.42,0,0,0,0,28.817H329.2v-.1A10.685,10.685,0,0,0,338.5,79.937Z" transform="translate(32.603)" fill="#dcdfea"/>
    </g>
  </g>
</svg>
