<svg xmlns="http://www.w3.org/2000/svg" xmlns:xlink="http://www.w3.org/1999/xlink" width="24" height="24" viewBox="0 0 24 24">
  <defs>
    <clipPath id="clip-box-black-24dp">
      <rect width="24" height="24"/>
    </clipPath>
  </defs>
  <g id="box-black-24dp" clip-path="url(#clip-box-black-24dp)">
    <rect id="Rectangle_3036" data-name="Rectangle 3036" width="24" height="24" fill="none"/>
    <path id="Tracé_1890" data-name="Tracé 1890" d="M20.5,8v8.2a7.453,7.453,0,0,1-.327,3.162,3,3,0,0,1-1.311,1.311A7.453,7.453,0,0,1,15.7,21H8.3a7.453,7.453,0,0,1-3.162-.327,3,3,0,0,1-1.311-1.311A7.453,7.453,0,0,1,3.5,16.2V8m.1-5H20.4a2.484,2.484,0,0,1,1.054.109,1,1,0,0,1,.437.437A2.484,2.484,0,0,1,22,4.6V6.4a2.484,2.484,0,0,1-.109,1.054,1,1,0,0,1-.437.437A2.484,2.484,0,0,1,20.4,8H3.6a2.484,2.484,0,0,1-1.054-.109,1,1,0,0,1-.437-.437A2.484,2.484,0,0,1,2,6.4V4.6a2.484,2.484,0,0,1,.109-1.054,1,1,0,0,1,.437-.437A2.484,2.484,0,0,1,3.6,3Zm6,8.5h4.8a2.484,2.484,0,0,1,1.054.109,1,1,0,0,1,.437.437A2.484,2.484,0,0,1,16,13.1v.8a2.484,2.484,0,0,1-.109,1.054,1,1,0,0,1-.437.437A2.484,2.484,0,0,1,14.4,15.5H9.6a2.484,2.484,0,0,1-1.054-.109,1,1,0,0,1-.437-.437A2.484,2.484,0,0,1,8,13.9v-.8a2.484,2.484,0,0,1,.109-1.054,1,1,0,0,1,.437-.437A2.484,2.484,0,0,1,9.6,11.5Z" fill="none" stroke="#000" stroke-linecap="round" stroke-linejoin="round" stroke-width="2"/>
  </g>
</svg>
