<svg xmlns="http://www.w3.org/2000/svg" xmlns:xlink="http://www.w3.org/1999/xlink" width="48" height="48" viewBox="0 0 48 48">
  <defs>
    <clipPath id="clip-document_xls-colored-48dp">
      <rect width="48" height="48"/>
    </clipPath>
  </defs>
  <g id="document_xls-colored-48dp" clip-path="url(#clip-document_xls-colored-48dp)">
    <g id="icon_-_xls_document" data-name="icon - xls document">
      <rect id="Box" width="48" height="48" fill="none"/>
      <g id="xls" transform="translate(7.736 4.085)">
        <path id="Tracé_1283" data-name="Tracé 1283" d="M21.964.308A.964.964,0,0,0,21.272,0H5.734A5.256,5.256,0,0,0,.5,5.224V34.606A5.256,5.256,0,0,0,5.734,39.83H26.822a5.256,5.256,0,0,0,5.234-5.224V11.275a1.036,1.036,0,0,0-.279-.673ZM22.243,3.4l6.571,6.9H24.543A2.291,2.291,0,0,1,22.243,8Zm4.579,34.51H5.734a3.332,3.332,0,0,1-3.31-3.3V5.224a3.332,3.332,0,0,1,3.31-3.3H20.319V8a4.209,4.209,0,0,0,4.224,4.214h5.59V34.606A3.326,3.326,0,0,1,26.822,37.906Zm0,0" fill="#a8afbc"/>
        <rect id="Rectangle_1871" data-name="Rectangle 1871" width="36" height="12" rx="2" transform="translate(-1.736 17.915)" fill="#22d788"/>
        <path id="Tracé_1568" data-name="Tracé 1568" d="M-4.181,0-5.612-2.169-6.881,0H-8.33l2-3.249-2.052-3.1h1.5l1.4,2.124,1.251-2.124h1.449L-4.766-3.159-2.678,0ZM.077-.972H2.21V0h-3.4V-6.354H.077Zm8.056-.765a1.723,1.723,0,0,1-.243.9,1.745,1.745,0,0,1-.72.657A2.5,2.5,0,0,1,6.008.063,3.013,3.013,0,0,1,4.8-.167a2.039,2.039,0,0,1-.851-.662,1.908,1.908,0,0,1-.365-1.008h1.35a1.031,1.031,0,0,0,.31.643.974.974,0,0,0,.707.257.822.822,0,0,0,.608-.212.737.737,0,0,0,.212-.544A.713.713,0,0,0,6.6-2.183a1.248,1.248,0,0,0-.432-.31q-.261-.117-.72-.27a7.117,7.117,0,0,1-.972-.392,1.8,1.8,0,0,1-.644-.562,1.612,1.612,0,0,1-.266-.963,1.566,1.566,0,0,1,.59-1.291A2.423,2.423,0,0,1,5.72-6.444a2.473,2.473,0,0,1,1.606.486,1.834,1.834,0,0,1,.68,1.3H6.638a.953.953,0,0,0-.288-.562.894.894,0,0,0-.639-.22.843.843,0,0,0-.567.185.665.665,0,0,0-.216.535.666.666,0,0,0,.167.464,1.271,1.271,0,0,0,.423.3,6.943,6.943,0,0,0,.7.261,9.274,9.274,0,0,1,.995.4,1.752,1.752,0,0,1,.653.567A1.666,1.666,0,0,1,8.132-1.737Z" transform="translate(16.264 26.915)" fill="#fff"/>
      </g>
    </g>
  </g>
</svg>
