<svg xmlns="http://www.w3.org/2000/svg" xmlns:xlink="http://www.w3.org/1999/xlink" width="24" height="24" viewBox="0 0 24 24">
  <defs>
    <clipPath id="clip-eye-black-24dp">
      <rect width="24" height="24"/>
    </clipPath>
  </defs>
  <g id="eye-black-24dp" clip-path="url(#clip-eye-black-24dp)">
    <rect id="Rectangle_3053" data-name="Rectangle 3053" width="24" height="24" fill="none"/>
    <g id="Groupe_1500" data-name="Groupe 1500" transform="translate(0)">
      <path id="Tracé_1958" data-name="Tracé 1958" d="M2.42,12.713a1.5,1.5,0,0,1-.242-.49,1.173,1.173,0,0,1,0-.447,1.5,1.5,0,0,1,.242-.49C3.546,9.5,6.9,5,12,5s8.455,4.5,9.58,6.287a1.5,1.5,0,0,1,.242.49,1.174,1.174,0,0,1,0,.447,1.5,1.5,0,0,1-.242.49C20.455,14.5,17.105,19,12,19S3.546,14.5,2.42,12.713Z" fill="none" stroke="#000" stroke-linecap="round" stroke-linejoin="round" stroke-width="2"/>
      <path id="Tracé_1959" data-name="Tracé 1959" d="M12,15a3,3,0,1,0-3-3A3,3,0,0,0,12,15Z" fill="none" stroke="#000" stroke-linecap="round" stroke-linejoin="round" stroke-width="2"/>
    </g>
  </g>
</svg>
