<svg xmlns="http://www.w3.org/2000/svg" xmlns:xlink="http://www.w3.org/1999/xlink" width="24" height="24" viewBox="0 0 24 24">
  <defs>
    <clipPath id="clip-file-graphs_black_24dp">
      <rect width="24" height="24"/>
    </clipPath>
  </defs>
  <g id="file-graphs_black_24dp" clip-path="url(#clip-file-graphs_black_24dp)">
    <rect id="Rectangle_3053" data-name="Rectangle 3053" width="24" height="24" fill="none"/>
    <path id="Tracé_1892" data-name="Tracé 1892" d="M8,14v4m8-6v6M12,8V18M20,6.8V17.2a7.453,7.453,0,0,1-.327,3.162,3,3,0,0,1-1.311,1.311A7.453,7.453,0,0,1,15.2,22H8.8a7.453,7.453,0,0,1-3.162-.327,3,3,0,0,1-1.311-1.311A7.453,7.453,0,0,1,4,17.2V6.8a7.453,7.453,0,0,1,.327-3.162A3,3,0,0,1,5.638,2.327,7.453,7.453,0,0,1,8.8,2h6.4a7.453,7.453,0,0,1,3.162.327,3,3,0,0,1,1.311,1.311A7.453,7.453,0,0,1,20,6.8Z" fill="none" stroke="#000" stroke-linecap="round" stroke-linejoin="round" stroke-width="2"/>
  </g>
</svg>
