<svg xmlns="http://www.w3.org/2000/svg" xmlns:xlink="http://www.w3.org/1999/xlink" width="24" height="24" viewBox="0 0 24 24">
  <defs>
    <clipPath id="clip-investigation-black-24dp">
      <rect width="24" height="24"/>
    </clipPath>
  </defs>
  <g id="investigation-black-24dp" clip-path="url(#clip-investigation-black-24dp)">
    <rect id="Rectangle_3058" data-name="Rectangle 3058" width="24" height="24" fill="none"/>
    <path id="Tracé_1896" data-name="Tracé 1896" d="M20.5,7.278,12,12m0,0L3.5,7.278M12,12v9.5M21,12V7.942a2.217,2.217,0,0,0-.051-.667,1,1,0,0,0-.214-.364,2.218,2.218,0,0,0-.558-.368l-7.4-4.111a2.2,2.2,0,0,0-.576-.267,1,1,0,0,0-.4,0,2.2,2.2,0,0,0-.576.267l-7.4,4.111a2.218,2.218,0,0,0-.558.368,1,1,0,0,0-.214.364A2.218,2.218,0,0,0,3,7.942v8.117a2.218,2.218,0,0,0,.05.667,1,1,0,0,0,.214.364,2.216,2.216,0,0,0,.558.368l7.4,4.111a2.2,2.2,0,0,0,.576.267,1,1,0,0,0,.4,0,2.2,2.2,0,0,0,.576-.267L13,21.444M7.5,4.5l9,5m5.5,12-1-1M22,18a3,3,0,1,1-3-3A3,3,0,0,1,22,18Z" transform="translate(-0.5)" fill="none" stroke="#000" stroke-linecap="round" stroke-linejoin="round" stroke-width="1.5"/>
  </g>
</svg>
